<svg xmlns="http://www.w3.org/2000/svg" width="755.787" height="777.986" viewBox="0 0 755.787 777.986"><defs><style>.a{fill:#f5f5f5;}.b{fill:#e6e6e6;}.c{fill:#37474f;}.d{fill:#455a64;}.e{fill:#3f403f;}.f{fill:#3b3b3b;}.g{fill:#8d8c8c;}.h{opacity:0.15;}.i,.p{fill:#263238;}.j,.v{fill:#5bb659;}.k{fill:#e0e0e0;}.l{fill:#ebebeb;}.m,.n,.q,.s{fill:#fff;}.n,.o{opacity:0.5;}.p,.u{opacity:0.9;}.q,.r,.v{opacity:0.6;}.s,.t{opacity:0.8;}.w{opacity:0.7;}.x{opacity:0.3;}.y{opacity:0.25;}.ae,.z{opacity:0.1;}.aa{fill:#ffa8a7;}.ab{fill:#fafafa;}.ac{fill:#f28f8f;}.ad{fill:silver;}.ae{fill:#adadad;}.af{opacity:0.2;}</style></defs><g transform="translate(-25.63 -24.878)"><g transform="translate(25.63 384.405)"><ellipse class="a" cx="377.893" cy="209.229" rx="377.893" ry="209.229"/></g><g transform="translate(127.624 382.038)"><path class="b" d="M663.677,416.027,453.015,537.705a6.218,6.218,0,0,1-5.663,0L143.629,362.435a1.685,1.685,0,0,1,0-3.269L354.29,237.487a6.219,6.219,0,0,1,5.663,0l303.724,175.27a1.685,1.685,0,0,1,0,3.27Z" transform="translate(-47.634 -236.805)"/><ellipse class="b" cx="126.532" cy="73.057" rx="126.532" ry="73.057" transform="translate(0 222.854)"/><ellipse class="b" cx="99.601" cy="57.502" rx="99.601" ry="57.502" transform="translate(181.001 153.707)"/><ellipse class="b" cx="62.524" cy="36.099" rx="62.524" ry="36.099" transform="translate(439.592 252.195)"/></g><g transform="translate(245.005 45.269)"><g transform="translate(0 152.578)"><path class="c" d="M335.752,286.9V473.972a4.179,4.179,0,0,1-1.888,3.27l-4.011,2.309a4.146,4.146,0,0,1-3.775,0l-4.011-2.309a4.18,4.18,0,0,1-1.887-3.27V286.9c0-1.2.843-1.685,1.887-1.079l4.011,2.309a4.146,4.146,0,0,0,3.775,0l4.011-2.309C334.909,285.219,335.752,285.708,335.752,286.9Z" transform="translate(-43.151 -19.2)"/><path class="d" d="M326.079,479.466l-4.011-2.309a4.18,4.18,0,0,1-1.887-3.269V286.9c0-1.2.843-1.685,1.888-1.079l4.011,2.309a4.179,4.179,0,0,1,1.888,3.219V478.421C327.966,479.584,327.123,480.107,326.079,479.466Z" transform="translate(-43.151 -19.2)"/><path class="c" d="M437.262,228.268V415.235a4.129,4.129,0,0,1-1.888,3.269l-4.011,2.359a4.247,4.247,0,0,1-3.775,0l-4.011-2.326a4.179,4.179,0,0,1-1.888-3.27v-187c0-1.2.859-1.685,1.888-1.1l4.011,2.326a4.146,4.146,0,0,0,3.775,0l4.011-2.326C436.42,226.583,437.262,227.055,437.262,228.268Z" transform="translate(26.413 -59.389)"/><path class="d" d="M427.589,420.862l-4.011-2.326a4.179,4.179,0,0,1-1.888-3.269v-187c0-1.2.859-1.685,1.888-1.1l4.011,2.326a4.163,4.163,0,0,1,1.887,3.27V419.733A1.185,1.185,0,0,1,427.589,420.862Z" transform="translate(26.413 -59.388)"/><path class="c" d="M199.042,208.015V395.082a4.179,4.179,0,0,1-1.888,3.269l-4.011,2.309a4.146,4.146,0,0,1-3.775,0l-4.011-2.309a4.179,4.179,0,0,1-1.888-3.269V208.015c0-1.2.843-1.685,1.888-1.079l4.062,2.309a4.146,4.146,0,0,0,3.775,0l4.011-2.309C198.2,206.329,199.042,206.818,199.042,208.015Z" transform="translate(-136.838 -73.262)"/><path class="d" d="M189.4,400.611l-4.011-2.309a4.18,4.18,0,0,1-1.887-3.269V207.965c0-1.2.843-1.685,1.887-1.079l4.011,2.393a4.18,4.18,0,0,1,1.888,3.269V399.515C191.236,400.729,190.393,401.217,189.4,400.611Z" transform="translate(-136.817 -73.297)"/><path class="e" d="M656.669,309.689v-1.365a7.567,7.567,0,0,0-3.371-5.949L351.631,128.334a7.6,7.6,0,0,0-6.876,0L159.171,235.519a7.567,7.567,0,0,0-3.371,5.949v1.466a7.567,7.567,0,0,0,3.371,5.949L460.838,422.907a7.718,7.718,0,0,0,6.876,0L653.3,315.638A7.567,7.567,0,0,0,656.669,309.689Z" transform="translate(-155.8 -127.512)"/><path class="f" d="M338.82,343.073v9.3a7.146,7.146,0,0,0,3.371-.826L527.876,244.365a7.6,7.6,0,0,0,3.371-5.949v-1.382a7.634,7.634,0,0,0-2.8-5.494c1.23,1.062,1.028,2.528-.64,3.522L342.224,342.247a6.961,6.961,0,0,1-3.4.826Z" transform="translate(-30.378 -56.223)"/><path class="g" d="M652.527,306.335l-185.618,107.2a7.6,7.6,0,0,1-6.876,0L158.348,239.564a2.09,2.09,0,0,1,0-3.96L343.933,128.334a7.6,7.6,0,0,1,6.876,0l301.718,174.04a2.09,2.09,0,0,1,0,3.96Z" transform="translate(-155.028 -127.512)"/></g><g transform="translate(105.802 246.407)"><path class="h" d="M398.418,264.1l-43.969,25.448a5.477,5.477,0,0,1-4.938,0l-129.9-74.895a1.5,1.5,0,0,1,0-2.848l43.969-25.465a5.494,5.494,0,0,1,4.921,0l129.919,74.911a1.5,1.5,0,0,1,0,2.848Z" transform="translate(-218.579 -181.428)"/><g transform="translate(3.691)"><path class="i" d="M220.77,209.044a1.685,1.685,0,0,1,1.028-1.416L263.1,183.782a5.393,5.393,0,0,1,4.921,0l126.06,72.889A1.685,1.685,0,0,1,395.1,258.1v4.331a1.685,1.685,0,0,1-1.011,1.416L352.8,287.7a5.427,5.427,0,0,1-4.938,0l-126.06-72.8a1.685,1.685,0,0,1-1.028-1.416Z" transform="translate(-220.769 -183.188)"/><path class="c" d="M352.8,283.264l41.29-23.746a1.5,1.5,0,0,0,0-2.848l-126.06-72.889a5.393,5.393,0,0,0-4.921,0L221.8,207.628a1.5,1.5,0,0,0,0,2.848l126.06,72.771a5.477,5.477,0,0,0,4.938.017Z" transform="translate(-220.769 -183.188)"/><path class="i" d="M297.74,253.381v4.432a4.922,4.922,0,0,0,2.309-.573l41.273-23.83a1.685,1.685,0,0,0,1.028-1.433V227.63a1.685,1.685,0,0,1-1.028,1.432l-41.273,23.746A5.055,5.055,0,0,1,297.74,253.381Z" transform="translate(-168.022 -152.731)"/><path class="j" d="M225.324,207.478h0l4.078-2.359,5.545,3.2-4.112,2.444-5.545-3.2Zm6.4-3.691,4.1-2.359,4.365,2.511-4.112,2.326-4.348-2.511Zm1.348,8.174,4.1-2.359,4.348,2.511-4.112,2.444-4.348-2.511Zm5.056-11.8h0l4.1-2.359,7.028,4.078-4.112,2.427-7.028-4.062Zm.152,7.483h0l4.078-2.376,3.472,2.005-4.1,2.359-3.455-2.039Zm1.348,8.157h0l4.078-2.359,4.365,2.511-4.129,2.444-4.348-2.511Zm4.314-4.887,4.078-2.359,3.371,2.005-4.112,2.444L243.913,211Zm.573-14.46h0l4.1-2.359,5.545,3.2-4.078,2.326-5.545-3.2ZM246.2,219.6h0l4.078-2.359L281.764,235.4l-4.112,2.444L246.171,219.68Zm1.18-14.106h0l4.078-2.359,3.371,2.005-4.112,2.427-3.455-1.989Zm2.241,8.7,4.078-2.359,3.455,2.006-4.112,2.444-3.455-2.005Zm1.3-21.4h0L255,190.423l3.472,2.006-4.112,2.427-3.421-2.073Zm1.348,8.174h0l4.078-2.359,3.472,1.989-4.078,2.309-3.472-1.989Zm.758,7.82h0l4.078-2.359,3.455,2.005-4.112,2.427L253,208.86Zm2.241,8.7,4.078-2.359,3.371,2.006-4.112,2.444-3.371-2.006Zm1.315-21.42h0l4.078-2.359,3.472,2.006-4.112,2.427-3.371-1.989Zm1.348,8.174h0l4.078-2.359,3.472,1.989-4.112,2.444-3.455-1.989Zm.758,7.82h0l4.078-2.359,3.371,2.006-4.112,2.427-3.371-1.989Zm0-23.746h0l4.078-2.359,4.365,2.511-4.129,2.444-4.348-2.511Zm2.241,32.442,4.078-2.359,3.455,2.006-4.112,2.444-3.455-2.006Zm1.315-21.42h0l4.078-2.359,3.472,2.006-4.078,2.241-3.455-1.989Zm1.348,8.174h0l4.078-2.359,3.472,1.989-4.112,2.444-3.472-2.123Zm.758,7.82h0l4.078-2.359,3.455,2.005-4.112,2.427-3.455-1.989Zm2.241,8.7,4.078-2.359,3.371,2.006-4.112,2.444-3.371-2.005Zm1.112-30.5h0l4.1-2.359,3.455,1.989-4.112,2.444-3.455-1.989Zm.2,9.084h0l4.078-2.359,3.472,2.006-4.1,2.343L268,202.591Zm1.348,8.174h0l4.078-2.359,3.472,1.989-4.112,2.444-3.455-1.989Zm.758,7.82h0l4.078-2.359,3.371,2.006-4.112,2.427-3.371-1.989Zm2.241,8.7h0l4.112-2.477,3.371,2.006-4.112,2.444-3.455-2.005Zm1.112-30.5h0l4.078-2.359,3.472,1.989-4.112,2.444-3.371-1.989Zm.2,9.084h0l4.078-2.359,3.472,2.006-4.078,2.292-3.371-1.989Zm1.348,8.174h0L279,211.674l3.472,1.989-4.112,2.444-3.455-1.989Zm.758,7.82h0l4.1-2.359,3.455,2.005-4.112,2.427-3.455-1.989Zm2.241,8.7h0L282,228.173l3.455,2.006-4.112,2.444-3.455-2.005Zm1.112-30.5h0l4.1-2.359,3.455,1.989-4.112,2.444-3.455-1.989Zm.2,9.084h0l4.1-2.359,3.455,2.006-4.129,2.427-3.371-1.989Zm.624,29.931,4.1-2.359,4.348,2.511-4.112,2.444-4.348-2.511Zm.725-21.757h0l4.078-2.359,3.472,1.989-4.112,2.444-3.455-1.989Zm.758,7.82h0l4.1-2.359,3.4,1.871-4.112,2.427-3.455-1.989Zm2.241,8.7,4.078-2.359,3.472,2.006-4.129,2.444-3.455-2.006Zm1.112-30.5h0l4.1-2.359,3.421,1.938-4.112,2.444-3.455-1.989Zm.2,9.084h0l4.1-2.359,3.455,2.006-4.112,2.427-3.455-1.989Zm1.348,8.174h0l4.1-2.359,3.371,1.989-4.112,2.444-3.371-1.989Zm.169,22.263h0l4.1-2.359,4.348,2.511-4.112,2.444L286.4,242.92Zm.59-14.443h0l4.078-2.359,3.371,2.005-3.927,2.292-3.371-1.989Zm2.241,8.7,4.078-2.359,3.472,2.005-4.129,2.444-3.455-2.006Zm1.315-21.42h0l4.1-2.359,3.371,2.006-4.112,2.427-3.387-2.123Zm1.348,8.174h0l4.1-2.359,3.455,1.989-4.112,2.444-3.455-1.989Zm.758,7.82h0l4.078-2.359,3.455,2.006-4.112,2.427-3.421-2.191Zm.169-23.594h0l4.1-2.359,3.455,2.006-4.112,2.444-3.438-2.208Zm.135,38.61,4.1-2.359,4.348,2.511-4.146,2.258-4.348-2.511Zm1.938-6.269h0l4.078-2.376,3.472,2.005-4.129,2.444-3.371-2.006Zm1.315-21.42,4.078-2.359,3.472,2.006-4.112,2.427-3.455-1.989Zm1.348,8.174h0l4.1-2.359,3.455,1.989-4.112,2.444-3.455-1.989Zm.758,7.82h0l4.078-2.359,3.472,2.006-4.129,2.427-3.421-2.14Zm.169-23.594h0l4.1-2.359,3.455,2.006-4.112,2.444-3.371-2.006Zm1.045,39.133,4.1-2.376,5.545,3.2-4.112,2.444-5.545-3.2Zm1.028-6.741h0l4.078-2.376,10.921,6.3-4.112,2.444-10.82-6.59Zm1.315-21.42h0l4.1-2.359,3.455,2.006-4.112,2.427-3.455-1.989Zm1.348,8.174h0l4.1-2.359,3.421,1.685-4.112,2.444-3.455-1.989Zm.758,7.82h0l4.078-2.359L311.543,238l-4.163,2.14-3.371-1.989Zm.169-23.594h0l4.1-2.359,3.455,2.006-4.112,2.444-3.455-2.006Zm3.371,10.921h0l4.1-2.359,3.455,2.005-4.112,2.427-3.455-1.989Zm.927,30.1h0l4.078-2.359,3.472,1.989-4.129,2.444-3.371-1.989Zm.421-21.909h0l4.1-2.359,3.371,1.989-3.91,2.09-3.371-1.989Zm.758,7.82h0l4.078-2.359,3.168,1.82a2.022,2.022,0,0,0,.994.219,2.242,2.242,0,0,0,1.045-.219l5.376-3.1,4.045,2.343-10.5,6.134-8.241-4.753Zm.169-23.594h0l4.1-2.359,3.455,2.005-4.078,2.005-3.455-2.006Zm3.371,10.921h0l4.078-2.359,3.472,2.006-4.112,2.427-3.371-1.989Zm.927,30.1h0l4.078-2.359,3.472,1.989-4.129,2.444-3.371-1.989Zm.421-21.909h0l4.1-2.359,3.455,1.989-4.112,2.444-3.455-1.989ZM317.9,222.8h0l4.078-2.359,3.472,1.989-4.129,2.444-3.455-1.989Zm.927,9.505h0l4.078-2.359,3.472,2.006-4.112,2.427-3.455-1.989Zm.927,30.1h0l4.1-2.359,3.455,1.989-4.129,2.444-3.371-1.989Zm.741-6.96,4.078-2.359,3.472,2.005-4.129,2.444-3.37-2.393Zm3.067-29.375h0l4.078-2.359,3.455,1.989-4.112,2.444-3.455-1.989Zm.927,9.505h0l4.1-2.359,6.135,3.539L330.6,239.2l-6.134-3.539Zm2.123,30.79h0L330.688,264l9.134,5.258-4.129,2.444-9.117-5.258Zm1.011-21.589h0l4.1-2.359,3.455,2.006-4.112,2.427-3.455-1.989Zm1.6-15.437h0l4.078-2.359,3.455,1.989-4.1,2.022L329.289,229Zm3.792,33.335h0l4.1-2.359,3.455,2.005-4.112,2.444L333,262.756Zm.27-14.628h0l4.1-2.359,3.371,2.006-4.112,2.427-3.371-1.989Zm.741-6.96h0l4.1-2.359,3.371,1.989-4.112,2.444-3.371-1.989Zm.86-8.426h0l4.078-2.359,3.371,1.989-4.112,2.444-3.371-1.989Zm3.05,40.3h0l4.078-2.359,3.472,1.989-4.129,2.444-3.371-1.989Zm.742-6.96h0l4.1-2.359,3.371,2.005-4.112,2.444-3.371-2.006Zm.27-14.628h0l4.1-2.359,3.455,2.006-4.112,2.427-3.455-1.989Zm.472,7.651,4.1-2.359,3.371,2.005-4.112,2.427L339.4,259.1Zm.27-14.611h0l4.1-2.359,3.455,1.989-4.112,2.444-3.455-1.989Zm2.107-7.752h0l4.078-2.359,3.472,1.989-4.028,2.005-3.455-1.989Zm1.8,39.571h0l10.483-6.067,3.455,2.006-10.5,6.134-3.472-1.989Zm.742-6.96h0l4.1-2.359,3.455,2.005-4.061,1.955-3.371-2.006Zm.742-6.977,4.1-2.359,3.455,2.005-4.112,2.427-3.387-2.477Zm.27-14.611h0l4.1-2.359L352.9,247.3l-4.112,2.444-3.455-1.989Zm.455,7.651h0l4.1-2.359,3.455,1.989-4.112,2.444-3.455-1.989Zm1.685-15.4h0l4.078-2.359,3.472,1.989-4.112,2.444L347.474,240Zm3.286,25.633,4.1-2.359,3.455,2.005-4.112,2.444-3.421-2.393Zm.725-6.96h0l4.1-2.359,3.455,1.989-4.061,1.972-3.455-1.989Zm.742-6.96h0l4.078-2.359,3.472,1.989-4.129,2.444-3.371-1.989Zm.91-8.426h0l4.078-2.359,3.472,1.989-4.112,2.444-3.455-1.989Zm3.286,25.633h0l10.5-6.05,3.455,1.989-10.516,6.151-3.455-2.005Zm.725-6.96h0l4.1-2.359,3.455,1.989-4.112,2.444-3.455-1.989Zm.742-6.96h0l4.078-2.359,3.472,1.989L361.31,256.5l-3.371-1.989Zm3.758-8.713h0l1.685-1.028,3.472,2.005-1.786,1.1-3.371-1.989Zm1.9,11.982h0l4.078-2.359,3.472,1.989-4.129,2.444-3.371-1.989Zm3.758-8.713h0l1.685-1.028,3.472,2.006-1.786,1.1-3.371-1.989Zm1.9,11.982h0l4.078-2.359,3.472,1.989-4.129,2.444-3.371-1.989Zm3.758-8.713h0l1.685-1.028,3.472,2.006-1.786,1.1-3.371-1.989Zm5.646,3.269h0l1.685-1.028,3.472,2.005-1.786,1.1-3.371-1.989Z" transform="translate(-217.671 -181.301)"/></g></g><g transform="translate(193.842 31.317)"><path class="h" d="M464.224,289.658l38.677-22.33L309.5,155.66,270.82,177.99Z" transform="translate(-270.82 13.039)"/><g transform="translate(6.5)"><path class="b" d="M333.556,245.857,305.951,229.88c-2.848-1.685-4.281-3.792-4.281-5.949v-3.842l25.987-14.746a6.1,6.1,0,0,0,2.747-4.769V166.53L378.637,194.4v34.043a6.1,6.1,0,0,1-2.747,4.769l-21.707,12.64A22.819,22.819,0,0,1,333.556,245.857Z" transform="translate(-256.179 20.488)"/><path class="k" d="M340.47,225.291v3.826l8.831-5.056a6.067,6.067,0,0,0,2.747-4.769V185.249l-9.185-5.309c-.185,2.343-.4,4.753-.59,7.1l6.438,3.741V217.37a6.016,6.016,0,0,1-2.747,4.769Z" transform="translate(-229.59 29.677)"/><path class="a" d="M375.3,224.279a6.067,6.067,0,0,1-2.747,4.769l-18.37,10.719a22.819,22.819,0,0,1-20.628,0L305.937,223.79c-5.7-3.269-5.7-8.612,0-11.9l18.387-10.718a6.067,6.067,0,0,0,2.747-4.753V169.81L375.3,197.685Z" transform="translate(-256.182 22.735)"/><path class="l" d="M311.79,204.409h0l5.6-3.236a6.067,6.067,0,0,0,2.747-4.753V169.81l48.233,27.875v26.594a6.067,6.067,0,0,1-2.747,4.769l-5.494,3.185Z" transform="translate(-249.244 22.735)"/><path class="l" d="M301.67,198.31v3.842c0,2.157,1.432,4.3,4.264,5.949l27.622,15.96A20.763,20.763,0,0,0,343.4,226.5v-3.826a20.764,20.764,0,0,1-9.842-2.444l-27.622-15.977C303.1,202.624,301.67,200.467,301.67,198.31Z" transform="translate(-256.179 42.266)"/><path class="d" d="M471.255,339.313a7.365,7.365,0,0,1-6.657-.118L278.053,231.572a7.567,7.567,0,0,1-3.371-5.949V62.268a6.455,6.455,0,0,1,9.893-5.713L471.1,164.262a7.567,7.567,0,0,1,3.371,5.949V333.482a7.348,7.348,0,0,1-3.219,5.831Z" transform="translate(-274.677 -55.56)"/><path class="c" d="M464.6,337.451,278.051,229.845a7.567,7.567,0,0,1-3.371-5.949V60.524c0-2.191,1.534-3.067,3.371-1.972L464.6,166.242a7.617,7.617,0,0,1,3.371,5.949V335.479C468.034,337.7,466.483,338.546,464.6,337.451Z" transform="translate(-274.675 -53.832)"/><path class="k" d="M387.67,234.156a6.421,6.421,0,0,0,9.37-5.966V209.82l-6.438,3.674v18.37C390.6,233.92,389.338,234.813,387.67,234.156Z" transform="translate(-197.244 50.154)"/><path class="m" d="M468.034,257.387v18.37c0,2.191-1.551,3.084-3.371,1.989L278.051,170.089a7.567,7.567,0,0,1-3.371-5.949V145.77Z" transform="translate(-274.675 6.261)"/><path class="j" d="M458.982,299.262V170.034a4.584,4.584,0,0,0-2.056-3.573L280.526,64.635c-1.129-.657-2.056-.135-2.056,1.18V195.043a4.533,4.533,0,0,0,2.056,3.573l176.4,101.842C458,301.116,458.982,300.576,458.982,299.262Z" transform="translate(-272.078 -49.534)"/><path class="n" d="M458.982,299.262V170.034a4.584,4.584,0,0,0-2.056-3.573L280.526,64.635c-1.129-.657-2.056-.135-2.056,1.18V195.043a4.533,4.533,0,0,0,2.056,3.573l176.4,101.842C458,301.116,458.982,300.576,458.982,299.262Z" transform="translate(-272.078 -49.534)"/><path class="d" d="M333.316,183.244a7.145,7.145,0,0,1,3.219,5.578c0,2.056-1.449,2.9-3.219,1.871a7.145,7.145,0,0,1-3.236-5.6C330.131,183.126,331.631,182.216,333.316,183.244Z" transform="translate(-236.71 31.649)"/><path class="i" d="M388.81,125.281a7.415,7.415,0,0,1,1.011,3.371V273.957l6.438-3.724V124.961a7.079,7.079,0,0,0-1.011-3.371Z" transform="translate(-196.462 -10.309)"/></g></g><g transform="translate(230.784)"><path class="d" d="M292.757,40.275a1.885,1.885,0,0,1,0-.3h0a1.409,1.409,0,0,1,0-.286,1.346,1.346,0,0,1,.185-.421.556.556,0,0,1,.1-.169l.1-.118a1.345,1.345,0,0,1,.219-.219h0a1.687,1.687,0,0,1,.286-.169,2.41,2.41,0,0,1,2.208.286L513.564,164.5a7.331,7.331,0,0,1,3.286,5.713V327.769h0v.725a2.241,2.241,0,0,1-1.18,1.972l-.152.1-.169.1h-.286a1.684,1.684,0,0,1-.421,0,2.173,2.173,0,0,1-1.079-.32h-.084l-2.9-1.77L296.026,204.743a7.28,7.28,0,0,1-3.286-5.7V40.629C292.74,40.545,292.757,40.41,292.757,40.275Z" transform="translate(-292.74 -35.973)"/><path class="j" d="M293.38,39.51a2.41,2.41,0,0,1,2.208.286L513.294,165.418a7.331,7.331,0,0,1,3.286,5.713v10.82l4.2-2.461V168.822a7.28,7.28,0,0,0-3.286-5.7L299.784,37.42a2.292,2.292,0,0,0-2.376-.2C296.818,37.589,294.088,39.139,293.38,39.51Z" transform="translate(-292.301 -36.977)"/><path class="j" d="M292.74,40.7c0-2.073,1.483-2.916,3.286-1.871L513.732,164.471a7.23,7.23,0,0,1,3.286,5.7v10.82L292.74,51.506Z" transform="translate(-292.74 -36.013)"/><g class="o" transform="translate(1.095 0.001)"><path class="m" d="M295.581,39.8,513.287,165.435a6.741,6.741,0,0,1,2.309,2.427l4.18-2.41a6.589,6.589,0,0,0-2.292-2.41L299.794,37.42a2.326,2.326,0,0,0-2.393-.2c-.59.371-3.371,1.921-4.011,2.292a2.326,2.326,0,0,1,2.191.287Z" transform="translate(-293.39 -36.978)"/></g><path class="h" d="M430.431,127.215V116.531a6.74,6.74,0,0,0-.994-3.371l-4.2,2.41a6.471,6.471,0,0,1,.994,3.269v10.9Z" transform="translate(-201.939 15.23)"/><path class="d" d="M422.174,114.618a4.9,4.9,0,0,1,1.854,3.944c0,1.567-.826,2.376-1.854,1.786a4.9,4.9,0,0,1-1.854-3.944C420.32,114.838,421.146,114.029,422.174,114.618Z" transform="translate(-205.311 16.097)"/><path class="d" d="M418.2,112.329a4.871,4.871,0,0,1,1.854,3.927c0,1.584-.826,2.376-1.854,1.786a4.871,4.871,0,0,1-1.854-3.927C416.35,112.532,417.176,111.739,418.2,112.329Z" transform="translate(-208.031 14.527)"/><path class="d" d="M414.234,110.1a4.9,4.9,0,0,1,1.854,3.944c0,1.567-.826,2.376-1.854,1.786a4.921,4.921,0,0,1-1.854-3.944C412.38,110.216,413.206,109.424,414.234,110.1Z" transform="translate(-210.752 12.967)"/><path class="p" d="M425.127,273.5l.169-.1,3.472-2.005a3.472,3.472,0,0,0,1.685-2.545,4.457,4.457,0,0,0,0-.472V121.49l-4.213,2.477V271.515a2.174,2.174,0,0,1-1.028,1.871h-.1Z" transform="translate(-202.028 20.939)"/><g transform="translate(5.342 27.89)"><path class="j" d="M332.783,79.509l45.891,26.442a2.494,2.494,0,0,1,1.18,1.938c0,.708-.522.977-1.18.59L332.783,82.037A2.511,2.511,0,0,1,331.62,80.1C331.62,79.391,332.142,79.138,332.783,79.509Z" transform="translate(-271.438 -35.837)"/><path class="b" d="M343.2,109.547l17.325,10.011a2.494,2.494,0,0,1,1.163,1.938c0,.691-.522.961-1.163.59L343.2,112.109a2.46,2.46,0,0,1-1.18-1.938C341.987,109.446,342.543,109.177,343.2,109.547Z" transform="translate(-264.312 -15.25)"/><path class="b" d="M343.2,115.559l17.325,9.994a2.545,2.545,0,0,1,1.163,1.955c0,.691-.522.961-1.163.59L343.2,118.1a2.494,2.494,0,0,1-1.18-1.938C341.987,115.441,342.543,115.188,343.2,115.559Z" transform="translate(-264.312 -11.132)"/><path class="j" d="M362.7,96.748l91.9,52.918a2.545,2.545,0,0,1,1.163,1.955c0,.691-.523.961-1.163.59L362.7,99.293a2.545,2.545,0,0,1-1.163-1.955C361.54,96.647,362.062,96.377,362.7,96.748Z" transform="translate(-250.934 -24.022)"/><path class="j" d="M343.413,151.678l27.976,16.2a2.461,2.461,0,0,1,1.18,1.938c0,.691-.523.961-1.18.59l-27.976-16.2a2.494,2.494,0,0,1-1.163-1.938C342.25,151.577,342.772,151.307,343.413,151.678Z" transform="translate(-264.154 13.622)"/><path class="j" d="M362.7,162.839l91.9,52.986a2.511,2.511,0,0,1,1.163,1.938c0,.708-.522.961-1.163.59l-91.9-52.986a2.511,2.511,0,0,1-1.163-1.938C361.54,162.721,362.062,162.468,362.7,162.839Z" transform="translate(-250.934 21.268)"/><path class="j" d="M332.783,85.527l23.072,13.28a2.511,2.511,0,0,1,1.163,1.938c0,.708-.522.977-1.163.59L332.783,88.122a2.494,2.494,0,0,1-1.163-1.938C331.62,85.426,332.142,85.156,332.783,85.527Z" transform="translate(-271.438 -31.71)"/><path class="q" d="M332.783,85.527l23.072,13.28a2.511,2.511,0,0,1,1.163,1.938c0,.708-.522.977-1.163.59L332.783,88.122a2.494,2.494,0,0,1-1.163-1.938C331.62,85.426,332.142,85.156,332.783,85.527Z" transform="translate(-271.438 -31.71)"/><path class="j" d="M332.783,91.528l10.82,6.236a2.511,2.511,0,0,1,1.163,1.938c0,.691-.522.961-1.163.59l-10.82-6.168a2.511,2.511,0,0,1-1.163-1.938C331.62,91.41,332.142,91.158,332.783,91.528Z" transform="translate(-271.438 -27.599)"/><path class="q" d="M332.783,91.528l10.82,6.236a2.511,2.511,0,0,1,1.163,1.938c0,.691-.522.961-1.163.59l-10.82-6.168a2.511,2.511,0,0,1-1.163-1.938C331.62,91.41,332.142,91.158,332.783,91.528Z" transform="translate(-271.438 -27.599)"/><path class="j" d="M332.783,103.538l10.82,6.236a2.545,2.545,0,0,1,1.163,1.955c0,.691-.522.961-1.163.59l-10.82-6.236a2.545,2.545,0,0,1-1.163-1.955C331.62,103.437,332.142,103.167,332.783,103.538Z" transform="translate(-271.438 -19.369)"/><path class="q" d="M332.783,103.538l10.82,6.236a2.545,2.545,0,0,1,1.163,1.955c0,.691-.522.961-1.163.59l-10.82-6.236a2.545,2.545,0,0,1-1.163-1.955C331.62,103.437,332.142,103.167,332.783,103.538Z" transform="translate(-271.438 -19.369)"/><path class="j" d="M332.783,109.548l10.82,6.236a2.511,2.511,0,0,1,1.163,1.938c0,.708-.522.977-1.163.59l-10.82-6.236a2.494,2.494,0,0,1-1.163-1.938C331.62,109.447,332.142,109.177,332.783,109.548Z" transform="translate(-271.438 -15.25)"/><path class="q" d="M332.783,109.548l10.82,6.236a2.511,2.511,0,0,1,1.163,1.938c0,.708-.522.977-1.163.59l-10.82-6.236a2.494,2.494,0,0,1-1.163-1.938C331.62,109.447,332.142,109.177,332.783,109.548Z" transform="translate(-271.438 -15.25)"/><path class="j" d="M349.2,94.958,363.053,103a2.494,2.494,0,0,1,1.18,1.938c0,.708-.523.961-1.18.59L349.2,97.5a2.528,2.528,0,0,1-1.18-1.955C347.987,94.857,348.543,94.587,349.2,94.958Z" transform="translate(-260.2 -25.248)"/><path class="q" d="M349.2,94.958,363.053,103a2.494,2.494,0,0,1,1.18,1.938c0,.708-.523.961-1.18.59L349.2,97.5a2.528,2.528,0,0,1-1.18-1.955C347.987,94.857,348.543,94.587,349.2,94.958Z" transform="translate(-260.2 -25.248)"/><path class="m" d="M361.92,138.4l93.23,53.677a2.5,2.5,0,0,1,1.163,1.938c0,.691-.522.961-1.163.59l-93.23-53.677a2.494,2.494,0,0,1-1.18-1.938C360.74,138.281,361.262,138.028,361.92,138.4Z" transform="translate(-251.482 4.519)"/><path class="m" d="M409,159.472l13.87,8.022a2.511,2.511,0,0,1,1.163,1.938c0,.708-.522.961-1.163.59L409,162a2.511,2.511,0,0,1-1.163-1.938C407.84,159.354,408.362,159.085,409,159.472Z" transform="translate(-219.205 18.956)"/><path class="m" d="M350.993,126.072l93.23,53.677a2.545,2.545,0,0,1,1.163,1.955c0,.691-.522.961-1.163.59L350.993,128.6a2.528,2.528,0,0,1-1.163-1.955C349.83,125.954,350.352,125.685,350.993,126.072Z" transform="translate(-258.959 -3.933)"/><path class="j" d="M343.2,97.542l23.105,13.28a2.46,2.46,0,0,1,1.18,1.938c0,.691-.522.961-1.18.59L343.2,100.12a2.494,2.494,0,0,1-1.18-1.938C341.987,97.424,342.543,97.154,343.2,97.542Z" transform="translate(-264.312 -23.484)"/><path class="q" d="M343.2,97.542l23.105,13.28a2.46,2.46,0,0,1,1.18,1.938c0,.691-.522.961-1.18.59L343.2,100.12a2.494,2.494,0,0,1-1.18-1.938C341.987,97.424,342.543,97.154,343.2,97.542Z" transform="translate(-264.312 -23.484)"/><path class="j" d="M359.593,106.969l96.449,55.783a2.545,2.545,0,0,1,1.163,1.955c0,.691-.522.961-1.163.59l-96.449-55.8a2.511,2.511,0,0,1-1.163-1.938C358.43,106.851,358.952,106.6,359.593,106.969Z" transform="translate(-253.065 -17.019)"/><path class="q" d="M359.593,106.969l96.449,55.783a2.545,2.545,0,0,1,1.163,1.955c0,.691-.522.961-1.163.59l-96.449-55.8a2.511,2.511,0,0,1-1.163-1.938C358.43,106.851,358.952,106.6,359.593,106.969Z" transform="translate(-253.065 -17.019)"/><path class="b" d="M343.213,133.709l124.712,71.945a2.511,2.511,0,0,1,1.163,1.938c0,.708-.522.977-1.163.607L343.213,136.237A2.494,2.494,0,0,1,342,134.316C342,133.591,342.556,133.338,343.213,133.709Z" transform="translate(-264.325 1.306)"/><path class="j" d="M332.783,127.7l10.82,6.236a2.511,2.511,0,0,1,1.163,1.938c0,.708-.522.961-1.163.59l-10.82-6.236a2.494,2.494,0,0,1-1.163-1.938C331.62,127.6,332.142,127.327,332.783,127.7Z" transform="translate(-271.438 -2.812)"/><path class="q" d="M332.783,127.7l10.82,6.236a2.511,2.511,0,0,1,1.163,1.938c0,.708-.522.961-1.163.59l-10.82-6.236a2.494,2.494,0,0,1-1.163-1.938C331.62,127.6,332.142,127.327,332.783,127.7Z" transform="translate(-271.438 -2.812)"/><path class="b" d="M343.213,139.708,467.925,211.67a2.511,2.511,0,0,1,1.163,1.938c0,.708-.522.961-1.163.59L343.213,142.236A2.46,2.46,0,0,1,342,140.314C342,139.606,342.556,139.337,343.213,139.708Z" transform="translate(-264.325 5.419)"/><path class="j" d="M332.783,133.709l10.82,6.236a2.494,2.494,0,0,1,1.163,1.938c0,.691-.522.961-1.163.59l-10.82-6.236a2.511,2.511,0,0,1-1.163-1.938C331.62,133.591,332.142,133.338,332.783,133.709Z" transform="translate(-271.438 1.305)"/><path class="q" d="M332.783,133.709l10.82,6.236a2.494,2.494,0,0,1,1.163,1.938c0,.691-.522.961-1.163.59l-10.82-6.236a2.511,2.511,0,0,1-1.163-1.938C331.62,133.591,332.142,133.338,332.783,133.709Z" transform="translate(-271.438 1.305)"/><path class="b" d="M343.213,145.719l124.712,71.962a2.5,2.5,0,0,1,1.163,1.938c0,.691-.522.961-1.163.59L343.213,148.247A2.494,2.494,0,0,1,342,146.309C342,145.6,342.556,145.348,343.213,145.719Z" transform="translate(-264.325 9.536)"/><path class="j" d="M332.783,139.708l10.82,6.236a2.511,2.511,0,0,1,1.163,1.938c0,.708-.522.977-1.163.607l-10.82-6.252a2.494,2.494,0,0,1-1.163-1.938C331.62,139.607,332.142,139.337,332.783,139.708Z" transform="translate(-271.438 5.419)"/><path class="q" d="M332.783,139.708l10.82,6.236a2.511,2.511,0,0,1,1.163,1.938c0,.708-.522.977-1.163.607l-10.82-6.252a2.494,2.494,0,0,1-1.163-1.938C331.62,139.607,332.142,139.337,332.783,139.708Z" transform="translate(-271.438 5.419)"/><g class="r" transform="translate(43.329 33.359)"><path class="m" d="M322.783,73.471l6.354,3.674a2.545,2.545,0,0,1,1.146,2.006v2.343c0,.725-.506,1.028-1.146.657l-6.354-3.674a2.528,2.528,0,0,1-1.163-1.989V74.145C321.62,73.4,322.142,73.117,322.783,73.471Z" transform="translate(-321.62 -73.32)"/><path class="m" d="M322.783,79.545l6.354,3.674a2.545,2.545,0,0,1,1.146,1.989V87.55c0,.742-.506,1.028-1.146.674l-6.354-3.674a2.562,2.562,0,0,1-1.163-2.006V80.2C321.62,79.477,322.142,79.174,322.783,79.545Z" transform="translate(-321.62 -69.164)"/><path class="m" d="M322.783,85.6l6.354,3.674a2.545,2.545,0,0,1,1.146,2.006v2.343c0,.725-.506,1.028-1.146.657l-6.354-3.674a2.562,2.562,0,0,1-1.163-1.989V86.275C321.62,85.534,322.142,85.247,322.783,85.6Z" transform="translate(-321.62 -65.008)"/><path class="m" d="M322.783,91.675l6.354,3.674a2.545,2.545,0,0,1,1.146,1.989V99.68c0,.742-.506,1.028-1.146.674l-6.354-3.674a2.562,2.562,0,0,1-1.163-2.006V92.332C321.62,91.607,322.142,91.3,322.783,91.675Z" transform="translate(-321.62 -60.851)"/><path class="m" d="M322.783,97.734l6.354,3.674a2.545,2.545,0,0,1,1.146,2.006v2.326c0,.742-.506,1.045-1.146.674l-6.354-3.674a2.562,2.562,0,0,1-1.163-1.989V98.408C321.62,97.667,322.142,97.364,322.783,97.734Z" transform="translate(-321.62 -56.698)"/><path class="m" d="M322.783,103.8l6.354,3.674a2.511,2.511,0,0,1,1.146,1.989v2.343c0,.742-.506,1.028-1.146.674l-6.354-3.674a2.562,2.562,0,0,1-1.163-2.005v-2.343C321.62,103.737,322.142,103.434,322.783,103.8Z" transform="translate(-321.62 -52.539)"/><path class="m" d="M322.783,109.864l6.354,3.674a2.545,2.545,0,0,1,1.146,2.006v2.326c0,.742-.506,1.045-1.146.674l-6.354-3.674a2.562,2.562,0,0,1-1.163-1.989v-2.343C321.62,109.8,322.142,109.494,322.783,109.864Z" transform="translate(-321.62 -48.386)"/><path class="m" d="M322.783,115.935l6.354,3.674a2.511,2.511,0,0,1,1.146,1.989v2.343c0,.742-.506,1.028-1.146.657l-6.354-3.657a2.562,2.562,0,0,1-1.163-2.006v-2.343C321.62,115.867,322.142,115.564,322.783,115.935Z" transform="translate(-321.62 -44.226)"/><path class="m" d="M322.783,121.994l6.354,3.674a2.545,2.545,0,0,1,1.146,2.006V130c0,.742-.506,1.045-1.146.674L322.783,127a2.562,2.562,0,0,1-1.163-2.006v-2.326C321.62,121.927,322.142,121.624,322.783,121.994Z" transform="translate(-321.62 -40.073)"/><path class="m" d="M322.783,128.059l6.354,3.674a2.494,2.494,0,0,1,1.146,1.989v2.343c0,.742-.506,1.028-1.146.657l-6.354-3.606a2.562,2.562,0,0,1-1.163-2.006v-2.343C321.62,128.059,322.142,127.689,322.783,128.059Z" transform="translate(-321.62 -35.908)"/><path class="m" d="M322.783,134.127l6.354,3.674a2.545,2.545,0,0,1,1.146,2.005v2.326c0,.742-.506,1.045-1.146.674l-6.354-3.724a2.562,2.562,0,0,1-1.163-2.006v-2.326C321.62,134.026,322.142,133.757,322.783,134.127Z" transform="translate(-321.62 -31.764)"/><path class="m" d="M322.783,140.195l6.354,3.657a2.545,2.545,0,0,1,1.146,2.006V148.2c0,.742-.506,1.028-1.146.657l-6.354-3.657a2.562,2.562,0,0,1-1.163-2.006v-2.343C321.62,140.127,322.142,139.824,322.783,140.195Z" transform="translate(-321.62 -27.601)"/></g><path class="c" d="M298.219,53.836,332.6,73.688a5.056,5.056,0,0,1,2.309,3.994v39.705c0,1.466-1.028,2.073-2.309,1.331l-34.38-19.853a5.056,5.056,0,0,1-2.309-3.994V55.184C295.91,53.7,296.938,53.111,298.219,53.836Z" transform="translate(-295.91 -53.527)"/><path class="j" d="M299.643,77.128l3.168,1.837a2.545,2.545,0,0,1,1.18,1.938c0,.708-.539.961-1.18.59l-3.168-1.837a2.494,2.494,0,0,1-1.163-1.938C298.48,77.027,299,76.757,299.643,77.128Z" transform="translate(-294.149 -37.467)"/><path class="q" d="M299.643,77.128l3.168,1.837a2.545,2.545,0,0,1,1.18,1.938c0,.708-.539.961-1.18.59l-3.168-1.837a2.494,2.494,0,0,1-1.163-1.938C298.48,77.027,299,76.757,299.643,77.128Z" transform="translate(-294.149 -37.467)"/><path class="j" d="M299.643,57.838l3.168,1.837a2.545,2.545,0,0,1,1.18,1.938c0,.708-.539.961-1.18.59l-3.168-1.82a2.545,2.545,0,0,1-1.163-1.955C298.48,57.737,299,57.467,299.643,57.838Z" transform="translate(-294.149 -50.686)"/><path class="q" d="M299.643,57.838l3.168,1.837a2.545,2.545,0,0,1,1.18,1.938c0,.708-.539.961-1.18.59l-3.168-1.82a2.545,2.545,0,0,1-1.163-1.955C298.48,57.737,299,57.467,299.643,57.838Z" transform="translate(-294.149 -50.686)"/><path class="j" d="M302.283,63.219l3.168,1.82a2.511,2.511,0,0,1,1.163,1.938c0,.708-.522.977-1.163.59l-3.168-1.82a2.511,2.511,0,0,1-1.163-1.938C301.12,63.1,301.642,62.848,302.283,63.219Z" transform="translate(-292.34 -47.001)"/><path class="q" d="M302.283,63.219l3.168,1.82a2.511,2.511,0,0,1,1.163,1.938c0,.708-.522.977-1.163.59l-3.168-1.82a2.511,2.511,0,0,1-1.163-1.938C301.12,63.1,301.642,62.848,302.283,63.219Z" transform="translate(-292.34 -47.001)"/><path class="j" d="M302.283,67.072l3.168,1.837a2.511,2.511,0,0,1,1.163,1.938c0,.708-.522.961-1.163.59l-3.168-1.82a2.511,2.511,0,0,1-1.163-1.938C301.12,66.954,301.642,66.684,302.283,67.072Z" transform="translate(-292.34 -44.365)"/><path class="q" d="M302.283,67.072l3.168,1.837a2.511,2.511,0,0,1,1.163,1.938c0,.708-.522.961-1.163.59l-3.168-1.82a2.511,2.511,0,0,1-1.163-1.938C301.12,66.954,301.642,66.684,302.283,67.072Z" transform="translate(-292.34 -44.365)"/><path class="j" d="M299.643,69.408l3.168,1.837a2.545,2.545,0,0,1,1.18,1.938c0,.708-.539.961-1.18.59l-3.168-1.82A2.528,2.528,0,0,1,298.48,70C298.48,69.307,299,69.037,299.643,69.408Z" transform="translate(-294.149 -42.758)"/><path class="q" d="M299.643,69.408l3.168,1.837a2.545,2.545,0,0,1,1.18,1.938c0,.708-.539.961-1.18.59l-3.168-1.82A2.528,2.528,0,0,1,298.48,70C298.48,69.307,299,69.037,299.643,69.408Z" transform="translate(-294.149 -42.758)"/><path class="j" d="M302.283,74.788l3.168,1.837a2.494,2.494,0,0,1,1.163,1.938c0,.691-.522.961-1.163.59l-3.168-1.837a2.494,2.494,0,0,1-1.163-1.938C301.12,74.687,301.642,74.417,302.283,74.788Z" transform="translate(-292.34 -39.071)"/><path class="q" d="M302.283,74.788l3.168,1.837a2.494,2.494,0,0,1,1.163,1.938c0,.691-.522.961-1.163.59l-3.168-1.837a2.494,2.494,0,0,1-1.163-1.938C301.12,74.687,301.642,74.417,302.283,74.788Z" transform="translate(-292.34 -39.071)"/><path class="j" d="M304.8,60.808l19.313,11.173a2.461,2.461,0,0,1,1.18,1.938c0,.691-.523.961-1.18.59L304.8,63.353a2.494,2.494,0,0,1-1.18-1.955C303.62,60.707,304.142,60.437,304.8,60.808Z" transform="translate(-290.626 -48.651)"/><path class="s" d="M304.8,60.808l19.313,11.173a2.461,2.461,0,0,1,1.18,1.938c0,.691-.523.961-1.18.59L304.8,63.353a2.494,2.494,0,0,1-1.18-1.955C303.62,60.707,304.142,60.437,304.8,60.808Z" transform="translate(-290.626 -48.651)"/><path class="j" d="M304.8,80.051l19.313,11.173a2.461,2.461,0,0,1,1.18,1.938c0,.691-.523.961-1.18.59L304.8,82.6a2.528,2.528,0,0,1-1.18-1.955C303.62,80.051,304.142,79.731,304.8,80.051Z" transform="translate(-290.626 -35.436)"/><path class="s" d="M304.8,80.051l19.313,11.173a2.461,2.461,0,0,1,1.18,1.938c0,.691-.523.961-1.18.59L304.8,82.6a2.528,2.528,0,0,1-1.18-1.955C303.62,80.051,304.142,79.731,304.8,80.051Z" transform="translate(-290.626 -35.436)"/><path class="j" d="M307.482,66.189l14.864,8.595a2.494,2.494,0,0,1,1.18,1.955c0,.691-.522.961-1.18.59l-14.864-8.612a2.494,2.494,0,0,1-1.18-1.938C306.235,66.071,306.757,65.818,307.482,66.189Z" transform="translate(-288.792 -44.966)"/><path class="s" d="M307.482,66.189l14.864,8.595a2.494,2.494,0,0,1,1.18,1.955c0,.691-.522.961-1.18.59l-14.864-8.612a2.494,2.494,0,0,1-1.18-1.938C306.235,66.071,306.757,65.818,307.482,66.189Z" transform="translate(-288.792 -44.966)"/><path class="j" d="M307.482,70.082l14.864,8.612a2.494,2.494,0,0,1,1.18,1.938c0,.708-.522.961-1.18.59l-14.864-8.646a2.494,2.494,0,0,1-1.18-1.938C306.235,69.93,306.757,69.66,307.482,70.082Z" transform="translate(-288.792 -42.319)"/><path class="s" d="M307.482,70.082l14.864,8.612a2.494,2.494,0,0,1,1.18,1.938c0,.708-.522.961-1.18.59l-14.864-8.646a2.494,2.494,0,0,1-1.18-1.938C306.235,69.93,306.757,69.66,307.482,70.082Z" transform="translate(-288.792 -42.319)"/><path class="j" d="M304.8,72.389l19.313,11.157a2.494,2.494,0,0,1,1.18,1.938c0,.708-.522.961-1.18.59L304.8,74.917a2.5,2.5,0,0,1-1.18-1.938C303.62,72.271,304.142,72.018,304.8,72.389Z" transform="translate(-290.626 -40.717)"/><path class="s" d="M304.8,72.389l19.313,11.157a2.494,2.494,0,0,1,1.18,1.938c0,.708-.522.961-1.18.59L304.8,74.917a2.5,2.5,0,0,1-1.18-1.938C303.62,72.271,304.142,72.018,304.8,72.389Z" transform="translate(-290.626 -40.717)"/><path class="j" d="M307.482,77.758l14.864,8.612a2.46,2.46,0,0,1,1.18,1.938c0,.691-.522.961-1.18.59l-14.864-8.612a2.46,2.46,0,0,1-1.18-1.938C306.235,77.657,306.757,77.387,307.482,77.758Z" transform="translate(-288.792 -37.035)"/><path class="s" d="M307.482,77.758l14.864,8.612a2.46,2.46,0,0,1,1.18,1.938c0,.691-.522.961-1.18.59l-14.864-8.612a2.46,2.46,0,0,1-1.18-1.938C306.235,77.657,306.757,77.387,307.482,77.758Z" transform="translate(-288.792 -37.035)"/><path class="c" d="M298.219,85l34.38,19.836a5.056,5.056,0,0,1,2.309,3.977v78.434c0,1.483-1.028,2.073-2.309,1.331l-34.38-19.853a5.056,5.056,0,0,1-2.309-3.994v-78.4C295.91,84.848,296.938,84.259,298.219,85Z" transform="translate(-295.91 -32.177)"/><path class="j" d="M299.643,88.988l3.168,1.82a2.545,2.545,0,0,1,1.18,1.938c0,.708-.539.961-1.18.59l-3.168-1.82a2.511,2.511,0,0,1-1.163-1.938C298.48,88.887,299,88.617,299.643,88.988Z" transform="translate(-294.149 -29.34)"/><path class="q" d="M299.643,88.988l3.168,1.82a2.545,2.545,0,0,1,1.18,1.938c0,.708-.539.961-1.18.59l-3.168-1.82a2.511,2.511,0,0,1-1.163-1.938C298.48,88.887,299,88.617,299.643,88.988Z" transform="translate(-294.149 -29.34)"/><path class="j" d="M302.283,94.369l3.168,1.82a2.528,2.528,0,0,1,1.163,1.955c0,.691-.522.961-1.163.59L302.283,96.9a2.511,2.511,0,0,1-1.163-1.938C301.12,94.251,301.642,94,302.283,94.369Z" transform="translate(-292.34 -25.654)"/><path class="q" d="M302.283,94.369l3.168,1.82a2.528,2.528,0,0,1,1.163,1.955c0,.691-.522.961-1.163.59L302.283,96.9a2.511,2.511,0,0,1-1.163-1.938C301.12,94.251,301.642,94,302.283,94.369Z" transform="translate(-292.34 -25.654)"/><path class="j" d="M302.283,98.222l3.168,1.82a2.511,2.511,0,0,1,1.163,1.938c0,.708-.522.961-1.163.59l-3.168-1.82a2.511,2.511,0,0,1-1.163-1.938C301.12,98.1,301.642,97.835,302.283,98.222Z" transform="translate(-292.34 -23.019)"/><path class="q" d="M302.283,98.222l3.168,1.82a2.511,2.511,0,0,1,1.163,1.938c0,.708-.522.961-1.163.59l-3.168-1.82a2.511,2.511,0,0,1-1.163-1.938C301.12,98.1,301.642,97.835,302.283,98.222Z" transform="translate(-292.34 -23.019)"/><path class="j" d="M299.643,100.572l3.168,1.82a2.545,2.545,0,0,1,1.18,1.938c0,.708-.539.961-1.18.59l-3.168-1.82a2.511,2.511,0,0,1-1.163-1.938C298.48,100.454,299,100.185,299.643,100.572Z" transform="translate(-294.149 -21.408)"/><path class="q" d="M299.643,100.572l3.168,1.82a2.545,2.545,0,0,1,1.18,1.938c0,.708-.539.961-1.18.59l-3.168-1.82a2.511,2.511,0,0,1-1.163-1.938C298.48,100.454,299,100.185,299.643,100.572Z" transform="translate(-294.149 -21.408)"/><path class="j" d="M304.8,91.972l19.313,11.157a2.461,2.461,0,0,1,1.18,1.938c0,.691-.523.961-1.18.59L304.8,94.5a2.5,2.5,0,0,1-1.18-1.938C303.62,91.854,304.142,91.585,304.8,91.972Z" transform="translate(-290.626 -27.302)"/><path class="s" d="M304.8,91.972l19.313,11.157a2.461,2.461,0,0,1,1.18,1.938c0,.691-.523.961-1.18.59L304.8,94.5a2.5,2.5,0,0,1-1.18-1.938C303.62,91.854,304.142,91.585,304.8,91.972Z" transform="translate(-290.626 -27.302)"/><path class="j" d="M307.482,97.339l14.864,8.612a2.46,2.46,0,0,1,1.18,1.938c0,.691-.522.961-1.18.59l-14.864-8.612a2.494,2.494,0,0,1-1.18-1.938C306.235,97.221,306.757,96.968,307.482,97.339Z" transform="translate(-288.792 -23.619)"/><path class="s" d="M307.482,97.339l14.864,8.612a2.46,2.46,0,0,1,1.18,1.938c0,.691-.522.961-1.18.59l-14.864-8.612a2.494,2.494,0,0,1-1.18-1.938C306.235,97.221,306.757,96.968,307.482,97.339Z" transform="translate(-288.792 -23.619)"/><path class="j" d="M307.482,101.2l14.864,8.595a2.494,2.494,0,0,1,1.18,1.938c0,.708-.522.977-1.18.607l-14.864-8.612a2.494,2.494,0,0,1-1.18-1.938C306.235,101.084,306.757,100.815,307.482,101.2Z" transform="translate(-288.792 -20.976)"/><path class="s" d="M307.482,101.2l14.864,8.595a2.494,2.494,0,0,1,1.18,1.938c0,.708-.522.977-1.18.607l-14.864-8.612a2.494,2.494,0,0,1-1.18-1.938C306.235,101.084,306.757,100.815,307.482,101.2Z" transform="translate(-288.792 -20.976)"/><path class="j" d="M304.8,103.539,324.113,114.7a2.494,2.494,0,0,1,1.18,1.938c0,.708-.522.961-1.18.59L304.8,106.117a2.494,2.494,0,0,1-1.18-1.938C303.62,103.421,304.142,103.168,304.8,103.539Z" transform="translate(-290.626 -19.369)"/><path class="s" d="M304.8,103.539,324.113,114.7a2.494,2.494,0,0,1,1.18,1.938c0,.708-.522.961-1.18.59L304.8,106.117a2.494,2.494,0,0,1-1.18-1.938C303.62,103.421,304.142,103.168,304.8,103.539Z" transform="translate(-290.626 -19.369)"/><path class="j" d="M302.283,105.958l3.168,1.837a2.511,2.511,0,0,1,1.163,1.938c0,.708-.522.961-1.163.59l-3.168-1.82a2.511,2.511,0,0,1-1.163-1.938C301.12,105.856,301.642,105.587,302.283,105.958Z" transform="translate(-292.34 -17.71)"/><path class="q" d="M302.283,105.958l3.168,1.837a2.511,2.511,0,0,1,1.163,1.938c0,.708-.522.961-1.163.59l-3.168-1.82a2.511,2.511,0,0,1-1.163-1.938C301.12,105.856,301.642,105.587,302.283,105.958Z" transform="translate(-292.34 -17.71)"/><path class="j" d="M302.283,109.808l3.168,1.837a2.511,2.511,0,0,1,1.163,1.938c0,.691-.522.961-1.163.59l-3.168-1.837a2.494,2.494,0,0,1-1.163-1.938C301.12,109.707,301.642,109.437,302.283,109.808Z" transform="translate(-292.34 -15.072)"/><path class="q" d="M302.283,109.808l3.168,1.837a2.511,2.511,0,0,1,1.163,1.938c0,.691-.522.961-1.163.59l-3.168-1.837a2.494,2.494,0,0,1-1.163-1.938C301.12,109.707,301.642,109.437,302.283,109.808Z" transform="translate(-292.34 -15.072)"/><path class="j" d="M307.482,108.928l14.864,8.612a2.494,2.494,0,0,1,1.18,1.938c0,.708-.522.977-1.18.59l-14.864-8.595a2.494,2.494,0,0,1-1.18-1.938C306.235,108.826,306.757,108.557,307.482,108.928Z" transform="translate(-288.792 -15.675)"/><path class="s" d="M307.482,108.928l14.864,8.612a2.494,2.494,0,0,1,1.18,1.938c0,.708-.522.977-1.18.59l-14.864-8.595a2.494,2.494,0,0,1-1.18-1.938C306.235,108.826,306.757,108.557,307.482,108.928Z" transform="translate(-288.792 -15.675)"/><path class="j" d="M307.482,112.788l14.864,8.612a2.494,2.494,0,0,1,1.18,1.938c0,.708-.522.961-1.18.59l-14.864-8.612a2.46,2.46,0,0,1-1.18-1.938C306.235,112.687,306.757,112.417,307.482,112.788Z" transform="translate(-288.792 -13.03)"/><path class="s" d="M307.482,112.788l14.864,8.612a2.494,2.494,0,0,1,1.18,1.938c0,.708-.522.961-1.18.59l-14.864-8.612a2.46,2.46,0,0,1-1.18-1.938C306.235,112.687,306.757,112.417,307.482,112.788Z" transform="translate(-288.792 -13.03)"/><path class="j" d="M299.643,119.9l3.168,1.837a2.511,2.511,0,0,1,1.18,1.938c0,.691-.539.961-1.18.59l-3.168-1.837a2.494,2.494,0,0,1-1.163-1.938C298.48,119.8,299,119.527,299.643,119.9Z" transform="translate(-294.149 -8.157)"/><path class="q" d="M299.643,119.9l3.168,1.837a2.511,2.511,0,0,1,1.18,1.938c0,.691-.539.961-1.18.59l-3.168-1.837a2.494,2.494,0,0,1-1.163-1.938C298.48,119.8,299,119.527,299.643,119.9Z" transform="translate(-294.149 -8.157)"/><path class="j" d="M304.8,122.868l19.313,11.174a2.461,2.461,0,0,1,1.18,1.938c0,.691-.523.961-1.18.59L304.8,125.412a2.494,2.494,0,0,1-1.18-1.938C303.62,122.766,304.142,122.5,304.8,122.868Z" transform="translate(-290.626 -6.122)"/><path class="s" d="M304.8,122.868l19.313,11.174a2.461,2.461,0,0,1,1.18,1.938c0,.691-.523.961-1.18.59L304.8,125.412a2.494,2.494,0,0,1-1.18-1.938C303.62,122.766,304.142,122.5,304.8,122.868Z" transform="translate(-290.626 -6.122)"/><path class="j" d="M302.283,125.3l3.168,1.837a2.494,2.494,0,0,1,1.163,1.938c0,.691-.522.961-1.163.59l-3.168-1.837a2.494,2.494,0,0,1-1.163-1.938C301.12,125.2,301.642,124.913,302.283,125.3Z" transform="translate(-292.34 -4.46)"/><path class="q" d="M302.283,125.3l3.168,1.837a2.494,2.494,0,0,1,1.163,1.938c0,.691-.522.961-1.163.59l-3.168-1.837a2.494,2.494,0,0,1-1.163-1.938C301.12,125.2,301.642,124.913,302.283,125.3Z" transform="translate(-292.34 -4.46)"/><path class="j" d="M302.283,129.151l3.168,1.82a2.545,2.545,0,0,1,1.163,1.955c0,.691-.522.961-1.163.59l-3.168-1.837a2.511,2.511,0,0,1-1.163-1.938C301.12,129.016,301.642,128.78,302.283,129.151Z" transform="translate(-292.34 -1.821)"/><path class="q" d="M302.283,129.151l3.168,1.82a2.545,2.545,0,0,1,1.163,1.955c0,.691-.522.961-1.163.59l-3.168-1.837a2.511,2.511,0,0,1-1.163-1.938C301.12,129.016,301.642,128.78,302.283,129.151Z" transform="translate(-292.34 -1.821)"/><path class="j" d="M307.482,128.262l14.864,8.612a2.461,2.461,0,0,1,1.18,1.938c0,.691-.522.961-1.18.59l-14.864-8.612a2.461,2.461,0,0,1-1.18-1.938C306.235,128.161,306.757,127.925,307.482,128.262Z" transform="translate(-288.792 -2.415)"/><path class="s" d="M307.482,128.262l14.864,8.612a2.461,2.461,0,0,1,1.18,1.938c0,.691-.522.961-1.18.59l-14.864-8.612a2.461,2.461,0,0,1-1.18-1.938C306.235,128.161,306.757,127.925,307.482,128.262Z" transform="translate(-288.792 -2.415)"/><path class="j" d="M307.482,132.128l14.864,8.612a2.46,2.46,0,0,1,1.18,1.938c0,.691-.522.961-1.18.59l-14.864-8.612a2.494,2.494,0,0,1-1.18-1.938C306.235,132.027,306.757,131.757,307.482,132.128Z" transform="translate(-288.792 0.224)"/><path class="s" d="M307.482,132.128l14.864,8.612a2.46,2.46,0,0,1,1.18,1.938c0,.691-.522.961-1.18.59l-14.864-8.612a2.494,2.494,0,0,1-1.18-1.938C306.235,132.027,306.757,131.757,307.482,132.128Z" transform="translate(-288.792 0.224)"/><path class="j" d="M302.283,113.638l3.168,1.837a2.494,2.494,0,0,1,1.163,1.938c0,.691-.522.961-1.163.59l-3.168-1.837a2.494,2.494,0,0,1-1.163-1.938C301.12,113.537,301.642,113.267,302.283,113.638Z" transform="translate(-292.34 -12.447)"/><path class="q" d="M302.283,113.638l3.168,1.837a2.494,2.494,0,0,1,1.163,1.938c0,.691-.522.961-1.163.59l-3.168-1.837a2.494,2.494,0,0,1-1.163-1.938C301.12,113.537,301.642,113.267,302.283,113.638Z" transform="translate(-292.34 -12.447)"/><path class="j" d="M299.643,115.988l3.168,1.837a2.511,2.511,0,0,1,1.18,1.938c0,.691-.539.961-1.18.59l-3.168-1.837a2.494,2.494,0,0,1-1.163-1.938C298.48,115.887,299,115.617,299.643,115.988Z" transform="translate(-294.149 -10.837)"/><path class="q" d="M299.643,115.988l3.168,1.837a2.511,2.511,0,0,1,1.18,1.938c0,.691-.539.961-1.18.59l-3.168-1.837a2.494,2.494,0,0,1-1.163-1.938C298.48,115.887,299,115.617,299.643,115.988Z" transform="translate(-294.149 -10.837)"/><path class="j" d="M307.482,116.618l14.864,8.612a2.461,2.461,0,0,1,1.18,1.938c0,.691-.522.961-1.18.59l-14.864-8.612a2.46,2.46,0,0,1-1.18-1.938C306.235,116.517,306.757,116.247,307.482,116.618Z" transform="translate(-288.792 -10.405)"/><path class="s" d="M307.482,116.618l14.864,8.612a2.461,2.461,0,0,1,1.18,1.938c0,.691-.522.961-1.18.59l-14.864-8.612a2.46,2.46,0,0,1-1.18-1.938C306.235,116.517,306.757,116.247,307.482,116.618Z" transform="translate(-288.792 -10.405)"/><path class="j" d="M304.8,118.958l19.313,11.173a2.461,2.461,0,0,1,1.18,1.938c0,.691-.523.961-1.18.59L304.8,121.5a2.528,2.528,0,0,1-1.18-1.955C303.62,118.857,304.142,118.587,304.8,118.958Z" transform="translate(-290.626 -8.801)"/><path class="s" d="M304.8,118.958l19.313,11.173a2.461,2.461,0,0,1,1.18,1.938c0,.691-.523.961-1.18.59L304.8,121.5a2.528,2.528,0,0,1-1.18-1.955C303.62,118.857,304.142,118.587,304.8,118.958Z" transform="translate(-290.626 -8.801)"/><path class="j" d="M299.643,131.547l3.168,1.837a2.511,2.511,0,0,1,1.18,1.938c0,.691-.539.961-1.18.59l-3.168-1.8a2.494,2.494,0,0,1-1.163-1.938C298.48,131.446,299,131.177,299.643,131.547Z" transform="translate(-294.149 -0.173)"/><path class="q" d="M299.643,131.547l3.168,1.837a2.511,2.511,0,0,1,1.18,1.938c0,.691-.539.961-1.18.59l-3.168-1.8a2.494,2.494,0,0,1-1.163-1.938C298.48,131.446,299,131.177,299.643,131.547Z" transform="translate(-294.149 -0.173)"/><path class="j" d="M304.8,134.531l19.313,11.157a2.461,2.461,0,0,1,1.18,1.938c0,.691-.523.961-1.18.59L304.8,137.127a2.494,2.494,0,0,1-1.18-1.938C303.62,134.413,304.142,134.144,304.8,134.531Z" transform="translate(-290.626 1.865)"/><path class="s" d="M304.8,134.531l19.313,11.157a2.461,2.461,0,0,1,1.18,1.938c0,.691-.523.961-1.18.59L304.8,137.127a2.494,2.494,0,0,1-1.18-1.938C303.62,134.413,304.142,134.144,304.8,134.531Z" transform="translate(-290.626 1.865)"/></g></g><g transform="translate(429.716 186.743)"><g class="t" transform="translate(0 2.517)"><path class="d" d="M410.78,150.983V279.706a5.915,5.915,0,0,0,2.68,4.635l73.951,42.672a1.854,1.854,0,0,0,.893.253h.708l.152-.1.152-.135a2.056,2.056,0,0,0,.489-.708,3.169,3.169,0,0,0,.286-1.348V196.891a5.9,5.9,0,0,0-2.68-4.635L413.46,149.635a1.955,1.955,0,0,0-1.8-.236l-.219.135h0l-.185.169a.353.353,0,0,0,0,.1.437.437,0,0,0-.084.152.91.91,0,0,0-.168.337.969.969,0,0,0,0,.236h0v.253C410.8,150.764,410.78,150.882,410.78,150.983Z" transform="translate(-410.78 -149.278)"/></g><path class="j" d="M411.3,150.237a1.955,1.955,0,0,1,1.8.236l73.951,42.621a5.9,5.9,0,0,1,2.68,4.635v8.73L494,204v-8.662a5.865,5.865,0,0,0-2.68-4.618l-73.951-42.571a1.871,1.871,0,0,0-1.938-.169C414.94,148.148,411.873,149.951,411.3,150.237Z" transform="translate(-410.424 -147.785)"/><path class="j" d="M410.79,151.044c0-1.685,1.2-2.359,2.663-1.517L487.4,192.149a5.915,5.915,0,0,1,2.68,4.635v8.73l-79.209-45.688Z" transform="translate(-410.773 -146.839)"/><g class="o" transform="translate(0.893)"><path class="m" d="M413.1,150.473l73.951,42.621a5.512,5.512,0,0,1,1.887,1.989l4.247-2.444a5.443,5.443,0,0,0-1.871-1.938L417.36,148.148a1.871,1.871,0,0,0-1.938-.169c-.472.3-3.556,2.022-4.112,2.326a1.871,1.871,0,0,1,1.786.169Z" transform="translate(-411.31 -147.785)"/></g><path class="h" d="M462.433,185.769V177.09a5.663,5.663,0,0,0-.809-2.68l-4.264,2.427a5.325,5.325,0,0,1,.809,2.663v8.73Z" transform="translate(-378.859 -129.538)"/><path class="d" d="M456.147,176.863a3.994,3.994,0,0,1,1.517,3.2c0,1.281-.674,1.938-1.517,1.449a3.977,3.977,0,0,1-1.517-3.185C454.63,177.031,455.254,176.391,456.147,176.863Z" transform="translate(-380.73 -127.963)"/><path class="d" d="M452.91,175.009a3.927,3.927,0,0,1,1.517,3.185c0,1.3-.674,1.938-1.517,1.466a4.028,4.028,0,0,1-1.5-3.2C451.41,175.11,452.084,174.52,452.91,175.009Z" transform="translate(-382.937 -129.244)"/><path class="d" d="M449.677,173.133a4.028,4.028,0,0,1,1.551,3.253c0,1.281-.674,1.938-1.5,1.449a3.96,3.96,0,0,1-1.517-3.2C448.161,173.3,448.835,172.661,449.677,173.133Z" transform="translate(-385.131 -130.519)"/><g class="u" transform="translate(78.332 56.214)"><path class="c" d="M457.26,305.178l.32-.185.826-.472h0a2.936,2.936,0,0,1,.438-.253h0l.708-.4,1.432-.809.337-.185a1.516,1.516,0,0,0,.455-.354,1.856,1.856,0,0,0,.354-.556,3.185,3.185,0,0,0,.32-1.416V181.14l-4.264,2.461V302.936a3.9,3.9,0,0,1-.287,1.348,2.059,2.059,0,0,1-.489.708.4.4,0,0,1-.152.135Z" transform="translate(-457.26 -181.14)"/></g><path class="j" d="M414.43,165.072a.421.421,0,0,1,.135-.337l1.921-1.685h.084a.286.286,0,0,1,.152.185.488.488,0,0,1,0,.27v1.331a1.84,1.84,0,0,1,0,.371,1.4,1.4,0,0,1-.135.2l-1.028.927,1.028,2.107c0,.135.1.253.135.371a2.426,2.426,0,0,1,0,.4v1.534a.118.118,0,0,1-.152,0h0l-.084-.118-1.921-3.994a1.13,1.13,0,0,1-.135-.489Z" transform="translate(-408.279 -137.323)"/><path class="j" d="M419.964,163.239a.506.506,0,0,1,.152-.219h.287l.708.421a.286.286,0,0,1,.152.185.487.487,0,0,1,0,.27.339.339,0,0,1,0,.118l-3.371,10.247a.438.438,0,0,1-.135.219h-.287l-.691-.4a.337.337,0,0,1-.152-.185.539.539,0,0,1,0-.27V173.5Z" transform="translate(-406.785 -137.344)"/><path class="j" d="M422.578,171.3a.438.438,0,0,1-.135.354l-1.921,1.685a.118.118,0,0,1-.1,0h0a.337.337,0,0,1-.152-.185.539.539,0,0,1,0-.27v-1.331a1.688,1.688,0,0,1,0-.371.589.589,0,0,1,.135-.219l1.011-.927-1.011-2.09a3.537,3.537,0,0,1-.135-.371,2.426,2.426,0,0,1,0-.4v-1.348a.2.2,0,0,1,0-.185h.152a.37.37,0,0,1,.1.118l1.921,3.977a1.13,1.13,0,0,1,.135.506Z" transform="translate(-404.293 -135.548)"/><path class="j" d="M425.255,172.3a.488.488,0,0,1,.185.219.809.809,0,0,1,0,.337v1.466a.3.3,0,0,1,0,.236.135.135,0,0,1-.185,0l-.91-.522a.489.489,0,0,1-.185-.219.827.827,0,0,1,0-.337v-1.365a.354.354,0,0,1,0-.253.135.135,0,0,1,.185,0Z" transform="translate(-401.627 -131.308)"/><path class="j" d="M427.08,173.371a.488.488,0,0,1,.185.219.808.808,0,0,1,0,.337v1.466a.3.3,0,0,1,0,.236.152.152,0,0,1-.185,0l-.91-.522a.606.606,0,0,1-.185-.219.893.893,0,0,1-.084-.337v-1.432a.353.353,0,0,1,.084-.253.135.135,0,0,1,.185,0Z" transform="translate(-400.419 -130.622)"/><path class="j" d="M428.88,174.429a.421.421,0,0,1,.185.219.807.807,0,0,1,0,.337v1.466a.337.337,0,0,1,0,.236.152.152,0,0,1-.185,0l-.91-.522a.556.556,0,0,1-.185-.236.758.758,0,0,1-.084-.32v-1.5a.337.337,0,0,1,.084-.236.152.152,0,0,1,.185,0Z" transform="translate(-399.185 -129.928)"/><path class="j" d="M415.294,171.223l44.424,25.65a2.022,2.022,0,0,1,.961,1.584c0,.573-.421.775-.961.472l-44.424-25.65a2.039,2.039,0,0,1-.944-1.567C414.35,171.138,414.771,170.936,415.294,171.223Z" transform="translate(-408.333 -131.811)"/><path class="b" d="M423.754,190.767l44.424,25.65a2.006,2.006,0,0,1,.961,1.567c0,.573-.421.792-.961.489l-44.424-25.65a2.039,2.039,0,0,1-.944-1.584C422.81,190.666,423.231,190.464,423.754,190.767Z" transform="translate(-402.536 -118.425)"/><path class="b" d="M423.747,200.526l21.285,12.286a2.039,2.039,0,0,1,.944,1.584c0,.573-.421.775-.944.472l-21.268-12.286a2.005,2.005,0,0,1-.944-1.567C422.8,200.441,423.225,200.222,423.747,200.526Z" transform="translate(-402.529 -111.735)"/><path class="j" d="M443.844,187.706l17.7,10.112a2.005,2.005,0,0,1,.961,1.567c0,.573-.438.792-.961.489l-17.7-10.112a2.005,2.005,0,0,1-.944-1.567C442.9,187.621,443.321,187.4,443.844,187.706Z" transform="translate(-388.768 -120.521)"/><path class="j" d="M415.294,224.947l44.424,25.65a2.005,2.005,0,0,1,.961,1.567c0,.573-.421.792-.961.489L415.294,227a2.039,2.039,0,0,1-.944-1.584C414.35,224.846,414.771,224.644,415.294,224.947Z" transform="translate(-408.333 -95.002)"/><path class="j" d="M443.844,241.426l17.7,10.112a2.056,2.056,0,0,1,.961,1.584c0,.556-.438.775-.961.472l-17.7-10.112a2.039,2.039,0,0,1-.944-1.584C442.9,241.341,443.321,241.122,443.844,241.426Z" transform="translate(-388.768 -83.707)"/><path class="j" d="M443.844,226.8l17.7,10.112a2.022,2.022,0,0,1,.961,1.567c0,.573-.438.792-.961.489l-17.7-10.112a2.039,2.039,0,0,1-.944-1.584C442.9,226.711,443.321,226.492,443.844,226.8Z" transform="translate(-388.768 -93.733)"/><path class="j" d="M443.844,231.687l17.7,10.112a2.056,2.056,0,0,1,.961,1.567c0,.573-.438.792-.961.489l-17.7-10.112a2.039,2.039,0,0,1-.944-1.584C442.9,231.586,443.321,231.384,443.844,231.687Z" transform="translate(-388.768 -90.383)"/><path class="j" d="M434.884,221.616l9.943,5.747a1.989,1.989,0,0,1,.961,1.567c0,.573-.421.792-.961.489l-9.943-5.747a2.039,2.039,0,0,1-.944-1.584C433.94,221.531,434.361,221.312,434.884,221.616Z" transform="translate(-394.909 -97.282)"/><path class="j" d="M415.294,176.128l25.92,14.949a2.039,2.039,0,0,1,.944,1.567c0,.573-.421.792-.944.489l-25.92-14.949a2.039,2.039,0,0,1-.944-1.584C414.35,176.011,414.771,175.825,415.294,176.128Z" transform="translate(-408.334 -128.459)"/><path class="q" d="M415.294,176.128l25.92,14.949a2.039,2.039,0,0,1,.944,1.567c0,.573-.421.792-.944.489l-25.92-14.949a2.039,2.039,0,0,1-.944-1.584C414.35,176.011,414.771,175.825,415.294,176.128Z" transform="translate(-408.334 -128.459)"/><path class="j" d="M415.294,181l8.8,5.056a2.039,2.039,0,0,1,.944,1.567c0,.573-.421.792-.944.489l-8.8-5.056a2.039,2.039,0,0,1-.944-1.567C414.35,180.911,414.771,180.692,415.294,181Z" transform="translate(-408.334 -125.119)"/><path class="q" d="M415.294,181l8.8,5.056a2.039,2.039,0,0,1,.944,1.567c0,.573-.421.792-.944.489l-8.8-5.056a2.039,2.039,0,0,1-.944-1.567C414.35,180.911,414.771,180.692,415.294,181Z" transform="translate(-408.334 -125.119)"/><path class="j" d="M415.294,185.876l8.8,5.056a2.039,2.039,0,0,1,.944,1.584c0,.556-.421.775-.944.472l-8.8-5.056a1.988,1.988,0,0,1-.944-1.567C414.35,185.791,414.771,185.572,415.294,185.876Z" transform="translate(-408.334 -121.775)"/><path class="q" d="M415.294,185.876l8.8,5.056a2.039,2.039,0,0,1,.944,1.584c0,.556-.421.775-.944.472l-8.8-5.056a1.988,1.988,0,0,1-.944-1.567C414.35,185.791,414.771,185.572,415.294,185.876Z" transform="translate(-408.334 -121.775)"/><path class="j" d="M415.294,190.767l8.8,5.056a2.005,2.005,0,0,1,.944,1.567c0,.573-.421.792-.944.489l-8.8-5.056a2.039,2.039,0,0,1-.944-1.584C414.35,190.666,414.771,190.464,415.294,190.767Z" transform="translate(-408.334 -118.425)"/><path class="q" d="M415.294,190.767l8.8,5.056a2.039,2.039,0,0,1,.944,1.584c0,.573-.421.775-.944.472l-8.8-5.056a2.039,2.039,0,0,1-.944-1.584C414.35,190.666,414.771,190.464,415.294,190.767Z" transform="translate(-408.334 -118.425)"/><path class="v" d="M423.754,195.646l25.92,14.949a2.039,2.039,0,0,1,.944,1.584c0,.556-.421.775-.944.472L423.754,197.7a2.039,2.039,0,0,1-.944-1.584C422.81,195.561,423.231,195.342,423.754,195.646Z" transform="translate(-402.536 -115.08)"/><path class="v" d="M441.314,205.776l11.275,6.539a1.989,1.989,0,0,1,.944,1.567c0,.573-.421.792-.944.489l-11.275-6.539a2.039,2.039,0,0,1-.944-1.567C440.37,205.691,440.791,205.472,441.314,205.776Z" transform="translate(-390.502 -108.137)"/><path class="q" d="M423.754,195.646l25.92,14.949a2.039,2.039,0,0,1,.944,1.584c0,.556-.421.775-.944.472L423.754,197.7a2.039,2.039,0,0,1-.944-1.584C422.81,195.561,423.231,195.342,423.754,195.646Z" transform="translate(-402.536 -115.08)"/><path class="q" d="M441.314,205.776l11.275,6.539a1.989,1.989,0,0,1,.944,1.567c0,.573-.421.792-.944.489l-11.275-6.539a2.039,2.039,0,0,1-.944-1.567C440.37,205.691,440.791,205.472,441.314,205.776Z" transform="translate(-390.502 -108.137)"/><path class="j" d="M415.294,195.645l8.8,5.056a2.039,2.039,0,0,1,.944,1.567c0,.573-.421.792-.944.489l-8.8-5.056a2.039,2.039,0,0,1-.944-1.567C414.35,195.561,414.771,195.342,415.294,195.645Z" transform="translate(-408.334 -115.079)"/><path class="q" d="M415.294,195.645l8.8,5.056a2.039,2.039,0,0,1,.944,1.567c0,.573-.421.792-.944.489l-8.8-5.056a2.039,2.039,0,0,1-.944-1.567C414.35,195.561,414.771,195.342,415.294,195.645Z" transform="translate(-408.334 -115.079)"/><path class="j" d="M432.854,186.262l11.275,6.522a2.039,2.039,0,0,1,.944,1.584c0,.556-.421.775-.944.472l-11.275-6.522a2.039,2.039,0,0,1-.944-1.584C431.91,186.178,432.331,185.925,432.854,186.262Z" transform="translate(-396.3 -121.521)"/><path class="q" d="M432.854,186.262l11.275,6.522a2.039,2.039,0,0,1,.944,1.584c0,.556-.421.775-.944.472l-11.275-6.522a2.039,2.039,0,0,1-.944-1.584C431.91,186.178,432.331,185.925,432.854,186.262Z" transform="translate(-396.3 -121.521)"/><path class="m" d="M430.094,209.046l25.92,14.949a2.056,2.056,0,0,1,.961,1.584c0,.573-.438.775-.961.489L430.094,211.1a2.039,2.039,0,0,1-.944-1.567C429.15,209.046,429.571,208.76,430.094,209.046Z" transform="translate(-398.191 -105.88)"/><path class="m" d="M438.959,219.037l25.97,15.016a2.056,2.056,0,0,1,.961,1.584c0,.556-.438.775-.961.472l-25.9-14.949a2.022,2.022,0,0,1-.961-1.584C437.965,219.037,438.42,218.8,438.959,219.037Z" transform="translate(-392.091 -99.018)"/><path class="m" d="M447.646,219.2l11.325,6.488a2.056,2.056,0,0,1,.961,1.567c0,.573-.438.792-.961.489l-11.258-6.522a2.022,2.022,0,0,1-.961-1.584C446.685,219.1,447.174,218.946,447.646,219.2Z" transform="translate(-386.133 -98.927)"/><path class="b" d="M447.671,238.546l11.258,6.522a2.056,2.056,0,0,1,.961,1.584c0,.556-.438.775-.961.472L447.671,240.6a2.022,2.022,0,0,1-.961-1.584C446.71,238.461,447.2,238.242,447.671,238.546Z" transform="translate(-386.157 -85.68)"/><path class="j" d="M423.754,185.876l25.92,14.965a2.006,2.006,0,0,1,.944,1.567c0,.573-.421.792-.944.489l-25.92-15.033a1.989,1.989,0,0,1-.944-1.567C422.81,185.792,423.231,185.573,423.754,185.876Z" transform="translate(-402.536 -121.775)"/><path class="q" d="M423.754,185.876l25.92,14.965a2.006,2.006,0,0,1,.944,1.567c0,.573-.421.792-.944.489l-25.92-15.033a1.989,1.989,0,0,1-.944-1.567C422.81,185.792,423.231,185.573,423.754,185.876Z" transform="translate(-402.536 -121.775)"/><path class="j" d="M441.314,196.075l11.275,6.522a2.039,2.039,0,0,1,.944,1.584c0,.556-.421.775-.944.472l-11.275-6.522a2.039,2.039,0,0,1-.944-1.584C440.37,195.907,440.791,195.7,441.314,196.075Z" transform="translate(-390.502 -114.818)"/><path class="q" d="M441.314,196.075l11.275,6.522a2.039,2.039,0,0,1,.944,1.584c0,.556-.421.775-.944.472l-11.275-6.522a2.039,2.039,0,0,1-.944-1.584C440.37,195.907,440.791,195.7,441.314,196.075Z" transform="translate(-390.502 -114.818)"/></g><g transform="translate(300.21 332.5)"><path class="h" d="M337.617,263.809l15.875,9.168a17.493,17.493,0,0,0,17.527-.927l26.206-19.128c4.668-3.371,4.4-8.426-.607-11.409l-7.955-4.618a21.622,21.622,0,0,0-18.42-.556L337.9,253.849C332.73,256.461,332.6,260.91,337.617,263.809Z" transform="translate(-333.935 -234.084)"/><path class="c" d="M396.591,244.785l-18.1,14.173-13.381,10.466a11.8,11.8,0,0,1-4.264,1.028,11.6,11.6,0,0,1-6.354-1.331l-14.207-8.207H340.2a10.112,10.112,0,0,1-2.882-14.375l.421-.59a18.943,18.943,0,0,1,11.443-7.247l7.2-1.432c11.662-2.376,21.218-3.522,22.33-2.764l17.814,10.314Z" transform="translate(-332.879 -234.272)"/><path class="j" d="M377,251.867l1.028-.809-15.993-9.219,13.988-4.331-1.416-.826-13.988,4.331-9.539-5.494-1.8.337Z" transform="translate(-323.42 -233.417)"/><path class="i" d="M356.412,264.312h0l12.741-9.2,17.173-12.4v-2.022a.169.169,0,0,0-.084-.152h-.1c-1.281-.438-8.73,1.8-17.729,5.376l-5.966,2.376A18.892,18.892,0,0,0,350.48,265.93v.3a11.8,11.8,0,0,0,4.264-1.028Z" transform="translate(-322.597 -230.02)"/></g></g><g transform="translate(580.767 462.368)"><path class="j" d="M380.6,448.533c-17.493-18.049-27.757-91.495-10.7-105.8h86.793c17.055,14.308,6.741,87.736-10.685,105.786l-.489.505c-.185.2-.388.4-.59.59-.506.489-1.028.961-1.584,1.416l-.421.337c-.421.337-.843.674-1.314,1.011a25.712,25.712,0,0,1-2.258,1.466c-14.392,8.426-37.717,8.426-52.109,0h0c-.758-.438-1.517-.944-2.275-1.483-.438-.3-.826-.624-1.23-.944l-.506-.4a20.47,20.47,0,0,1-1.534-1.365c-.236-.219-.472-.455-.691-.691a4.779,4.779,0,0,1-.4-.421Z" transform="translate(-350.826 -244.546)"/><g class="o" transform="translate(10.341 98.184)"><path class="m" d="M380.6,448.533c-17.493-18.049-27.757-91.495-10.7-105.8h86.793c17.055,14.308,6.741,87.736-10.685,105.786l-.489.505c-.185.2-.388.4-.59.59-.506.489-1.028.961-1.584,1.416l-.421.337c-.421.337-.843.674-1.314,1.011a25.712,25.712,0,0,1-2.258,1.466c-14.392,8.426-37.717,8.426-52.109,0h0c-.758-.438-1.517-.944-2.275-1.483-.438-.3-.826-.624-1.23-.944l-.506-.4a20.47,20.47,0,0,1-1.534-1.365c-.236-.219-.472-.455-.691-.691a4.779,4.779,0,0,1-.4-.421Z" transform="translate(-361.167 -342.73)"/></g><path class="j" d="M448.585,342.833c19.8,11.561,19.8,30.335,0,41.88s-51.924,11.561-71.726,0-19.8-30.335,0-41.88S428.783,331.272,448.585,342.833Z" transform="translate(-350.249 -250.413)"/><g class="w" transform="translate(11.758 83.756)"><path class="m" d="M448.585,342.833c19.8,11.561,19.8,30.335,0,41.88s-51.924,11.561-71.726,0-19.8-30.335,0-41.88S428.783,331.272,448.585,342.833Z" transform="translate(-362.007 -334.169)"/></g><path class="j" d="M433.588,345.2c14.544,8.427,14.544,22.263,0,30.757s-38.138,8.426-52.682,0-14.544-22.263,0-30.757S419.044,336.707,433.588,345.2Z" transform="translate(-344.774 -247.219)"/><g class="x" transform="translate(25.223 91.611)"><path d="M433.588,345.2c14.544,8.427,14.544,22.263,0,30.757s-38.138,8.426-52.682,0-14.544-22.263,0-30.757S419.044,336.707,433.588,345.2Z" transform="translate(-369.997 -338.83)"/></g><path class="a" d="M380.013,353.84c14.544-8.427,38.138-8.427,52.682,0a24.2,24.2,0,0,1,8.7,8.073A24.236,24.236,0,0,1,432.7,370c-14.544,8.426-38.138,8.426-52.682,0a24.437,24.437,0,0,1-8.713-8.089,24.4,24.4,0,0,1,8.713-8.073Z" transform="translate(-343.881 -241.263)"/><path class="j" d="M388.9,359.988a24.323,24.323,0,0,1-2.208-6.337c-.978-5.292.337-11.342,4.618-14.612,1.685-1.281,3.927-2.241,4.651-4.264a6.978,6.978,0,0,0,0-3.489c-.792-4.517-2.309-9.168-1.062-13.567a15.167,15.167,0,0,1,8.426-9.033,45.5,45.5,0,0,1,12.252-3.2,19.838,19.838,0,0,0,6.488-1.854c2.427-1.365,3.185-3.758,4.685-5.865a40.954,40.954,0,0,1,5.966-6.354c4.415-3.944,9.943-7.2,16.061-6.927,12.775.556,12.4,11.544,8.73,19.87s-4.651,11.039,3.371,19.718,7.988,19.381-1.534,25.279-15.707,6.741-11.932,18.3c3.371,10.3,5.444,19.078-4.062,30.083-6.151,7.112-14.561,12.185-25.077,11.8a42.337,42.337,0,0,1-12.32-2.831c-2.9-1.432-.944-3.674-1.921-6.539l-6.3-18.4a136.648,136.648,0,0,0-5.056-14.527C391.515,364.706,390.1,362.4,388.9,359.988Z" transform="translate(-333.542 -284.471)"/><g class="y" transform="translate(52.847)"><path d="M388.9,359.988a24.323,24.323,0,0,1-2.208-6.337c-.978-5.292.337-11.342,4.618-14.612,1.685-1.281,3.927-2.241,4.651-4.264a6.978,6.978,0,0,0,0-3.489c-.792-4.517-2.309-9.168-1.062-13.567a15.167,15.167,0,0,1,8.426-9.033,45.5,45.5,0,0,1,12.252-3.2,19.838,19.838,0,0,0,6.488-1.854c2.427-1.365,3.185-3.758,4.685-5.865a40.954,40.954,0,0,1,5.966-6.354c4.415-3.944,9.943-7.2,16.061-6.927,12.775.556,12.4,11.544,8.73,19.87s-4.651,11.039,3.371,19.718,7.988,19.381-1.534,25.279-15.707,6.741-11.932,18.3c3.371,10.3,5.444,19.078-4.062,30.083-6.151,7.112-14.561,12.185-25.077,11.8a42.337,42.337,0,0,1-12.32-2.831c-2.9-1.432-.944-3.674-1.921-6.539l-6.3-18.4a136.648,136.648,0,0,0-5.056-14.527C391.515,364.706,390.1,362.4,388.9,359.988Z" transform="translate(-386.388 -284.471)"/></g><path class="m" d="M398.676,399.141a.893.893,0,0,0,.624-.893c-.539-63.064,34.228-100.713,34.582-101.118a.977.977,0,0,0,0-1.348.944.944,0,0,0-1.331,0c-.354.371-35.627,38.543-35.088,102.4a.927.927,0,0,0,.944.944Z" transform="translate(-325.957 -276.908)"/><path class="m" d="M404.686,328.043l.2-.084c11.308-7.129,31.481-12.437,31.684-12.488a.961.961,0,0,0,.674-1.163.927.927,0,0,0-1.146-.674c-.843.219-20.662,5.427-32.206,12.707a.946.946,0,0,0,.792,1.7Z" transform="translate(-321.855 -264.508)"/><path class="m" d="M410.962,324.778h0a.961.961,0,0,0,.522-1.247,73.363,73.363,0,0,0-10.432-17.544.927.927,0,0,0-1.331-.1.961.961,0,0,0-.1,1.331,72.281,72.281,0,0,1,10.112,17.038.927.927,0,0,0,1.23.522Z" transform="translate(-324.626 -269.956)"/><path class="j" d="M418.885,398.767a53,53,0,0,1-27.689,1.011c-15.875-3.371-25.6-18.269-25.6-18.269s17.19-6.876,27.2-7.55a88.679,88.679,0,0,0-30.082.64s-9.2-3.371-7.466-18.943c0,0,8.662-6.387,28.65-3.876,0,0-9.977-7.129-27.487-9.235-1.382,0,.489-20.224,2.157-29.24s5.056-7.617,12.134-6.842,28.33,5.6,31.009,10.786.084,18.437.084,18.437a30.336,30.336,0,0,0,5.831-17.325s7.971,2.916,12.235,6.741a28.347,28.347,0,0,1,7.618,9.539c-.994,7.1-4.331,17.932-9.016,23.982,0,0,10.55-6.825,12.96-19.364a43.818,43.818,0,0,1,8.426,24.69C439.614,379.808,432.5,391.588,418.885,398.767Z" transform="translate(-355.031 -269.793)"/><path class="z" d="M418.885,398.767a53,53,0,0,1-27.689,1.011c-15.875-3.371-25.6-18.269-25.6-18.269s17.19-6.876,27.2-7.55a88.679,88.679,0,0,0-30.082.64s-9.2-3.371-7.466-18.943c0,0,8.662-6.387,28.65-3.876,0,0-9.977-7.129-27.487-9.235-1.382,0,.489-20.224,2.157-29.24s5.056-7.617,12.134-6.842,28.33,5.6,31.009,10.786.084,18.437.084,18.437a30.336,30.336,0,0,0,5.831-17.325s7.971,2.916,12.235,6.741a28.347,28.347,0,0,1,7.618,9.539c-.994,7.1-4.331,17.932-9.016,23.982,0,0,10.55-6.825,12.96-19.364a43.818,43.818,0,0,1,8.426,24.69C439.614,379.808,432.5,391.588,418.885,398.767Z" transform="translate(-355.031 -269.793)"/><path class="m" d="M415.3,396.378a.876.876,0,0,1-.573-.775c-2.41-30.1-36.082-77.1-50.963-86.54a.944.944,0,0,1-.287-1.264.927.927,0,0,1,1.247-.286c15.168,9.589,49.362,57.3,51.789,87.939a.893.893,0,0,1-.826.977.759.759,0,0,1-.388-.051Z" transform="translate(-349.335 -268.769)"/></g><g transform="translate(122.043 179.789)"><path class="aa" d="M215.69,359.663c0-.337-5.41-19.886-5.41-19.886s1.77,1.8,13.061-1.18a64.042,64.042,0,0,0,12.286-5.157l3.219,14.291c3.017,5.494,12.994,2.966,23.914,1.685,1.837-.219,3.725-.522,5.612-.843h.118c5.9-.32,11.8,3.219,5.7,8.258s-16.263,6.927-25.583,8.612C237.38,367.55,217.7,370.837,215.69,359.663Z" transform="translate(4.496 31.667)"/><path class="i" d="M292.44,348a11.444,11.444,0,0,1,.809,6c-.2,2.174-5.6,9.556-15.168,14.089s-21.268,4.82-26.762,6.4-10.55,4.736-17.038,6.32-12.909,2.427-19.415-1.871c-1.2-1.837-2.511-6.1-2.14-6.522C213.906,371.308,292.44,348,292.44,348Z" transform="translate(6.129 41.644)"/><path d="M239.587,344.266c4.18,2.882,12.842.876,22.2-.185,8.831-1.011,18.757-4.112,24.757-2.022s11,9.134,2.9,18.184c-2.343,2.612-7.3,7.213-11.275,8.646-10.112,3.607-19.111,3.893-25.583,5.494-8.426,2.073-13.044,5.814-20.83,6.741-10.112,1.18-16.482-1.416-18.235-4.112s-3.371-24.42.961-23.965c0,0,1.82,7.028,18.319.2C239.991,350.232,239.873,345.816,239.587,344.266Z" transform="translate(5.474 37.087)"/><path class="ab" d="M249.51,354.846s-.944-9.168-7.719-11.595a3.556,3.556,0,0,0-3.741.489s6.286.91,8.427,11.679c0,0,.32.708,1.685.455C248.566,355.773,249.577,355.588,249.51,354.846Z" transform="translate(23.527 38.169)"/><path class="ab" d="M234.62,344.09s0-.3,1.584-.59a2.831,2.831,0,0,1,1.871.2s5.056,2.191,6,11.8c0,0,0,1.146-1.567,1.466a1.382,1.382,0,0,1-1.8-.944S239.659,345.927,234.62,344.09Z" transform="translate(21.176 38.51)"/><path class="ab" d="M231.4,344.173s.286-.573,1.466-.573c1.5,0,1.854.59,1.854.59s3.607,3.691,3.64,11.713c0,0,.152,1.348-1.685,1.483S234.99,356,234.99,356,234.349,345.791,231.4,344.173Z" transform="translate(18.97 38.629)"/><path class="c" d="M224.159,270.2c8.258,24.824,30.167,110.3,30.167,110.3s-14.258,12.808-29.729,6.977L187.74,281.036Z" transform="translate(-10.95 -11.671)"/><path class="aa" d="M250.4,376.159c-1.685-2.511-8.022-19.886-8.022-19.886s6.606,3.775,17.982,1.079c5.781-1.382,11.19-7.651,11.19-7.651l4.854,16.7c2.865,5.578,12.151,3.741,23.105,2.764,1.837-.169,3.724-.438,5.629-.708h.118c5.9-.169,11.8,3.505,5.477,8.426s-16.415,6.539-25.785,7.988C273.76,386.574,256.722,385.6,250.4,376.159Z" transform="translate(26.494 42.809)"/><path class="i" d="M332.62,365.09a12.32,12.32,0,0,1,.725,6.472c-.287,2.326-6.269,10.112-16.583,14.713s-22.971,4.618-28.92,6.168-11.443,4.82-18.454,6.353-13.921,2.241-20.78-2.511c-1.247-2.022-2.562-6.64-2.123-7.078C247.614,388.044,332.62,365.09,332.62,365.09Z" transform="translate(29.248 53.356)"/><path d="M276.211,359.625a17.59,17.59,0,0,0,2.073,1.281,6.185,6.185,0,0,0,2.292.472,31.867,31.867,0,0,0,5.528.135c4.618-.219,9.219-.927,13.836-1.331,9.488-.843,20.224-3.91,26.611-1.517s12.218,10.112,3.269,19.566a43.817,43.817,0,0,1-11.966,9.084c-10.6,4.432-21.605,3.607-28.65,5.157-9.1,2.005-14.156,5.9-22.549,6.657-10.87.994-17.645-1.955-19.448-4.9-1.011-1.685.1-10.112-1.247-16.769-1.18-5.7-.876-9.572,1.18-9.32a10.11,10.11,0,0,0,1.584,2.022,7.6,7.6,0,0,0,2.41,1.9,19.02,19.02,0,0,0,4.078,1.365,24.085,24.085,0,0,0,7.567,1.045,3.675,3.675,0,0,0,2.056-.657,4.331,4.331,0,0,0,1.2-2.562c.169-.843.354-1.685.522-2.528a3.538,3.538,0,0,1,.472-1.3,3.37,3.37,0,0,1,1.281-1.028,11.054,11.054,0,0,0,4.146-3.151,9.741,9.741,0,0,0,1.214-3.91.96.96,0,0,1,.27-.64c.3-.236.758,0,1.1.185Z" transform="translate(28.476 48.339)"/><path class="ab" d="M286.086,372.133s-.775-9.876-7.988-12.657a3.842,3.842,0,0,0-4.028.421s6.741,1.146,8.662,12.758c0,0,.337.775,1.82.539C285.041,373.127,286.137,372.958,286.086,372.133Z" transform="translate(48.211 49.246)"/><path class="ab" d="M270.38,360.213s0-.337,1.685-.607a3,3,0,0,1,1.989.27s5.376,2.477,6.134,12.808c0,0,0,1.23-1.685,1.534a1.5,1.5,0,0,1-1.921-1.062S275.756,362.3,270.38,360.213Z" transform="translate(45.682 49.554)"/><path class="ab" d="M266.92,360.234s.32-.607,1.6-.573c1.6,0,1.955.674,1.955.674s3.775,4.062,3.607,12.657c0,0,.135,1.466-1.9,1.567s-1.685-1.534-1.685-1.534S270.055,362,266.92,360.234Z" transform="translate(43.311 49.634)"/><path class="d" d="M261.226,288.686c6.505,20,23.122,76.951,30.706,106.173,0,0-13.634,12.269-31.178,11.19L218.47,296.405l16.853-10.415Z" transform="translate(10.109 -0.851)"/><path class="d" d="M162.347,523.888a2.747,2.747,0,0,0,2.747-2.747V344.927a2.747,2.747,0,1,0-5.494,0V521.192a2.747,2.747,0,0,0,2.747,2.7Z" transform="translate(-30.234 37.656)"/><path class="d" d="M97.64,469.926a2.73,2.73,0,0,0,2.545-1.685l54.047-136.812a2.73,2.73,0,1,0-5.056-2.006L95.078,466.1a2.747,2.747,0,0,0,1.534,3.556A2.714,2.714,0,0,0,97.64,469.926Z" transform="translate(-74.582 27.577)"/><path class="d" d="M101.484,448.577a2.713,2.713,0,0,0,1.989-.859L204.051,341.291,304.444,447.262a2.747,2.747,0,0,0,3.977-3.775L206.04,335.41a2.763,2.763,0,0,0-1.989-.86h0a2.747,2.747,0,0,0-1.989.86L99.5,443.942a2.747,2.747,0,0,0,1.989,4.635Z" transform="translate(-71.938 32.427)"/><path class="d" d="M249.086,470.009a2.713,2.713,0,0,0,1.011-.2,2.747,2.747,0,0,0,1.534-3.556l-54.047-136.8a2.747,2.747,0,1,0-5.056,2.005l54.064,136.812a2.73,2.73,0,0,0,2.494,1.736Z" transform="translate(-7.918 27.494)"/><path d="M316.6,333.574c1.972-11.056-7.028-19.684-23.982-31.127a401.848,401.848,0,0,0-49.093-27.588c-14.19-6.505-28.65-5.9-46.834,3.37C171.408,291.189,95.57,337.214,95.57,337.214s113.454,64.041,135.279,61.176,76.377-38.357,80.709-50.845S316.6,333.574,316.6,333.574Z" transform="translate(-74.114 -11.442)"/><path d="M169.35,359.325c16.28,14.746,33.3,2.056,60.232-15.42,30.487-19.768,36.453-35.964,36.453-35.964s0,12.134-2.275,17.814-7.2,12.134-29.172,27.285-37.9,22.735-52.682,25.549l-11.662-1.6" transform="translate(-23.553 14.192)"/><path class="j" d="M102.47,399.22l-8.426,19.246a2.681,2.681,0,0,0-.1.506,2.254,2.254,0,0,0,0,.354A2.376,2.376,0,0,0,95,420.606a5.056,5.056,0,0,0,4.517.219,1.988,1.988,0,0,0,.927-.893h0v-.253L108.2,401.63Z" transform="translate(-75.234 76.745)"/><path class="j" d="M226.053,399.7l7.2,18.858a2.278,2.278,0,0,1,0,.489v.337a2.208,2.208,0,0,1-1.079,1.18,4.718,4.718,0,0,1-4.348,0,1.938,1.938,0,0,1-.86-.876h0v-.27l-6.623-17.679Z" transform="translate(11.39 77.074)"/><path class="j" d="M159.35,440.62v15.606a1.685,1.685,0,0,0,.927,1.281,4.887,4.887,0,0,0,4.483,0,1.567,1.567,0,0,0,.91-1.281V440.62A6.742,6.742,0,0,0,159.35,440.62Z" transform="translate(-30.406 104.577)"/><path class="c" d="M122.54,275.172c6.455,7.533,65.255-9.387,80.894-11.511,25.111-3.371,45.5-5.915,54.1-3.236s12.151,7.028,14.763,17.241c3.084,12.033,4.668,18.184,4.668,18.184s-41.728,16.01-74.658,19.87S122.54,275.172,122.54,275.172Z" transform="translate(-55.631 -19.137)"/><path class="d" d="M118.76,278.737c-6.522,24.841-12.37,53.727,2.713,69.535,10.112,10.651,61.193,38.324,94.124,27.42,32.425-10.735,99.6-60.671,106.342-65.608s12.859-8.426,12.218-10.584c-9.05-30.066-22.3-32.425-46.834-26.965-30.032,6.606-95.927,33.487-95.927,33.487Z" transform="translate(-62.873 -11.664)"/><path class="aa" d="M228.6,191.553l-22.65,25.6L169.38,199.794l25.566-35.374Z" transform="translate(-23.532 -84.162)"/><path class="ac" d="M221.19,151.66s9.269,13.381,8.275,14.746-7.55,2.713-7.55,2.713Z" transform="translate(11.973 -92.906)"/><path class="i" d="M225.659,165.928a11.089,11.089,0,1,1,11.089-11.089,11.089,11.089,0,0,1-11.089,11.089Zm0-20.139a9.016,9.016,0,1,1,0,.067Z" transform="translate(7.436 -98.327)"/><path class="aa" d="M228.374,130.258c18.218,3.371,23.594,11.258,26,40.026,2.461,30.049-.388,39.588-4.247,43.717-2.612,2.8-17.426,3.64-24.959,1.685-9.421-2.376-30.757-9.387-41-24.3-12.067-17.544-15.69-41.61-3.371-51.789C197.989,125.32,220.959,128.876,228.374,130.258Z" transform="translate(-20.946 -108.547)"/><path class="ac" d="M205.322,183.426c7.837,1.685,19.769.691,23.308-1.331a26.965,26.965,0,0,1-13.2-.489,43.16,43.16,0,0,1-12.084-5.326Z" transform="translate(-0.253 -76.034)"/><path class="i" d="M264.024,150.289h0c-5.056,3.505-11.291,4.955-17.392,5.915.472,4.87-1.062,9.69-2.578,14.359-1.045,3.219-4.837,13.348-8.966,7.786-2.983-4.011-5.679-7.668-11.393-6.741-9.4,1.685-10.4,13.668-4.281,20.847s11.595,4.247,11.595,4.247.859,12.96-5.983,22.128c0,0-10.2,6.269-24.521,1.55-9.033-2.983-22.077-14.376-26.88-23.274-13.23-24.47-13.3-47.93,2.747-55.143,1.483-11.8,10.567-17.19,21-19.836,14.477-3.674,29.509,5.41,43.5-.59,2.949-1.264,5.663-3.05,8.679-4.146a6,6,0,0,1,5.208,0,6.337,6.337,0,0,1,2.225,3.977,11.157,11.157,0,0,1-.556,8.426,25.278,25.278,0,0,1,6.59-2.427,8.258,8.258,0,0,1,6.64,1.5,8.544,8.544,0,0,1,2.663,5.8C272.838,140.851,269.08,146.766,264.024,150.289Z" transform="translate(-27.221 -116.797)"/><path class="i" d="M175.658,138.036l-10.988-6.151a6.3,6.3,0,1,1,10.988,6.151Z" transform="translate(-26.76 -108.842)"/><rect class="i" width="35.829" height="1.736" transform="matrix(0.983, -0.183, 0.183, 0.983, 207.651, 60.753)"/><path class="aa" d="M277.978,193.024c-.944-1.584-3.05-1.9-4.8-2.511-3.236-1.129-5.764-3.708-8.882-5.056a17.526,17.526,0,0,0-11.224-.758,28.448,28.448,0,0,0-3.741,1.2,47.086,47.086,0,0,0-6.741,3.371c-8.932,5.275-15.64,17.224-24.42,22.7-3.27,2.039-6.32,3.893-9.337,5.747l21.016,18.622a125.492,125.492,0,0,1,10.348-7.87c5.157-3.067,10.365-3.135,16.162-3.977a80.189,80.189,0,0,0,11.8-2.949,5.207,5.207,0,0,0,3.489-2.275,3.505,3.505,0,0,0-2.258-4.314,30.335,30.335,0,0,0-6.118-.843c-1.517-.236-5.562.657-6.455-.859-.472-.809.118-1.786.691-2.511,3.64-4.533,8.241-9.387,14.055-10.752a12.2,12.2,0,0,0,5.056-2.039A4.028,4.028,0,0,0,277.978,193.024Z" transform="translate(3.503 -70.667)"/><path d="M204.074,179.42c-22.263-12.151-42.537-4.348-49.834,11.275-6.623,14.14-20.51,68.844-20.51,68.844C140.4,272.111,204.074,179.42,204.074,179.42Z" transform="translate(-47.963 -77.961)"/><path class="ad" d="M212.819,183.017l3.371-4.4c-25.145-11.932-47.643,3.741-67.412,34.582-21.37,33.234-32.577,80.894-32.678,131.3,0,0,4.264,22.633,32.846,33.942,30.335,12.016,72.653,6.927,85.849-24.521,0,0,.27-31.4,9.808-46.868,6.185-10.011,20.594-32.24,31.313-48.2,9.337-13.887,16.6-45.5-2.9-57.047a165.588,165.588,0,0,0-15.859-8.089C239.329,199.583,210.527,190.061,212.819,183.017Z" transform="translate(-60.045 -77.176)"/><path class="ae" d="M283.935,220.092a50.9,50.9,0,0,0,.775-18.3h0a97.748,97.748,0,0,1-18.976,29c-10.23,10.769-22.853,19.162-32.341,30.588-10.112,12.1-17.274,26.746-25.7,39.958-3.371,5.309-7.988,15.538-14.258,15.96-7.651.489-14.965-8.831-19.128-15.269-6.741-10.247-12.37-23.072-20.645-32.021-7.23-7.87-18.42-17.948-28.262-13.381h0c-.742,2.612-1.433,5.258-2.09,7.921s-1.264,5.427-1.837,8.14v.32c-.556,2.73-1.079,5.477-1.567,8.224a3.37,3.37,0,0,1,0,.438q-.708,4.1-1.264,8.191a265.671,265.671,0,0,0-2.511,36.082s4.264,22.634,32.846,33.942c30.335,12.016,72.653,6.927,85.849-24.521,0,0,.27-31.4,9.808-46.868.961-1.55,2.14-3.371,3.371-5.511h0l.219-.354c1.1-1.685,2.275-3.59,3.556-5.578,0-.118.152-.236.236-.354a.69.69,0,0,1,0-.152c2.73-4.264,5.8-8.983,8.966-13.853l1.432-2.208c3.067-4.685,6.185-9.421,9.151-13.887h0c.994-1.5,1.972-2.966,2.949-4.4.4-.624.826-1.23,1.213-1.837h0c.337-.489.674-1.028.994-1.567l.3-.506.708-1.247.3-.573.758-1.483a4.046,4.046,0,0,1,.185-.388c.32-.657.624-1.331.927-2.022v-.2c.27-.64.539-1.281.792-1.921a1.58,1.58,0,0,1,.169-.472c.236-.624.472-1.247.691-1.871v-.371c.4-1.163.775-2.376,1.112-3.59h0c.337-1.23.64-2.477.91-3.724v-.152Z" transform="translate(-60.024 -58.552)"/><path class="aa" d="M343.484,257.266a46.472,46.472,0,0,1-5.224,5.393c-7.685,6.96-16.668,10.314-27.116,17.089-8.426,5.477-21.454,13.482-32.425,20.308a163.925,163.925,0,0,1-35.391,16.314c-10.112,3-15.892,3.118-21.909-13.2-2.949-8.005-5.292-16.229-7.853-24.369q-5.679-18.184-11.19-36.419s-13.482-33.419,16.853-50.2c13.2,7.55,18.218,10.6,22.364,26.409,4.955,18.926,12.977,56.272,12.977,56.272a264.148,264.148,0,0,0,31.33-13.348c3.842-1.9,8.578-3.236,11.325-6.657a50.852,50.852,0,0,0,4.82-7.516c1.3-2.326,2.225-4.854,3.657-7.078a62.711,62.711,0,0,1,9.96-10.971,4.1,4.1,0,0,1,2.41-1.432,2.8,2.8,0,0,1,2.444,1.483c1.112,1.955.084,3.859-.489,5.848-.657,2.275-1.315,4.55-1.955,6.741A59.406,59.406,0,0,0,337.4,223.9a9.892,9.892,0,0,1,1.517-1.921,2.932,2.932,0,0,1,2.258-.826c2.022.253,4.028,3.522,4.129,5.393a30.725,30.725,0,0,0,.152,5.713c.455,1.685,1.685,3.2,2.208,4.921a28.651,28.651,0,0,1,1.146,5.46,18.707,18.707,0,0,1-3.067,11.443A26.97,26.97,0,0,1,343.484,257.266Z" transform="translate(-2.968 -65.138)"/><path d="M218.483,191.35c11.544,4.668,19.87,9.943,25.128,27.571S254.6,264.913,254.6,264.913s.1,5.915-13.921,14.19a34.515,34.515,0,0,1-27.15,3.657l-10.584-34.043S184.17,203.113,218.483,191.35Z" transform="translate(-4.043 -65.707)"/><path d="M226.526,428.693c-9.269-.472-16.533-7.28-38.576-16.465-40.717-16.971-71.254-30.571-82.9-51.873S85.181,277.471,88.1,250.81a34.3,34.3,0,0,1,1.989-8.831l-2.865-.421,7.415-6.32h0c7.618-6.2,19.988-.674,29.324,4.415,26.661,14.494,47.508,28.65,64.041,79.5,12.387,38.273,20.561,73.192,37.683,91.865" transform="translate(-79.836 -37.515)"/><path d="M119.243,243.56c26.644,14.494,47.492,28.65,64.041,79.5s25.5,95.86,57.974,104.572c0,0-14.679,5.848-59.676-13.2-14.325-6.05-31.7-17.089-43.11-23.493-22.364-12.555-35.93-22.836-38.071-26.7C88.6,343.026,80.532,281.362,83.431,254.7S105.879,236.28,119.243,243.56Z" transform="translate(-82.839 -34.849)"/></g><g transform="translate(257.526 24.878)"><path class="j" d="M201.276,123.528l-7.314-13.836,5.915-17.106V82.12L181.76,92.586v10.466l7.786,13.482a1.045,1.045,0,0,0,.539.472h0Z" transform="translate(-150.531 14.35)"/><path class="af" d="M201.276,123.528l-7.314-13.836,5.915-17.106V82.12L181.76,92.586v10.466l7.786,13.482a1.045,1.045,0,0,0,.539.472h0Z" transform="translate(-150.531 14.35)"/><path class="j" d="M257.219,38.145a12.033,12.033,0,0,0-5.443-9.421l-4.415-2.545a12,12,0,0,0-10.87,0L168.657,65.43a12.016,12.016,0,0,0-5.427,9.421v74.675a12.016,12.016,0,0,0,5.427,9.4l4.432,2.562a12,12,0,0,0,10.87,0l21.825-12.606,7.786,13.482a1.146,1.146,0,0,0,2.09-.2l8.224-23.729,27.942-16.179a12.033,12.033,0,0,0,5.393-9.438Z" transform="translate(-163.23 -24.878)"/><path class="af" d="M163.23,131.385a12.016,12.016,0,0,0,5.427,9.4l4.432,2.562a12.151,12.151,0,0,0,9.943.438c-2.562.961-4.517-.472-4.517-3.573V65.54a11.191,11.191,0,0,1,1.6-5.359l-15.3-8.831a11.157,11.157,0,0,0-1.584,5.359Z" transform="translate(-163.23 -6.736)"/><path class="n" d="M256.433,36.594c-.624-2.309-2.73-3.034-5.241-1.6L183.308,74.261a10.735,10.735,0,0,0-3.826,4.062l-15.3-8.831a11.089,11.089,0,0,1,3.826-4.045l67.867-39.267a12,12,0,0,1,10.87,0l4.449,2.562A11.932,11.932,0,0,1,256.433,36.594Z" transform="translate(-162.579 -24.878)"/><g transform="translate(25.268 45.602)"><path class="m" d="M178.235,88.283a3.978,3.978,0,0,1,.27-1.55,11.8,11.8,0,0,1,.792-1.449L194.06,61.436a1.113,1.113,0,0,1,.236-.286l.169-.118a.4.4,0,0,1,.539,0,.977.977,0,0,1,.236.725v9.2a3.944,3.944,0,0,1-.438,1.921,12.071,12.071,0,0,1-.741,1.264l-7.618,11.595,7.618,3.505a3.236,3.236,0,0,1,.742.354c.287.185.438.657.438,1.4v6.539a2.191,2.191,0,0,1-.236.977,1.4,1.4,0,0,1-.539.674H194.3a.388.388,0,0,1-.236,0L179.3,92.446a1.5,1.5,0,0,1-1.062-1.77Z" transform="translate(-178.223 -45.774)"/><path class="m" d="M202.34,57.6a9.441,9.441,0,0,1,.556-1.483,2.68,2.68,0,0,1,1.079-1.163l4.938-2.916a.438.438,0,0,1,.573,0,1.028,1.028,0,0,1,.236.742,2.478,2.478,0,0,1,0,.556L197.25,106.5a7.163,7.163,0,0,1-.522,1.432,2.679,2.679,0,0,1-1.1,1.2l-4.837,2.8a.438.438,0,0,1-.573,0,.944.944,0,0,1-.236-.742,2.243,2.243,0,0,1,0-.539Z" transform="translate(-170.173 -51.937)"/><path class="m" d="M220.324,64.834a3.876,3.876,0,0,1-.27,1.55,11.784,11.784,0,0,1-.792,1.449L204.483,91.7a2.209,2.209,0,0,1-.236.27l-.169.135a.421.421,0,0,1-.556,0,.927.927,0,0,1-.219-.725V82.142a3.775,3.775,0,0,1,.421-1.888c.286-.506.539-.91.758-1.23l6.455-9.977-6.455-2.461a2.7,2.7,0,0,1-.758-.388c-.287-.2-.421-.674-.421-1.433v-9.2a2.241,2.241,0,0,1,.219-.977,1.568,1.568,0,0,1,.556-.657h.4l14.763,6.741a1.466,1.466,0,0,1,1.062,1.685Z" transform="translate(-161.041 -50.571)"/></g></g></g></svg>