<svg xmlns="http://www.w3.org/2000/svg" width="674" height="671.766" viewBox="0 0 674 671.766"><defs><style>.a{fill:#f0f0f0;}.b{fill:#e0e0e0;}.c{fill:#6ec868;}.d{opacity:0.2;}.e,.j,.t,.u{fill:#fff;}.f{fill:#37474f;}.g{fill:#263238;}.h,.k{fill:#455a64;}.i{opacity:0.15;}.j{opacity:0.7;}.k,.q{opacity:0.8;}.l{fill:#ebebeb;}.m,.r,.t{opacity:0.3;}.n,.u{opacity:0.4;}.o{opacity:0.5;}.p,.q{fill:#fafafa;}.s{opacity:0.1;}.v{fill:#ffa8a7;}.w{fill:#f5f5f5;}.x{fill:#f28f8f;}</style></defs><g transform="translate(-18.27 -20.965)"><g transform="translate(18.27 303.596)"><ellipse class="a" cx="337" cy="194.568" rx="337" ry="194.568"/></g><g transform="translate(41.743 337.34)"><path class="b" d="M398.93,389.319a18.441,18.441,0,0,0-2.693-9.461h0c-.364-.611-.742-1.194-1.15-1.761l-.073-.087a18.637,18.637,0,0,0-1.252-1.543l-.131-.131a16.53,16.53,0,0,0-1.354-1.324l-.131-.1a13.236,13.236,0,0,0-1.456-1.106l-.873-.48-.393-.175-.451-.2a6.438,6.438,0,0,0-.64-.2h-.175a4.94,4.94,0,0,0-.757-.146h0a4.759,4.759,0,0,0-2.78.437h0c-7.7,3.857-52.062,32.093-72.482,44.814l-10.116,6.142a2.3,2.3,0,0,0-.757.7.512.512,0,0,1-.073.116,3.069,3.069,0,0,0-.233.437,1.881,1.881,0,0,0-.1.306,3.106,3.106,0,0,0-.116.393v.262l-1.674.917-1.455.815a58.309,58.309,0,0,0-11.527-8.558c-14-8.078-32.544-12.532-52.222-12.532s-38.221,4.454-52.222,12.532c-14.555,8.369-22.472,19.678-22.472,31.831s7.976,23.448,22.472,31.831c14,8.078,32.544,12.517,52.222,12.517s38.221-4.439,52.222-12.517c14.555-8.384,22.472-19.678,22.472-31.831a29.27,29.27,0,0,0-4.745-15.734l1.339-.713a3.013,3.013,0,0,0,2.911.277h0c6.928-3.813,74.462-32.6,88.274-40.011h0C397.795,394.049,398.828,392.128,398.93,389.319ZM279.581,471.9c-12.08,6.972-28.367,10.814-45.833,10.814S200,478.874,187.916,471.9c-10.378-6-16.1-13.376-16.1-20.77s5.72-14.788,16.1-20.77c12.08-6.986,28.353-10.829,45.833-10.829s33.752,3.842,45.833,10.829c10.378,5.982,16.1,13.361,16.1,20.77s-5.764,14.773-16.17,20.77Z" transform="translate(22.433 -177.205)"/><path class="b" d="M466.094,279.474,397.6,239.842a13.929,13.929,0,0,0-12.6,0L37.006,440.7c-3.479,2.009-3.479,5.269,0,7.277l68.509,39.633a13.929,13.929,0,0,0,12.6,0l130.4-75.292,20.056,11.644c10.61,6.128,27.814,6.128,38.439,0l59.747-34.247c10.625-6.128,10.625-16.01,0-22.2l-20.042-11.644,119.349-69.193C469.558,284.743,469.558,281.512,466.094,279.474Z" transform="translate(-34.398 -238.334)"/><ellipse class="b" cx="67.17" cy="38.788" rx="67.17" ry="38.788" transform="translate(479.422 151.188)"/></g><g transform="translate(616.883 420.525)"><path class="c" d="M436.218,358.484c0-9.1-1.8-25.849,5.822-41.568,5.589-11.4,15.559-22.458,24.845-21.352,8.631,1.019,9.417,14.307,1.15,23.4s-18.776,21.687-21.075,41.787l-5.953,14.933Z" transform="translate(-426.604 -295.487)"/><g class="d" transform="translate(9.428)"><path d="M436.218,358.484c0-9.1-1.8-25.849,5.822-41.568,5.589-11.4,15.559-22.458,24.845-21.352,8.631,1.019,9.417,14.307,1.15,23.4s-18.776,21.687-21.075,41.787l-5.953,14.933Z" transform="translate(-436.032 -295.487)"/></g><path class="e" d="M438.546,363.131a.655.655,0,0,0,.524-.655c-1.048-25.849,7.365-47.317,24.321-62.061a.629.629,0,1,0-.83-.946c-17.262,15.006-25.82,36.809-24.743,63.066a.64.64,0,0,0,.655.611Z" transform="translate(-425.831 -293.745)"/><path class="c" d="M437.48,375.662a32.107,32.107,0,0,0,16.01,4.454c9.737.233,13.332-4.89,13.332-4.89s-4.963-8.427-10.7-10.188a53.765,53.765,0,0,1,17.466,4.556s5.822-.684,6.957-9.883c0,0-4.163-4.876-16.112-6.215a38.5,38.5,0,0,1,17.276-1.455c.8.2,2.5-11.644,2.78-17.145s-1.848-5.08-6.128-5.633-18.426.64-20.711,3.26-2.547,10.567-2.547,10.567-3.071-4.075-3-8.078a14.933,14.933,0,0,0-8.733,1.455c-4.366,2.241-5.822,4.032-6.055,7.423s-.509,8.485.859,12.43c0,0-4.032-6.506-3.828-12.153a60.175,60.175,0,0,0-4.148,8.5C428.3,357.614,430.552,369.593,437.48,375.662Z" transform="translate(-429.554 -280.165)"/><path class="e" d="M435.391,375.4a.611.611,0,0,0,.437-.408c5.531-16.985,31.6-39.3,41.554-42.7a.631.631,0,1,0-.408-1.193c-10.188,3.42-36.707,26.2-42.354,43.5a.64.64,0,0,0,.408.8A.626.626,0,0,0,435.391,375.4Z" transform="translate(-427.261 -279.288)"/></g><g transform="translate(86.095 20.965)"><path class="f" d="M247.952,408.3l51.495-29.779c5.3-3.057,7.947-7.074,7.947-11.091v-7.161L258.94,332.779a11.382,11.382,0,0,1-5.123-8.878V260.34L164,312.315v63.473a11.309,11.309,0,0,0,5.138,8.878L209.513,408.3C220.123,414.358,237.341,414.358,247.952,408.3Z" transform="translate(-19.719 88.064)"/><path class="g" d="M185.539,373.852v7.132l-16.476-9.49a11.338,11.338,0,0,1-5.123-8.878V299.143l17.131-9.883c.349,4.366.742,8.849,1.092,13.23l-12.008,6.943v49.6a11.251,11.251,0,0,0,5.123,8.878Z" transform="translate(-19.746 101.236)"/><path class="h" d="M168.21,369a11.338,11.338,0,0,0,5.123,8.878L207.6,397.8c10.61,6.128,27.814,6.128,38.439,0l51.509-29.764c10.61-6.128,10.61-16.01,0-22.181L263.267,325.9a11.309,11.309,0,0,1-5.138-8.878v-49.6L168.21,319.395Z" transform="translate(-17.801 91.288)"/><path class="i" d="M273.7,331.941h0l-10.436-6.026a11.309,11.309,0,0,1-5.138-8.878V267.42L168.21,319.395V369a11.338,11.338,0,0,0,5.123,8.878l10.261,5.909Z" transform="translate(-17.801 91.288)"/><path class="f" d="M286.875,329v7.161c0,4.032-2.663,8.02-7.961,11.105l-51.495,29.75a38.526,38.526,0,0,1-18.339,4.556V374.44a38.526,38.526,0,0,0,18.339-4.556l51.495-29.779C284.212,336.976,286.875,332.959,286.875,329Z" transform="translate(0.814 119.336)"/><path class="h" d="M70.881,549.731A13.784,13.784,0,0,0,83.3,549.5L431.154,348.643a14.133,14.133,0,0,0,6.4-11.091V33.2a13.725,13.725,0,0,0-6.011-10.858,13.74,13.74,0,0,0-12.415.218L71.274,223.414a14.162,14.162,0,0,0-6.4,11.091V538.858A13.754,13.754,0,0,0,70.881,549.731Z" transform="translate(-64.87 -20.965)"/><path class="f" d="M79.512,547.087,427.37,346.305a14.162,14.162,0,0,0,6.4-11.091V30.8c0-4.09-2.911-5.749-6.4-3.7L79.584,227.961a14.162,14.162,0,0,0-6.4,11.091V543.391C73.108,547.48,75.975,549.14,79.512,547.087Z" transform="translate(-61.085 -18.569)"/><path class="c" d="M81.39,497.011V236.8a8.485,8.485,0,0,1,3.8-6.651L414.125,40.284c2.11-1.223,3.842-.233,3.842,2.212V302.72a8.442,8.442,0,0,1-3.842,6.651L85.189,499.238C83.107,500.461,81.39,499.471,81.39,497.011Z" transform="translate(-57.346 -12.404)"/><path class="j" d="M81.39,497.011V236.8a8.485,8.485,0,0,1,3.8-6.651L414.125,40.284c2.11-1.223,3.842-.233,3.842,2.212V302.72a8.442,8.442,0,0,1-3.842,6.651L85.189,499.238C83.107,500.461,81.39,499.471,81.39,497.011Z" transform="translate(-57.346 -12.404)"/><path class="c" d="M197.823,311.992a3.785,3.785,0,0,1-1.921-.495,4.92,4.92,0,0,1-2.125-4.527,13.871,13.871,0,0,1,6.375-11.032h0a4.366,4.366,0,0,1,7.1,4.09,13.885,13.885,0,0,1-6.375,11.047,6.186,6.186,0,0,1-3.056.917Zm5.371-15.5a4.774,4.774,0,0,0-2.314.728h0A12.5,12.5,0,0,0,195.232,307a2.911,2.911,0,0,0,4.92,2.838,12.488,12.488,0,0,0,5.647-9.781,3.566,3.566,0,0,0-1.456-3.26,2.372,2.372,0,0,0-1.15-.306Z" transform="translate(-6.166 103.815)"/></g><g transform="translate(157.033 73.868)"><path class="a" d="M457.863,73.76,119.16,269.143v249.57a4.366,4.366,0,0,0,6.477,3.755l6.04-3.479L451.546,334.552a13.958,13.958,0,0,0,6.317-10.945Z" transform="translate(-111.08 -49.822)"/><path class="b" d="M456.407,76.278V323.606a12.575,12.575,0,0,1-5.589,9.679L130.949,517.723l-6.04,3.479a2.809,2.809,0,0,1-1.455.393,2.911,2.911,0,0,1-1.994-.815,2.809,2.809,0,0,1-.873-2.067V269.929L456.378,76.351m1.455-2.518L119.16,269.143v249.57a4.366,4.366,0,0,0,4.366,4.367,4.206,4.206,0,0,0,2.154-.582l6.04-3.479L451.546,334.552a13.958,13.958,0,0,0,6.317-10.945V73.76Z" transform="translate(-111.08 -49.822)"/><path class="k" d="M452.352,70.58,113.62,265.875l8.063,4.658,338.7-195.324Z" transform="translate(-113.604 -51.27)"/><path class="l" d="M123.959,462.841a4.366,4.366,0,0,1-2.271-3.813V209.458l-8.063-4.658V453a6.462,6.462,0,0,0,0,.917,6.7,6.7,0,0,0,3.289,4.89l6.652,3.857.335.175Z" transform="translate(-113.609 9.863)"/><path class="c" d="M113.62,272.034v-16.84a7,7,0,0,1,3.144-5.473L449.208,58.066a6.943,6.943,0,0,1,6.288,0l1.732,1a6.957,6.957,0,0,1,3.158,5.458V81.382l-338.7,195.252Z" transform="translate(-113.604 -57.313)"/><path class="m" d="M113.62,272.034v-16.84a7,7,0,0,1,3.144-5.473L449.208,58.066a6.943,6.943,0,0,1,6.288,0l1.732,1a6.957,6.957,0,0,1,3.158,5.458V81.382l-338.7,195.252Z" transform="translate(-113.604 -57.313)"/><path class="c" d="M119.16,258.3a6.986,6.986,0,0,1,3.144-5.473L454.719,61.137c1.732-1.019,3.144-.2,3.144,1.8v16.9L119.16,275.092Z" transform="translate(-111.08 -55.771)"/><path class="n" d="M119.16,258.3a6.986,6.986,0,0,1,3.144-5.473L454.719,61.137c1.732-1.019,3.144-.2,3.144,1.8v16.9L119.16,275.092Z" transform="translate(-111.08 -55.771)"/><path class="c" d="M122.6,195.773a6.506,6.506,0,0,0-.917,3.115v16.8l-8.049-4.643V194.23a6.448,6.448,0,0,1,.917-3.1Z" transform="translate(-113.599 3.637)"/><path class="o" d="M122.6,195.773a6.506,6.506,0,0,0-.917,3.115v16.8l-8.049-4.643V194.23a6.448,6.448,0,0,1,.917-3.1Z" transform="translate(-113.599 3.637)"/><path class="p" d="M341.71,75.06c0,1.878,1.324,2.649,2.911,1.7a6.52,6.52,0,0,0,2.911-5.123c0-1.878-1.325-2.649-2.911-1.7a6.535,6.535,0,0,0-2.911,5.123Z" transform="translate(-9.715 -51.747)"/><path class="p" d="M333.59,79.73c0,1.878,1.324,2.649,2.911,1.7a6.535,6.535,0,0,0,2.911-5.123c0-1.878-1.324-2.649-2.911-1.7a6.535,6.535,0,0,0-2.911,5.123Z" transform="translate(-13.413 -49.62)"/><path class="p" d="M325.46,84.44c0,1.878,1.324,2.649,2.911,1.7a6.535,6.535,0,0,0,2.911-5.123c0-1.878-1.324-2.649-2.911-1.7a6.52,6.52,0,0,0-2.911,5.123Z" transform="translate(-17.116 -47.475)"/><path class="p" d="M119.16,223.6V473.17a4.366,4.366,0,0,0,6.477,3.755l6.04-3.479,74.011-42.689V173.75Z" transform="translate(-111.08 -4.279)"/><path class="p" d="M182.67,219.861V462.211L421.833,324.131V81.78Z" transform="translate(-82.153 -46.169)"/><path class="c" d="M182.855,193.947l-55.206,31.9a4.075,4.075,0,0,0-1.848,3.2V234.8c0,1.179.83,1.645,1.848,1.063l55.206-31.9a4.075,4.075,0,0,0,1.848-3.2v-5.735C184.7,193.846,183.873,193.365,182.855,193.947Z" transform="translate(-108.056 4.808)"/><path class="q" d="M182.855,193.947l-55.206,31.9a4.075,4.075,0,0,0-1.848,3.2V234.8c0,1.179.83,1.645,1.848,1.063l55.206-31.9a4.075,4.075,0,0,0,1.848-3.2v-5.735C184.7,193.846,183.873,193.365,182.855,193.947Z" transform="translate(-108.056 4.808)"/><path class="h" d="M175.591,197.692l-1.616-1.572a7.277,7.277,0,0,0,.509-2.591,3.056,3.056,0,0,0-1.208-2.795,1.878,1.878,0,0,0-1.979.087,6.477,6.477,0,0,0-2.562,5.283,3.057,3.057,0,0,0,1.223,2.795,1.616,1.616,0,0,0,.859.233,2.227,2.227,0,0,0,1.121-.32,4.556,4.556,0,0,0,1.455-1.456l1.339,1.281a.567.567,0,0,0,.437.189.655.655,0,0,0,.466-.2.626.626,0,0,0-.044-.932Zm-4.294,0a.7.7,0,0,1-.7.087c-.277-.16-.582-.7-.582-1.688a5.269,5.269,0,0,1,1.921-4.177.859.859,0,0,1,.451-.146.48.48,0,0,1,.247,0c.262.16.568.684.568,1.688a5.342,5.342,0,0,1-1.907,4.25Z" transform="translate(-88.508 3.348)"/><path class="h" d="M127.158,235.421l-1.237.713s-.131,0-.131-.1v-3.348a.335.335,0,0,1,.131-.262l1.237-.713s.131,0,.131.1v3.348a.335.335,0,0,1-.131.262Z" transform="translate(-108.061 22.12)"/><path class="h" d="M128.428,234.668l-1.237.713c-.073,0-.131,0-.131-.1v-3.348a.306.306,0,0,1,.131-.247l1.237-.684c.073,0,.131,0,.131.087v3.362A.32.32,0,0,1,128.428,234.668Z" transform="translate(-107.482 21.797)"/><path class="h" d="M129.708,233.937l-1.237.728c-.073,0-.131,0-.131-.1V231.2a.32.32,0,0,1,.131-.247l1.237-.713c.073,0,.131,0,.131.1v3.348a.277.277,0,0,1-.131.247Z" transform="translate(-106.899 21.451)"/><path class="h" d="M127.158,238.391l-1.237.713s-.131,0-.131-.1v-3.348a.335.335,0,0,1,.131-.262l1.237-.713s.131,0,.131.1v3.348a.335.335,0,0,1-.131.262Z" transform="translate(-108.061 23.473)"/><path class="h" d="M128.428,237.624l-1.237.713c-.073,0-.131,0-.131-.1v-3.348a.306.306,0,0,1,.131-.247l1.237-.64c.073,0,.131,0,.131.087v3.362A.32.32,0,0,1,128.428,237.624Z" transform="translate(-107.482 23.163)"/><path class="h" d="M129.708,236.907l-1.237.728c-.073,0-.131,0-.131-.1v-3.362a.32.32,0,0,1,.131-.247l1.237-.713c.073,0,.131,0,.131.1v3.348a.277.277,0,0,1-.131.247Z" transform="translate(-106.899 22.803)"/><path class="h" d="M127.315,246.315l-1.455-.917v-.277l1.455-2.693a.1.1,0,0,1,.189,0v3.624C127.519,246.213,127.388,246.359,127.315,246.315Z" transform="translate(-108.029 26.96)"/><path class="h" d="M126.516,244.02l2.009-1.15v.946l-2.009,1.164c-.16.1-.306,0-.306-.306a.859.859,0,0,1,.306-.655Z" transform="translate(-107.869 27.203)"/><path class="h" d="M128.06,242.843l.684-.393v.946l-.684.393Z" transform="translate(-107.027 27.012)"/><path class="h" d="M130.26,242.094V245.6a.771.771,0,0,1-.32.655c-.16.1-.306,0-.306-.291v-3.027l-.844.48v-.946l1.15-.669C130.114,241.759,130.26,241.89,130.26,242.094Z" transform="translate(-106.694 26.713)"/><path class="h" d="M127.945,250.591a6.608,6.608,0,0,0-2.11,5.676c.247,1.819,1.324,1.747,1.455,2.591,0,.1.073.131.131.1l1.354-.771a.364.364,0,0,0,.146-.247c.146-1.121,1.528-2.474,1.528-5.2C130.463,250.664,129.313,249.645,127.945,250.591Z" transform="translate(-108.062 30.558)"/><path class="h" d="M128.29,257.715l-1.31.757c-.087,0-.16,0-.16-.131v-1.194a.408.408,0,0,1,.16-.32l1.31-.757c.087,0,.16,0,.16.131v1.223A.393.393,0,0,1,128.29,257.715Z" transform="translate(-107.591 33.215)"/><path class="h" d="M128.264,231.195a7.947,7.947,0,0,0-2.372,5.036,5.327,5.327,0,0,0,.335,2.736l-.437,2.3c0,.189,0,.277.175.16l1.324-1.455a2.052,2.052,0,0,0,1.921-.553,7.947,7.947,0,0,0,2.372-5.036C131.918,231.195,130.229,229.608,128.264,231.195Zm.466,7.51c-1.208.7-2.2-.247-2.2-2.125a5.822,5.822,0,0,1,2.2-4.658c1.223-.7,2.212.247,2.212,2.125a5.822,5.822,0,0,1-2.212,4.687Z" transform="translate(-108.061 21.602)"/><path class="h" d="M128.264,261.569a7.9,7.9,0,0,0-2.372,5.021,5.356,5.356,0,0,0,.335,2.751l-.437,2.285c0,.189,0,.291.175.175l1.324-1.456a2.052,2.052,0,0,0,1.921-.553,7.991,7.991,0,0,0,2.372-5.036C131.918,261.569,130.229,259.953,128.264,261.569Zm.466,7.51c-1.208.7-2.2-.247-2.2-2.125a5.822,5.822,0,0,1,2.2-4.658c1.223-.7,2.212.247,2.212,2.125a5.822,5.822,0,0,1-2.212,4.658Z" transform="translate(-108.061 35.431)"/><path class="h" d="M129.5,272.878a3.056,3.056,0,0,1-1.164,2.46c-.64.378-1.164-.131-1.164-1.121a3.1,3.1,0,0,1,1.164-2.46C128.975,271.393,129.5,271.888,129.5,272.878Z" transform="translate(-107.432 40.306)"/><path class="h" d="M130.627,272.988a2.052,2.052,0,0,1-.771,1.645c-.437.247-.786-.087-.786-.742a2.038,2.038,0,0,1,.786-1.645C130.278,272,130.627,272.333,130.627,272.988Z" transform="translate(-106.567 40.546)"/><path class="h" d="M129.78,278.72,127,280.292V276.77a2.4,2.4,0,0,1,1-1.907l.757-.437c.539-.306.99,0,.99.757Z" transform="translate(-107.51 41.523)"/><path class="h" d="M129.927,274.165l-.757.437v4l1.455-.83v-3.115C130.6,274.165,130.291,273.961,129.927,274.165Z" transform="translate(-106.521 41.421)"/><path class="h" d="M125.8,275.78c0,.655.349.99.771.742a2.038,2.038,0,0,0,.771-1.63c0-.669-.349-1-.771-.757A2.081,2.081,0,0,0,125.8,275.78Z" transform="translate(-108.056 41.407)"/><path class="h" d="M126.473,276.257l.742-.437v4.017l-1.455.815v-3.115A1.587,1.587,0,0,1,126.473,276.257Z" transform="translate(-108.074 42.211)"/><path class="b" d="M135.492,234.79l32.341-18.717c.873-.509,1.572-.146,1.572.8a3.377,3.377,0,0,1-1.572,2.62L135.492,238.21c-.873.495-1.572.146-1.572-.8a3.377,3.377,0,0,1,1.572-2.62Z" transform="translate(-104.358 14.892)"/><path class="b" d="M135.492,245.219l32.326-18.659c.873-.495,1.572-.146,1.572.8a3.377,3.377,0,0,1-1.572,2.62L135.492,248.64c-.873.495-1.572.146-1.572-.8a3.377,3.377,0,0,1,1.572-2.62Z" transform="translate(-104.358 19.672)"/><path class="b" d="M135.492,255.659l32.341-18.586c.873-.509,1.572-.146,1.572.786a3.362,3.362,0,0,1-1.572,2.62l-32.341,18.586c-.873.509-1.572.146-1.572-.8A3.348,3.348,0,0,1,135.492,255.659Z" transform="translate(-104.358 24.457)"/><path class="b" d="M135.492,266.131l32.326-18.659c.873-.509,1.572-.146,1.572.8a3.348,3.348,0,0,1-1.572,2.605l-32.326,18.674c-.873.495-1.572.146-1.572-.8a3.362,3.362,0,0,1,1.572-2.62Z" transform="translate(-104.358 29.194)"/><path class="b" d="M135.492,276.579l32.326-18.659c.873-.495,1.572-.146,1.572.8a3.377,3.377,0,0,1-1.572,2.62l-32.326,18.63c-.873.495-1.572.146-1.572-.8a3.377,3.377,0,0,1,1.572-2.591Z" transform="translate(-104.358 33.956)"/><path class="h" d="M139.562,285.121l32.326-18.659c.873-.509,1.572-.146,1.572.786a3.362,3.362,0,0,1-1.572,2.62l-32.326,18.659c-.873.509-1.572.146-1.572-.786A3.362,3.362,0,0,1,139.562,285.121Z" transform="translate(-102.504 37.844)"/><path class="b" d="M139.562,292.181l32.326-18.659c.873-.509,1.572-.146,1.572.8a3.348,3.348,0,0,1-1.572,2.605l-32.326,18.659c-.873.509-1.572.146-1.572-.786a3.362,3.362,0,0,1,1.572-2.62Z" transform="translate(-102.504 41.059)"/><path class="b" d="M139.562,299.241l32.326-18.659c.873-.509,1.572-.146,1.572.8a3.347,3.347,0,0,1-1.572,2.605l-32.326,18.674c-.873.495-1.572.146-1.572-.8A3.377,3.377,0,0,1,139.562,299.241Z" transform="translate(-102.504 44.275)"/><path class="b" d="M143.882,303.731l32.326-18.659c.873-.509,1.572-.146,1.572.786a3.362,3.362,0,0,1-1.572,2.62l-32.326,18.659c-.859.509-1.572.146-1.572-.786a3.391,3.391,0,0,1,1.572-2.62Z" transform="translate(-100.536 46.32)"/><path class="h" d="M138.3,305.989l2.634-4.628c.1-.175.1-.408,0-.466l-2.634-1.6c-.116-.073-.306.16-.306.407v6.229C138,306.15,138.179,306.222,138.3,305.989Z" transform="translate(-102.504 52.897)"/><path class="b" d="M143.882,310.773l32.326-18.7c.873-.495,1.572-.146,1.572.8a3.377,3.377,0,0,1-1.572,2.62l-32.326,18.7c-.859.509-1.572.146-1.572-.8a3.42,3.42,0,0,1,1.572-2.62Z" transform="translate(-100.536 49.51)"/><path class="h" d="M138.3,313.034l2.634-4.628c.1-.175.1-.407,0-.48l-2.634-1.6c-.116-.073-.306.175-.306.422v6.229C138,313.223,138.179,313.252,138.3,313.034Z" transform="translate(-102.504 56.099)"/><path class="b" d="M143.882,317.8l32.326-18.659c.873-.509,1.572-.146,1.572.8a3.377,3.377,0,0,1-1.572,2.62l-32.326,18.659c-.859.495-1.572.146-1.572-.8A3.42,3.42,0,0,1,143.882,317.8Z" transform="translate(-100.536 52.729)"/><path class="h" d="M138.3,320.1l2.634-4.643c.1-.175.1-.408,0-.466l-2.634-1.6c-.116-.073-.306.175-.306.422v6.229C138,320.249,138.179,320.278,138.3,320.1Z" transform="translate(-102.504 59.319)"/><path class="b" d="M143.882,324.841l32.326-18.659c.873-.509,1.572-.146,1.572.786a3.362,3.362,0,0,1-1.572,2.62l-32.326,18.659c-.859.509-1.572.146-1.572-.786a3.391,3.391,0,0,1,1.572-2.62Z" transform="translate(-100.536 55.935)"/><path class="h" d="M138.3,327.1l2.634-4.628c.1-.175.1-.408,0-.466l-2.634-1.6c-.116-.087-.306.16-.306.408V327.1C138,327.29,138.179,327.334,138.3,327.1Z" transform="translate(-102.504 62.51)"/><path class="b" d="M143.882,331.909l32.326-18.659c.873-.495,1.572-.146,1.572.8a3.377,3.377,0,0,1-1.572,2.62L143.882,335.33c-.859.495-1.572.146-1.572-.8a3.42,3.42,0,0,1,1.572-2.62Z" transform="translate(-100.536 59.157)"/><path class="h" d="M138.3,334.1l2.634-4.628c.1-.175.1-.408,0-.48l-2.634-1.6c-.116-.073-.306.175-.306.422V334.1C138,334.351,138.179,334.38,138.3,334.1Z" transform="translate(-102.504 65.696)"/><path class="b" d="M143.882,338.911l32.326-18.659c.873-.509,1.572-.146,1.572.8a3.348,3.348,0,0,1-1.572,2.605l-32.326,18.674c-.859.495-1.572.146-1.572-.8A3.42,3.42,0,0,1,143.882,338.911Z" transform="translate(-100.536 62.344)"/><path class="h" d="M138.3,341.184l2.634-4.643c.1-.175.1-.408,0-.466l-2.634-1.6c-.116-.073-.306.175-.306.422v6.171C138,341.373,138.179,341.4,138.3,341.184Z" transform="translate(-102.504 68.92)"/><path class="b" d="M143.882,345.911l32.326-18.659c.873-.509,1.572-.146,1.572.786a3.362,3.362,0,0,1-1.572,2.62l-32.326,18.659c-.859.509-1.572.146-1.572-.8a3.391,3.391,0,0,1,1.572-2.605Z" transform="translate(-100.536 65.532)"/><path class="h" d="M138.3,348.211l2.634-4.628c.1-.175.1-.408,0-.466l-2.634-1.6c-.116-.087-.306.16-.306.408v6.229C138,348.4,138.179,348.444,138.3,348.211Z" transform="translate(-102.504 72.125)"/><path class="b" d="M143.882,352.979l32.326-18.659c.873-.495,1.572-.146,1.572.8a3.377,3.377,0,0,1-1.572,2.62L143.882,356.4c-.859.495-1.572.146-1.572-.8a3.42,3.42,0,0,1,1.572-2.62Z" transform="translate(-100.536 68.754)"/><path class="h" d="M138.3,355.24l2.62-4.585c.1-.175.1-.408,0-.48l-2.634-1.6c-.116-.073-.306.175-.306.422v6.229C138.009,355.429,138.184,355.458,138.3,355.24Z" transform="translate(-102.508 75.343)"/><path class="a" d="M188.316,228.359l106.249-61.334a3.478,3.478,0,0,0,1.572-2.722V137.217c0-1-.713-1.455-1.572-.9L188.316,197.634a3.464,3.464,0,0,0-1.586,2.722v27.1C186.73,228.461,187.443,228.868,188.316,228.359Z" transform="translate(-80.304 -21.439)"/><path class="h" d="M194.264,187.616l.7-2.911-.961.553h0v-.611a.247.247,0,0,1,0-.1s0,0,0-.087l1.543-.888h0a.16.16,0,0,1,0,.087v.466a2.389,2.389,0,0,1,0,.277l-.7,2.911a.938.938,0,0,1,0,.1.16.16,0,0,1,0,.073l-.466.262h0a.117.117,0,0,1-.116-.131Z" transform="translate(-76.995 0.194)"/><path class="h" d="M196.277,183.041a.67.67,0,0,1,.422-.131.437.437,0,0,1,.291.116.713.713,0,0,1,.16.335,2.374,2.374,0,0,1,0,.48v.888a3.863,3.863,0,0,1,0,.553,2.4,2.4,0,0,1-.16.524,3.115,3.115,0,0,1-.291.466,1.992,1.992,0,0,1-.422.349.873.873,0,0,1-.422.131.5.5,0,0,1-.277-.131.612.612,0,0,1-.175-.335,2.374,2.374,0,0,1,0-.48v-.873a3.381,3.381,0,0,1,0-.553,1.792,1.792,0,0,1,.175-.538,2.342,2.342,0,0,1,.277-.451A1.585,1.585,0,0,1,196.277,183.041Zm.349,2.009v-.844a1.125,1.125,0,0,0,0-.218.436.436,0,0,0,0-.146.116.116,0,0,0-.1,0h-.16a.756.756,0,0,0-.16.146.685.685,0,0,0-.1.175,1.211,1.211,0,0,0,0,.218v1.3a.335.335,0,0,0,0,.146.146.146,0,0,0,.1,0,.247.247,0,0,0,.16,0,.525.525,0,0,0,.16-.146.422.422,0,0,0,.1-.175.612.612,0,0,0,0-.218,1.279,1.279,0,0,0-.073-.247Z" transform="translate(-76.359 -0.107)"/><path class="h" d="M197.785,183.01v.378a2.211,2.211,0,0,1,0,.306,1.017,1.017,0,0,1-.087.277,1.327,1.327,0,0,1-.16.233.934.934,0,0,1-.218.189.539.539,0,0,1-.218,0,.2.2,0,0,1-.16,0,.248.248,0,0,1-.087-.16.7.7,0,0,1,0-.262v-.378a1,1,0,0,1,0-.291.873.873,0,0,1,.087-.277.9.9,0,0,1,.16-.247.64.64,0,0,1,.218-.175.379.379,0,0,1,.218,0,.218.218,0,0,1,.16,0l.087.175a1.079,1.079,0,0,1,0,.233Zm.8-1.048v-.1a.146.146,0,0,1,.073,0l.262-.16h0l-1.6,4.163v.087a.175.175,0,0,1-.073.073l-.262.146h0Zm-1.455,1.776a.48.48,0,0,0,0,.175h.1a.277.277,0,0,0,.1-.116.888.888,0,0,0,0-.218v-.32a.422.422,0,0,0,0-.175h-.1a.233.233,0,0,0-.1.131.67.67,0,0,0,0,.2,1.281,1.281,0,0,0,.015.32Zm2.14.146v.378a2.211,2.211,0,0,1,0,.306,2.022,2.022,0,0,1-.087.277,1.324,1.324,0,0,1-.16.233.933.933,0,0,1-.218.189.538.538,0,0,1-.218,0,.262.262,0,0,1-.16,0,.334.334,0,0,1-.087-.175.7.7,0,0,1,0-.262v-.364a1.1,1.1,0,0,1,0-.306.875.875,0,0,1,.087-.277.9.9,0,0,1,.1-.291.64.64,0,0,1,.218-.175.539.539,0,0,1,.218,0,.218.218,0,0,1,.16,0,.5.5,0,0,1,.087.175Zm-.64.728a.423.423,0,0,0,0,.175h.1c.1,0,.073,0,.1-.116a.886.886,0,0,0,0-.218v-.32a.422.422,0,0,0,0-.175h-.1a.233.233,0,0,0-.1.131.67.67,0,0,0,0,.2,1.279,1.279,0,0,0,.015.32Z" transform="translate(-75.699 -0.658)"/><path class="h" d="M195.29,181.135l-1.062-1.645a21.017,21.017,0,0,0-2.518,6.8l1.717-.146a15.893,15.893,0,0,1,1.863-5.007Z" transform="translate(-78.036 -1.665)"/><path class="h" d="M197.515,179.25v-2.78a11.877,11.877,0,0,0-4.075,4.366l1.062,1.645A8.892,8.892,0,0,1,197.515,179.25Z" transform="translate(-77.248 -3.04)"/><path class="h" d="M193.29,186.651a14.316,14.316,0,0,1,.247-2.591l-1.717.146a17.884,17.884,0,0,0-.349,3.493,12.619,12.619,0,0,0,.349,3.1l1.717-1.863a9.9,9.9,0,0,1-.247-2.285Z" transform="translate(-78.146 0.417)"/><path class="c" d="M204.9,180.261a5.822,5.822,0,0,0-2.518-3.886,4.09,4.09,0,0,0-4.075.32v2.78a3.027,3.027,0,0,1,3.013-.218,4.265,4.265,0,0,1,1.863,2.911,9.9,9.9,0,0,1,.247,2.285,14.19,14.19,0,0,1-.247,2.591,16.259,16.259,0,0,1-1.863,5.007,9.141,9.141,0,0,1-3.013,3.26,3,3,0,0,1-3.013.218,4.221,4.221,0,0,1-1.863-2.911l-1.717,1.863a5.691,5.691,0,0,0,2.518,3.886,4.046,4.046,0,0,0,4.075-.32,12.124,12.124,0,0,0,4.075-4.366A21.279,21.279,0,0,0,204.9,186.9a19.081,19.081,0,0,0,.335-3.508A13.4,13.4,0,0,0,204.9,180.261Z" transform="translate(-78.036 -3.265)"/><path class="h" d="M208.626,179.591l32.311-18.659c.873-.509,1.586-.146,1.586.786a3.377,3.377,0,0,1-1.586,2.62l-32.311,18.63c-.873.509-1.586.146-1.586-.786a3.377,3.377,0,0,1,1.586-2.591Z" transform="translate(-71.054 -10.222)"/><path class="b" d="M208.626,188.594l55.963-32.311c.873-.509,1.572-.146,1.572.8a3.348,3.348,0,0,1-1.572,2.605L208.626,192c-.873.509-1.586.146-1.586-.8a3.362,3.362,0,0,1,1.586-2.605Z" transform="translate(-71.054 -12.34)"/><path class="a" d="M267.492,182.633,373.741,121.3a3.493,3.493,0,0,0,1.572-2.736V91.477c0-1-.7-1.455-1.572-.9L267.492,151.894a3.493,3.493,0,0,0-1.572,2.736v27.086C265.949,182.721,266.648,183.128,267.492,182.633Z" transform="translate(-44.235 -42.272)"/><path class="h" d="M273.74,139.507a1.922,1.922,0,0,1,.087-.568,1.969,1.969,0,0,1,.2-.509,2.24,2.24,0,0,1,.306-.422,2.051,2.051,0,0,1,.349-.291,1.457,1.457,0,0,1,.349-.116.525.525,0,0,1,.306.073.656.656,0,0,1,.218.262,1.456,1.456,0,0,1,.073.48,1.673,1.673,0,0,1,0,.277,1.676,1.676,0,0,1,0,.262,1.591,1.591,0,0,1-.073.247l-.087.233-.611,1.659a.2.2,0,0,0,0,.087.174.174,0,0,1-.073.073l-.509.291h0a.087.087,0,0,1,0-.073h0l.422-1.121a.727.727,0,0,1-.306,0,.379.379,0,0,1-.247-.1.6.6,0,0,1-.175-.262A1.236,1.236,0,0,1,273.74,139.507Zm1.3-.742a.537.537,0,0,0,0-.175.146.146,0,0,0-.073-.087h-.116a.233.233,0,0,0-.131,0l-.131.1-.1.16a.759.759,0,0,0-.087.189.864.864,0,0,0,0,.189.538.538,0,0,0,0,.175.093.093,0,0,0,.087.087h.1a.233.233,0,0,0,.131,0,.466.466,0,0,0,.131-.116.568.568,0,0,0,.116-.146.729.729,0,0,0,.073-.189.861.861,0,0,0,0-.189Z" transform="translate(-40.674 -20.745)"/><path class="h" d="M276.162,136.871a.64.64,0,0,1,.407-.131.408.408,0,0,1,.291.117.9.9,0,0,1,.175.335,1.673,1.673,0,0,1,0,.48v.888a2.461,2.461,0,0,1,0,.553,3.677,3.677,0,0,1-.175.524,2.258,2.258,0,0,1-.291.466,1.909,1.909,0,0,1-.408.349.932.932,0,0,1-.422.131.5.5,0,0,1-.291-.131.8.8,0,0,1-.175-.335,2.25,2.25,0,0,1,0-.466v-.888a3.387,3.387,0,0,1,0-.553,3.326,3.326,0,0,1,.175-.539,1.849,1.849,0,0,1,.291-.451A1.456,1.456,0,0,1,276.162,136.871Zm.335,2.009a8.182,8.182,0,0,0,0-.844.889.889,0,0,0,0-.2.409.409,0,0,0,0-.16.145.145,0,0,0-.1,0h-.16a.524.524,0,0,0-.16.146,1.212,1.212,0,0,0-.116.175v.466a7.886,7.886,0,0,0,0,.83q0,.131,0,.218a.729.729,0,0,0,0,.146.131.131,0,0,0,.116,0h.16l.16-.131a.786.786,0,0,0,.1-.189,1.2,1.2,0,0,0,0-.218,1.258,1.258,0,0,0,0-.233Z" transform="translate(-39.98 -21.136)"/><path class="h" d="M277.708,136.85a1.642,1.642,0,0,1,0,.378,2.174,2.174,0,0,1,0,.306,2.125,2.125,0,0,1-.1.277,1.252,1.252,0,0,1-.146.233.946.946,0,0,1-.233.189.436.436,0,0,1-.218.073.218.218,0,0,1-.146,0,.508.508,0,0,1-.1-.175,1.316,1.316,0,0,1,0-.262.715.715,0,0,1,0-.175,1.038,1.038,0,0,1,0-.2,1.98,1.98,0,0,1,0-.291,1.559,1.559,0,0,1,.1-.277.859.859,0,0,1,.146-.247,1.15,1.15,0,0,1,.218-.175.539.539,0,0,1,.233,0,.189.189,0,0,1,.146,0,.511.511,0,0,1,.1.175A1.292,1.292,0,0,1,277.708,136.85Zm.815-1.048v-.1h.073l.262-.16h0l-1.586,4.163a.48.48,0,0,1,0,.087v.073l-.262.146h0Zm-1.455,1.776v.175c0,.029,0,0,.087,0a.146.146,0,0,0,.1-.116V137.1a.733.733,0,0,0,0-.175h-.1a.218.218,0,0,0-.087.131.609.609,0,0,0,0,.2Zm2.14.146a1.649,1.649,0,0,1,0,.378,2.173,2.173,0,0,1,0,.306,2.125,2.125,0,0,1-.1.277.829.829,0,0,1-.16.233.538.538,0,0,1-.218.189.436.436,0,0,1-.218,0,.175.175,0,0,1-.146,0,.511.511,0,0,1-.1-.175,1.286,1.286,0,0,1,0-.247,1.238,1.238,0,0,1,0-.378,2.174,2.174,0,0,1,0-.306,1.557,1.557,0,0,1,.1-.277.64.64,0,0,1,.145-.233.844.844,0,0,1,.218-.189.539.539,0,0,1,.218,0,.2.2,0,0,1,.16,0,.509.509,0,0,1,.1.175,1.28,1.28,0,0,1,0,.189Zm-.64.728v.175c0,.029,0,0,.087,0a.146.146,0,0,0,.1-.116.785.785,0,0,0,0-.218,1.177,1.177,0,0,0,0-.32.421.421,0,0,0,0-.175h-.1a.218.218,0,0,0-.087.131.61.61,0,0,0,0,.2Z" transform="translate(-39.3 -21.683)"/><path class="h" d="M277.375,133.13v-2.78a11.876,11.876,0,0,0-4.075,4.366l1.063,1.645a8.893,8.893,0,0,1,3.013-3.231Z" transform="translate(-40.874 -24.047)"/><path class="c" d="M284.88,134.143a5.735,5.735,0,0,0-2.518-3.886,4.046,4.046,0,0,0-4.075.32v2.78a3,3,0,0,1,3.013-.218,4.265,4.265,0,0,1,1.863,2.911,9.9,9.9,0,0,1,.247,2.285,14.322,14.322,0,0,1-.247,2.591,15.894,15.894,0,0,1-1.863,5.007,9.14,9.14,0,0,1-3.013,3.26,3,3,0,0,1-3.013.218,4.221,4.221,0,0,1-1.863-2.911,9.9,9.9,0,0,1-.247-2.285,14.19,14.19,0,0,1,.247-2.591,15.894,15.894,0,0,1,1.819-5.007l-1.062-1.645a21.061,21.061,0,0,0-2.518,6.783,19.222,19.222,0,0,0-.349,3.508,13.359,13.359,0,0,0,.349,3.1,5.691,5.691,0,0,0,2.518,3.886,4.046,4.046,0,0,0,4.075-.32,11.993,11.993,0,0,0,4.075-4.366h0a21.409,21.409,0,0,0,2.518-6.783,19.329,19.329,0,0,0,.335-3.508A13.4,13.4,0,0,0,284.88,134.143Z" transform="translate(-41.785 -24.273)"/><path class="h" d="M288.492,133.474,320.818,114.8c.859-.495,1.572-.146,1.572.8a3.391,3.391,0,0,1-1.572,2.62L288.492,136.88c-.873.509-1.572.146-1.572-.8A3.348,3.348,0,0,1,288.492,133.474Z" transform="translate(-34.67 -31.231)"/><path class="b" d="M288.492,142.459l55.963-32.3c.873-.509,1.586-.146,1.586.8a3.362,3.362,0,0,1-1.586,2.605l-55.963,32.312c-.873.495-1.572.146-1.572-.8A3.377,3.377,0,0,1,288.492,142.459Z" transform="translate(-34.67 -33.347)"/><path class="h" d="M195.742,208.762l22.676-13.1c.873-.509,1.572-.146,1.572.786a3.362,3.362,0,0,1-1.572,2.62l-22.676,13.1c-.873.509-1.572.146-1.572-.8a3.348,3.348,0,0,1,1.572-2.605Z" transform="translate(-76.915 5.596)"/><path class="b" d="M410.611,126.971h0m-.669.393v173.2a2.023,2.023,0,0,1-.844,1.456L188.185,429.52v-173.2a2.1,2.1,0,0,1,.859-1.455l2.751-1.586a4.934,4.934,0,0,0,2.314-3.988V239.3a2.023,2.023,0,0,1,.844-1.455l31.715-18.31v9.315A2.372,2.372,0,0,0,229,231.43a2.911,2.911,0,0,0,1.455-.408L409.97,127.378M227.338,219.131h0m183.186-93.6a1.455,1.455,0,0,0-.7.218L229.7,229.742a1.455,1.455,0,0,1-.7.218c-.524,0-.873-.422-.873-1.121V218.811c0-.713-.364-1.121-.873-1.121a1.455,1.455,0,0,0-.7.218l-32.326,18.659a3.493,3.493,0,0,0-1.572,2.736v10.014a3.464,3.464,0,0,1-1.586,2.722l-2.751,1.6a3.464,3.464,0,0,0-1.586,2.722V430.219c0,.713.364,1.135.873,1.135a1.455,1.455,0,0,0,.713-.218L409.81,303.243a3.464,3.464,0,0,0,1.572-2.722V126.651c0-.713-.349-1.121-.873-1.121Z" transform="translate(-80.304 -26.242)"/><path class="b" d="M197.022,227.589a1.557,1.557,0,0,1-.771-.189,1.849,1.849,0,0,1-.83-1.659v-6.593a4.221,4.221,0,0,1,1.95-3.362L214.939,205.6a1.819,1.819,0,0,1,1.834-.116,1.849,1.849,0,0,1,.83,1.659v6.593a4.221,4.221,0,0,1-1.95,3.362L198.1,227.284A2.212,2.212,0,0,1,197.022,227.589Zm1.077-10.538a2.707,2.707,0,0,0-1.223,2.1v6.593a.553.553,0,0,0,.1.393.568.568,0,0,0,.393-.116L214.939,215.9a2.794,2.794,0,0,0,1.208-2.11V207.2a.553.553,0,0,0-.1-.393.568.568,0,0,0-.393.116Z" transform="translate(-76.347 10.085)"/><path class="b" d="M198.328,217.355l11.455-6.637c.582-.335,1.048-.1,1.048.524a2.227,2.227,0,0,1-1.048,1.747l-11.455,6.652c-.582.335-1.048.087-1.048-.538a2.256,2.256,0,0,1,1.048-1.747Z" transform="translate(-75.499 12.489)"/><path class="h" d="M207.671,210.347l.946,1.354a.172.172,0,0,0,.146-.087l.946-2.445v-.175l-1.892,1.092a.233.233,0,0,0-.146.262Z" transform="translate(-70.768 11.769)"/><path class="c" d="M195.315,264.624c.844-.48,1.455-.087,1.455.873a3.333,3.333,0,0,1-1.456,2.634c-.844.48-1.455.087-1.455-.873a3.333,3.333,0,0,1,1.455-2.634Z" transform="translate(-77.057 37.018)"/><path class="c" d="M203.455,255.244c.844-.48,1.528-.087,1.528.873a3.348,3.348,0,0,1-1.528,2.634c-.83.48-1.455.087-1.455-.873A3.362,3.362,0,0,1,203.455,255.244Z" transform="translate(-73.349 32.746)"/><path class="c" d="M211.588,250.554c.83-.48,1.455-.087,1.455.873a3.362,3.362,0,0,1-1.455,2.634c-.844.48-1.528.087-1.528-.873A3.348,3.348,0,0,1,211.588,250.554Z" transform="translate(-69.678 30.61)"/><path class="c" d="M219.685,247.924c.844-.48,1.455-.087,1.455.873a3.333,3.333,0,0,1-1.455,2.634c-.844.48-1.455.087-1.455-.873a3.333,3.333,0,0,1,1.455-2.634Z" transform="translate(-65.957 29.412)"/><path class="c" d="M227.815,239.474c.844-.48,1.455-.087,1.455.888a3.333,3.333,0,0,1-1.455,2.62c-.83.495-1.455.1-1.455-.873a3.406,3.406,0,0,1,1.455-2.634Z" transform="translate(-62.254 25.563)"/><path class="c" d="M235.935,236.484c.844-.48,1.455-.087,1.455.873a3.333,3.333,0,0,1-1.455,2.634c-.844.48-1.455.087-1.455-.873a3.333,3.333,0,0,1,1.455-2.634Z" transform="translate(-58.555 24.201)"/><path class="c" d="M244.055,227.067c.844-.495,1.528-.1,1.528.873a3.362,3.362,0,0,1-1.528,2.634c-.83.48-1.455.087-1.455-.888A3.362,3.362,0,0,1,244.055,227.067Z" transform="translate(-54.857 19.908)"/><path class="c" d="M252.185,224.754c.83-.48,1.455-.087,1.455.888a3.362,3.362,0,0,1-1.455,2.62c-.844.495-1.455.1-1.455-.873a3.362,3.362,0,0,1,1.455-2.634Z" transform="translate(-51.154 18.859)"/><path class="c" d="M260.305,198.954c.844-.48,1.455-.087,1.455.888a3.391,3.391,0,0,1-1.455,2.634c-.844.48-1.455.087-1.455-.888a3.377,3.377,0,0,1,1.456-2.634Z" transform="translate(-47.456 7.107)"/><path class="c" d="M268.478,213.067c.83-.495,1.455-.1,1.455.873a3.406,3.406,0,0,1-1.455,2.634c-.844.48-1.528.087-1.528-.888a3.333,3.333,0,0,1,1.528-2.62Z" transform="translate(-43.766 13.531)"/><path class="c" d="M276.555,213.067c.844-.495,1.455-.1,1.455.873a3.377,3.377,0,0,1-1.455,2.634c-.844.48-1.455.087-1.455-.888a3.318,3.318,0,0,1,1.455-2.62Z" transform="translate(-40.054 13.531)"/><path class="c" d="M284.676,213.067c.844-.495,1.455-.1,1.455.873a3.391,3.391,0,0,1-1.455,2.634c-.83.48-1.456.087-1.456-.888A3.362,3.362,0,0,1,284.676,213.067Z" transform="translate(-36.356 13.531)"/><path class="c" d="M292.828,198.967c.83-.495,1.455-.1,1.455.873a3.406,3.406,0,0,1-1.456,2.634c-.844.48-1.528.087-1.528-.888a3.333,3.333,0,0,1,1.528-2.62Z" transform="translate(-32.675 7.109)"/><path class="c" d="M300.926,196.264c.844-.48,1.455-.087,1.455.873a3.333,3.333,0,0,1-1.455,2.634c-.844.48-1.456.087-1.456-.873A3.333,3.333,0,0,1,300.926,196.264Z" transform="translate(-28.954 5.882)"/><path class="c" d="M309.075,184.884c.844-.48,1.528-.087,1.528.888a3.333,3.333,0,0,1-1.528,2.62c-.83.495-1.456.1-1.456-.873a3.406,3.406,0,0,1,1.455-2.634Z" transform="translate(-25.242 0.699)"/><ellipse class="c" cx="2.154" cy="1.237" rx="2.154" ry="1.237" transform="translate(293.485 188.614) rotate(-60)"/><ellipse class="c" cx="2.154" cy="1.237" rx="2.154" ry="1.237" transform="translate(305.318 188.611) rotate(-60)"/><path class="c" d="M333.478,180.194c.83-.48,1.455-.087,1.455.888a3.362,3.362,0,0,1-1.456,2.62c-.844.495-1.528.1-1.528-.873A3.391,3.391,0,0,1,333.478,180.194Z" transform="translate(-14.16 -1.437)"/><path class="c" d="M194.95,304.667a.393.393,0,0,1-.247-.087.378.378,0,0,1,0-.524l11.935-13.711.1-.087,11.731-6.768,11.8-3.828,11.76-12.241.146-.087,11.731-4.366,11.76-13.58a.613.613,0,0,1,.175-.116l11.644-3.362,11.731-37.3a.378.378,0,0,1,.306-.262.393.393,0,0,1,.364.189l11.717,20.289h23.288l11.658-20.217a.35.35,0,0,1,.2-.175l11.717-3.886,11.746-16.461a.393.393,0,0,1,.306-.146h23.549l11.731-6.783a.362.362,0,1,1,.364.626l-11.818,6.841a.407.407,0,0,1-.189,0H360.7l-11.717,16.4a.32.32,0,0,1-.175.131l-11.644,3.886L325.4,229.419a.378.378,0,0,1-.32.175H301.433a.378.378,0,0,1-.306-.175l-11.411-19.765-11.571,36.794a.422.422,0,0,1-.247.247l-11.731,3.377-11.746,13.58-.146.1-11.76,4.366-11.76,12.241a.305.305,0,0,1-.146.087l-11.833,3.828L207.133,291l-11.949,13.58A.364.364,0,0,1,194.95,304.667Z" transform="translate(-76.721 -0.929)"/><path class="b" d="M195.086,307.763a.728.728,0,0,1-.626-.364.742.742,0,0,1,.262-1L395.738,190.35a.728.728,0,0,1,.728,1.252L195.45,307.6a.684.684,0,0,1-.364.16Z" transform="translate(-76.828 3.252)"/><path class="c" d="M195.315,259.934c.844-.48,1.455-.087,1.455.873a3.333,3.333,0,0,1-1.456,2.634c-.844.48-1.455.087-1.455-.873a3.333,3.333,0,0,1,1.455-2.634Z" transform="translate(-77.057 34.882)"/><path class="c" d="M203.455,245.864c.844-.48,1.528-.087,1.528.873a3.347,3.347,0,0,1-1.528,2.634c-.83.48-1.455.087-1.455-.873A3.362,3.362,0,0,1,203.455,245.864Z" transform="translate(-73.349 28.474)"/><ellipse class="c" cx="2.154" cy="1.237" rx="2.154" ry="1.237" transform="translate(139.775 274.795) rotate(-60)"/><path class="c" d="M219.685,227.067c.844-.495,1.455-.1,1.455.873a3.348,3.348,0,0,1-1.455,2.634c-.844.48-1.455.087-1.455-.888A3.318,3.318,0,0,1,219.685,227.067Z" transform="translate(-65.957 19.908)"/><path class="c" d="M227.815,231.794c.844-.48,1.455-.087,1.455.873a3.348,3.348,0,0,1-1.455,2.634c-.83.48-1.455.087-1.455-.873A3.362,3.362,0,0,1,227.815,231.794Z" transform="translate(-62.254 22.065)"/><path class="c" d="M235.935,229.444c.844-.48,1.455-.087,1.455.888a3.319,3.319,0,0,1-1.455,2.62c-.844.495-1.455.1-1.455-.873a3.377,3.377,0,0,1,1.455-2.634Z" transform="translate(-58.555 20.995)"/><path class="c" d="M244.055,222.417c.844-.495,1.528-.1,1.528.873a3.362,3.362,0,0,1-1.528,2.634c-.83.48-1.455.087-1.455-.873a3.362,3.362,0,0,1,1.455-2.634Z" transform="translate(-54.857 17.79)"/><path class="c" d="M252.185,213.067c.83-.495,1.455-.1,1.455.873a3.406,3.406,0,0,1-1.456,2.634c-.844.48-1.455.087-1.455-.888a3.333,3.333,0,0,1,1.456-2.62Z" transform="translate(-51.154 13.531)"/><path class="c" d="M260.305,210.684c.844-.48,1.455-.087,1.455.873a3.347,3.347,0,0,1-1.455,2.634c-.844.48-1.455.087-1.455-.873A3.333,3.333,0,0,1,260.305,210.684Z" transform="translate(-47.456 12.45)"/><path class="c" d="M268.455,203.657c.844-.495,1.456-.1,1.456.873a3.391,3.391,0,0,1-1.456,2.634c-.83.48-1.455.087-1.455-.888A3.362,3.362,0,0,1,268.455,203.657Z" transform="translate(-43.743 9.245)"/><path class="c" d="M276.555,203.657c.844-.495,1.455-.1,1.455.873a3.377,3.377,0,0,1-1.455,2.634c-.844.48-1.455.087-1.455-.888A3.318,3.318,0,0,1,276.555,203.657Z" transform="translate(-40.054 9.245)"/><path class="c" d="M284.676,184.884c.844-.48,1.455-.087,1.455.888a3.333,3.333,0,0,1-1.455,2.62c-.83.495-1.456.1-1.456-.873A3.406,3.406,0,0,1,284.676,184.884Z" transform="translate(-36.356 0.699)"/><path class="c" d="M292.828,194.2c.83-.48,1.455-.1,1.455.873a3.362,3.362,0,0,1-1.455,2.634c-.844.48-1.528.087-1.528-.873a3.348,3.348,0,0,1,1.528-2.634Z" transform="translate(-32.675 4.943)"/><path class="c" d="M300.926,184.884c.844-.48,1.455-.087,1.455.888a3.333,3.333,0,0,1-1.455,2.62c-.844.495-1.456.1-1.456-.873a3.377,3.377,0,0,1,1.456-2.634Z" transform="translate(-28.954 0.699)"/><path class="c" d="M309.078,180.194c.83-.48,1.455-.087,1.455.888a3.362,3.362,0,0,1-1.455,2.62c-.844.495-1.528.1-1.528-.873A3.391,3.391,0,0,1,309.078,180.194Z" transform="translate(-25.274 -1.437)"/><path class="c" d="M317.175,180.194c.844-.48,1.455-.087,1.455.888a3.318,3.318,0,0,1-1.455,2.62c-.844.495-1.455.1-1.455-.873a3.377,3.377,0,0,1,1.455-2.634Z" transform="translate(-21.553 -1.437)"/><path class="c" d="M325.3,175.5c.844-.48,1.528-.087,1.528.888a3.333,3.333,0,0,1-1.528,2.62c-.83.495-1.455.1-1.455-.873A3.406,3.406,0,0,1,325.3,175.5Z" transform="translate(-17.854 -3.573)"/><path class="c" d="M333.478,175.5c.83-.48,1.455-.087,1.455.888a3.362,3.362,0,0,1-1.456,2.62c-.844.495-1.528.1-1.528-.873a3.391,3.391,0,0,1,1.528-2.634Z" transform="translate(-14.16 -3.573)"/><path class="c" d="M194.975,299.984a.32.32,0,0,1-.189,0,.364.364,0,0,1-.131-.495l11.906-20.522a.335.335,0,0,1,.247-.175l11.556-2.474,11.746-24.6a.378.378,0,0,1,.233-.189.35.35,0,0,1,.291,0l11.644,6.753,11.644-3.362,11.746-10.188,11.8-13.623a.291.291,0,0,1,.175-.117l11.746-3.391,11.76-10.188a.364.364,0,0,1,.247-.087h11.644l11.673-27.086a.408.408,0,0,1,.291-.218.349.349,0,0,1,.32.131l11.556,13.332,11.542-13.332a.291.291,0,0,1,.1-.087l11.862-6.841a.277.277,0,0,1,.175,0H372.3l11.644-6.753a.392.392,0,0,1,.175,0h11.92a.364.364,0,0,1,0,.728H384.3l-11.644,6.753H360.754l-11.731,6.768-11.775,13.609a.378.378,0,0,1-.553,0L325.24,191.115,313.6,217.9a.364.364,0,0,1-.335.218H301.618l-11.833,10.072h-.146l-11.717,3.377-11.775,13.58L254.3,255.418l-.131.073-11.818,3.42a.32.32,0,0,1-.277,0l-11.5-6.637-11.644,24.408a.306.306,0,0,1-.247.189l-11.644,2.474-11.833,20.377A.349.349,0,0,1,194.975,299.984Z" transform="translate(-76.717 -3.043)"/><g class="r" transform="translate(116.803 171.726)"><path d="M195.315,259.934c.844-.48,1.455-.087,1.455.873a3.333,3.333,0,0,1-1.456,2.634c-.844.48-1.455.087-1.455-.873a3.333,3.333,0,0,1,1.455-2.634Z" transform="translate(-193.86 -136.844)"/><path d="M203.455,245.864c.844-.48,1.528-.087,1.528.873a3.347,3.347,0,0,1-1.528,2.634c-.83.48-1.455.087-1.455-.873A3.362,3.362,0,0,1,203.455,245.864Z" transform="translate(-190.152 -143.253)"/><ellipse cx="2.154" cy="1.237" rx="2.154" ry="1.237" transform="translate(22.971 103.069) rotate(-60)"/><path d="M219.685,227.067c.844-.495,1.455-.1,1.455.873a3.348,3.348,0,0,1-1.455,2.634c-.844.48-1.455.087-1.455-.888A3.318,3.318,0,0,1,219.685,227.067Z" transform="translate(-182.76 -151.818)"/><path d="M227.815,231.794c.844-.48,1.455-.087,1.455.873a3.348,3.348,0,0,1-1.455,2.634c-.83.48-1.455.087-1.455-.873A3.362,3.362,0,0,1,227.815,231.794Z" transform="translate(-179.057 -149.661)"/><path d="M235.935,229.444c.844-.48,1.455-.087,1.455.888a3.319,3.319,0,0,1-1.455,2.62c-.844.495-1.455.1-1.455-.873a3.377,3.377,0,0,1,1.455-2.634Z" transform="translate(-175.359 -150.731)"/><path d="M244.055,222.417c.844-.495,1.528-.1,1.528.873a3.362,3.362,0,0,1-1.528,2.634c-.83.48-1.455.087-1.455-.873a3.362,3.362,0,0,1,1.455-2.634Z" transform="translate(-171.66 -153.936)"/><path d="M252.185,213.067c.83-.495,1.455-.1,1.455.873a3.406,3.406,0,0,1-1.456,2.634c-.844.48-1.455.087-1.455-.888a3.333,3.333,0,0,1,1.456-2.62Z" transform="translate(-167.957 -158.195)"/><path d="M260.305,210.684c.844-.48,1.455-.087,1.455.873a3.347,3.347,0,0,1-1.455,2.634c-.844.48-1.455.087-1.455-.873A3.333,3.333,0,0,1,260.305,210.684Z" transform="translate(-164.259 -159.276)"/><path d="M268.455,203.657c.844-.495,1.456-.1,1.456.873a3.391,3.391,0,0,1-1.456,2.634c-.83.48-1.455.087-1.455-.888A3.362,3.362,0,0,1,268.455,203.657Z" transform="translate(-160.547 -162.481)"/><path d="M276.555,203.657c.844-.495,1.455-.1,1.455.873a3.377,3.377,0,0,1-1.455,2.634c-.844.48-1.455.087-1.455-.888A3.318,3.318,0,0,1,276.555,203.657Z" transform="translate(-156.857 -162.481)"/><path d="M284.676,184.884c.844-.48,1.455-.087,1.455.888a3.333,3.333,0,0,1-1.455,2.62c-.83.495-1.456.1-1.456-.873A3.406,3.406,0,0,1,284.676,184.884Z" transform="translate(-153.159 -171.027)"/><path d="M292.828,194.2c.83-.48,1.455-.1,1.455.873a3.362,3.362,0,0,1-1.455,2.634c-.844.48-1.528.087-1.528-.873a3.348,3.348,0,0,1,1.528-2.634Z" transform="translate(-149.479 -166.783)"/><path d="M300.926,184.884c.844-.48,1.455-.087,1.455.888a3.333,3.333,0,0,1-1.455,2.62c-.844.495-1.456.1-1.456-.873a3.377,3.377,0,0,1,1.456-2.634Z" transform="translate(-145.758 -171.027)"/><path d="M309.078,180.194c.83-.48,1.455-.087,1.455.888a3.362,3.362,0,0,1-1.455,2.62c-.844.495-1.528.1-1.528-.873A3.391,3.391,0,0,1,309.078,180.194Z" transform="translate(-142.077 -173.163)"/><path d="M317.175,180.194c.844-.48,1.455-.087,1.455.888a3.318,3.318,0,0,1-1.455,2.62c-.844.495-1.455.1-1.455-.873a3.377,3.377,0,0,1,1.455-2.634Z" transform="translate(-138.356 -173.163)"/><path d="M325.3,175.5c.844-.48,1.528-.087,1.528.888a3.333,3.333,0,0,1-1.528,2.62c-.83.495-1.455.1-1.455-.873A3.406,3.406,0,0,1,325.3,175.5Z" transform="translate(-134.658 -175.299)"/><path d="M333.478,175.5c.83-.48,1.455-.087,1.455.888a3.362,3.362,0,0,1-1.456,2.62c-.844.495-1.528.1-1.528-.873a3.391,3.391,0,0,1,1.528-2.634Z" transform="translate(-130.964 -175.299)"/><path d="M194.975,299.984a.32.32,0,0,1-.189,0,.364.364,0,0,1-.131-.495l11.906-20.522a.335.335,0,0,1,.247-.175l11.556-2.474,11.746-24.6a.378.378,0,0,1,.233-.189.35.35,0,0,1,.291,0l11.644,6.753,11.644-3.362,11.746-10.188,11.8-13.623a.291.291,0,0,1,.175-.117l11.746-3.391,11.76-10.188a.364.364,0,0,1,.247-.087h11.644l11.673-27.086a.408.408,0,0,1,.291-.218.349.349,0,0,1,.32.131l11.556,13.332,11.542-13.332a.291.291,0,0,1,.1-.087l11.862-6.841a.277.277,0,0,1,.175,0H372.3l11.644-6.753a.392.392,0,0,1,.175,0h11.92a.364.364,0,0,1,0,.728H384.3l-11.644,6.753H360.754l-11.731,6.768-11.775,13.609a.378.378,0,0,1-.553,0L325.24,191.115,313.6,217.9a.364.364,0,0,1-.335.218H301.618l-11.833,10.072h-.146l-11.717,3.377-11.775,13.58L254.3,255.418l-.131.073-11.818,3.42a.32.32,0,0,1-.277,0l-11.5-6.637-11.644,24.408a.306.306,0,0,1-.247.189l-11.644,2.474-11.833,20.377A.349.349,0,0,1,194.975,299.984Z" transform="translate(-193.52 -174.769)"/></g><path class="b" d="M199.429,227.2l11.484-6.652c.582-.335,1.048-.1,1.048.539a2.227,2.227,0,0,1-1.048,1.732l-11.455,6.652c-.568.335-1.048.1-1.048-.539A2.271,2.271,0,0,1,199.429,227.2Z" transform="translate(-74.984 16.967)"/><path class="c" d="M195.338,227.067c.844-.495,1.455-.1,1.455.873a3.333,3.333,0,0,1-1.455,2.634c-.844.48-1.528.087-1.528-.873a3.348,3.348,0,0,1,1.528-2.634Z" transform="translate(-77.079 19.908)"/><path class="m" d="M195.338,227.067c.844-.495,1.455-.1,1.455.873a3.333,3.333,0,0,1-1.455,2.634c-.844.48-1.528.087-1.528-.873a3.348,3.348,0,0,1,1.528-2.634Z" transform="translate(-77.079 19.908)"/><path class="b" d="M199.438,231.865l11.455-6.637c.582-.335,1.048-.1,1.048.524a2.227,2.227,0,0,1-1.048,1.747l-11.455,6.652c-.568.335-1.048.087-1.048-.538A2.285,2.285,0,0,1,199.438,231.865Z" transform="translate(-74.993 19.098)"/><path class="c" d="M195.338,231.795c.844-.48,1.455-.1,1.455.873a3.333,3.333,0,0,1-1.455,2.634c-.844.48-1.528.087-1.528-.873a3.348,3.348,0,0,1,1.528-2.634Z" transform="translate(-77.079 22.064)"/><path class="c" d="M194.972,305.144a.378.378,0,0,1-.247-.1.364.364,0,0,1,0-.524l6-6.171,5.822-.742,5.953-7.685,5.953.815,5.822-5.225,5.909-3.537,6.011-8.34,5.982,1.878,5.749-5.138a.364.364,0,0,1,.509,0,.335.335,0,0,1,0,.509l-6.055,5.414-5.822-1.848-5.822,8.078-5.909,3.537-5.982,5.414-5.822-.8-5.822,7.583-6.2.728-5.822,5.982a.393.393,0,0,1-.2.175Z" transform="translate(-76.713 39.682)"/><path class="h" d="M197.081,281.676a.655.655,0,0,1,.146-.131.857.857,0,0,1,.16-.116,1.615,1.615,0,0,1,.888-.262,1.033,1.033,0,0,1,.713.262,1.717,1.717,0,0,1,.466.742,3.6,3.6,0,0,1,.175,1.179,5.4,5.4,0,0,1-.175,1.354,6.214,6.214,0,0,1-.466,1.3,4.717,4.717,0,0,1-.713,1.092,3.318,3.318,0,0,1-.888.757,1.79,1.79,0,0,1-.9.277,1.106,1.106,0,0,1-.7-.277,1.732,1.732,0,0,1-.48-.742,3.974,3.974,0,0,1-.16-1.179,4.255,4.255,0,0,1,0-.742,5.616,5.616,0,0,1,.146-.713,2.225,2.225,0,0,1,.2-.669c.073-.218.146-.437.218-.64l1.572-4.483a1.551,1.551,0,0,0,.1-.218.35.35,0,0,1,.175-.2l.495-.277a.073.073,0,0,1,.116,0v.364Zm-1.121,3.784a2.519,2.519,0,0,0,.1.7,1.12,1.12,0,0,0,.291.48.67.67,0,0,0,.437.189,1.151,1.151,0,0,0,.6-.175,2.779,2.779,0,0,0,.6-.509,3.507,3.507,0,0,0,.437-.7,3.581,3.581,0,0,0,.378-1.63,2.547,2.547,0,0,0-.087-.7,1.121,1.121,0,0,0-.291-.48.669.669,0,0,0-.437-.189,1.253,1.253,0,0,0-.6.175,2.46,2.46,0,0,0-.6.509,3.231,3.231,0,0,0-.437.713,3.755,3.755,0,0,0-.291.8,4.029,4.029,0,0,0-.1.815Z" transform="translate(-76.479 43.181)"/><path class="h" d="M199.494,284.4a2.663,2.663,0,0,0,.116.364.509.509,0,0,0,.233.233.611.611,0,0,0,.408,0,2.1,2.1,0,0,0,.67-.276,2.52,2.52,0,0,0,.509-.393,2.65,2.65,0,0,0,.422-.553,2.927,2.927,0,0,0,.393-1.514,1.66,1.66,0,0,0-.1-.67.553.553,0,0,0-.277-.32.685.685,0,0,0-.422,0,2.009,2.009,0,0,0-.524.233l-.713.408a.131.131,0,0,1-.175,0,.291.291,0,0,1,0-.2v-.48a.743.743,0,0,1,0-.247l.087-.233,1.557-3.493-2.489,1.456a.1.1,0,0,1-.16,0,.413.413,0,0,1-.073-.2v-.48a.51.51,0,0,1,.073-.291.393.393,0,0,1,.16-.2l3.406-1.965h.16a.262.262,0,0,1,0,.218v.408a.9.9,0,0,1,0,.262,1.12,1.12,0,0,1-.116.277l-1.528,3.435a1.688,1.688,0,0,1,.8-.247.83.83,0,0,1,.611.189,1.222,1.222,0,0,1,.393.626,3.043,3.043,0,0,1,.146,1.033,5.009,5.009,0,0,1-.175,1.324,5.242,5.242,0,0,1-.466,1.179,4.989,4.989,0,0,1-.684.961,3.493,3.493,0,0,1-.83.669,2.475,2.475,0,0,1-1,.378,1.019,1.019,0,0,1-.684-.146,1.121,1.121,0,0,1-.408-.524,2.227,2.227,0,0,1-.145-.786.466.466,0,0,1,0-.233.364.364,0,0,1,.131-.16l.393-.233h.16A.335.335,0,0,1,199.494,284.4Z" transform="translate(-74.875 42.097)"/><path class="h" d="M203.011,282.378a1.062,1.062,0,0,0,.116.364.451.451,0,0,0,.233.233.612.612,0,0,0,.408,0,2.1,2.1,0,0,0,.67-.276,2.514,2.514,0,0,0,.509-.393,2.4,2.4,0,0,0,.422-.568,3.233,3.233,0,0,0,.291-.684,2.911,2.911,0,0,0,.1-.815,1.659,1.659,0,0,0-.1-.669.612.612,0,0,0-.277-.32.684.684,0,0,0-.422,0,2.52,2.52,0,0,0-.524.218l-.728.422a.131.131,0,0,1-.16,0,.291.291,0,0,1,0-.2v-.48a.48.48,0,0,1,0-.247,2.007,2.007,0,0,1,.087-.233l1.557-3.493-2.489,1.455a.131.131,0,0,1-.175,0,.291.291,0,0,1,0-.2V276a.655.655,0,0,1,0-.291.349.349,0,0,1,.175-.2l3.406-1.979a.131.131,0,0,1,.16,0,.306.306,0,0,1,.073.218v.48a.974.974,0,0,1,0,.262c0,.087-.073.175-.116.277L204.7,278.2a1.922,1.922,0,0,1,.786-.262.931.931,0,0,1,.626.2,1.455,1.455,0,0,1,.393.611,3.493,3.493,0,0,1,.146,1.048,5.1,5.1,0,0,1-.175,1.325,5.561,5.561,0,0,1-.466,1.164,4.236,4.236,0,0,1-.684.961,3.566,3.566,0,0,1-.83.684,2.546,2.546,0,0,1-1,.378,1.179,1.179,0,0,1-.7-.146,1.339,1.339,0,0,1-.407-.524,2.227,2.227,0,0,1-.131-.786.467.467,0,0,1,0-.233.335.335,0,0,1,.131-.175l.393-.218a.116.116,0,0,1,.16,0A.334.334,0,0,1,203.011,282.378Z" transform="translate(-73.24 41.155)"/><path class="b" d="M195.918,306.776l51.1-29.619c.568-.335,1.048-.087,1.048.539a2.285,2.285,0,0,1-1.048,1.747l-51.1,29.575c-.568.335-1.048.1-1.048-.539A2.27,2.27,0,0,1,195.918,306.776Z" transform="translate(-76.597 42.752)"/><path class="b" d="M195.918,276.125l11.455-6.637c.582-.335,1.048-.1,1.048.524a2.256,2.256,0,0,1-1.048,1.747L195.918,278.4c-.568.335-1.048.1-1.048-.524A2.285,2.285,0,0,1,195.918,276.125Z" transform="translate(-76.597 39.257)"/><path class="c" d="M194.972,334.824a.335.335,0,0,1-.247-.116.349.349,0,0,1,0-.509l6-6.171,5.938-.742,5.967-5.225,5.822-1.572,6.011-11.949,6.011,2.911,5.822-5.123h.1l5.749-1.092,5.822-10.057a.364.364,0,1,1,.626.364l-5.982,10.348-5.982,1.135-6.026,5.3-5.822-2.911-5.822,11.644-5.982,1.63-5.938,5.225-5.895.757-5.822,5.982a.393.393,0,0,1-.349.175Z" transform="translate(-76.713 50.93)"/><g class="r" transform="translate(117.901 345.893)"><path d="M194.972,334.824a.335.335,0,0,1-.247-.116.349.349,0,0,1,0-.509l6-6.171,5.938-.742,5.967-5.225,5.822-1.572,6.011-11.949,6.011,2.911,5.822-5.123h.1l5.749-1.092,5.822-10.057a.364.364,0,1,1,.626.364l-5.982,10.348-5.982,1.135-6.026,5.3-5.822-2.911-5.822,11.644-5.982,1.63-5.938,5.225-5.895.757-5.822,5.982a.393.393,0,0,1-.349.175Z" transform="translate(-194.614 -294.963)"/></g><path class="h" d="M197.776,315.119a.756.756,0,0,1,0,.306.378.378,0,0,1-.175.189l-.349.2a.116.116,0,0,1-.16,0,.306.306,0,0,1,0-.218v-7.277l-1.455,2.445q-.087.16-.175.175a.117.117,0,0,1-.16,0l-.2-.291a.291.291,0,0,1,0-.233.524.524,0,0,1,.087-.291l1.848-3.26a.582.582,0,0,1,.146-.175l.131-.087.349-.2a.131.131,0,0,1,.175,0,.262.262,0,0,1,0,.2Z" transform="translate(-76.504 56.124)"/><path class="h" d="M200.353,309.163a5.474,5.474,0,0,0,.393-.946,3.829,3.829,0,0,0,.131-1.048,1.543,1.543,0,0,0-.277-1.033c-.175-.2-.451-.2-.844,0a1.659,1.659,0,0,0-.509.437,2.912,2.912,0,0,0-.364.568,5.136,5.136,0,0,0-.218.669,5.817,5.817,0,0,0-.131.7.873.873,0,0,1-.087.277.524.524,0,0,1-.146.16l-.393.218h-.131a.233.233,0,0,1,0-.175,5.122,5.122,0,0,1,.146-1.092,5.969,5.969,0,0,1,.393-1.15,6.519,6.519,0,0,1,.64-1.048,3.014,3.014,0,0,1,.859-.757,1.645,1.645,0,0,1,.844-.262.9.9,0,0,1,.6.262,1.528,1.528,0,0,1,.378.7,4.365,4.365,0,0,1,.116,1.033,6.814,6.814,0,0,1,0,.8,6.613,6.613,0,0,1-.131.742c-.073.247-.16.495-.262.757s-.233.524-.378.815l-1.936,3.886,2.649-1.528a.116.116,0,0,1,.16,0v.684a.51.51,0,0,1,0,.291.335.335,0,0,1-.16.2l-3.726,2.154a.131.131,0,0,1-.16,0,.291.291,0,0,1-.073-.2v-.48a.845.845,0,0,1,0-.277,2.618,2.618,0,0,1,.146-.349Z" transform="translate(-75.298 55.356)"/><path class="h" d="M205.61,305.311v2.241a8.737,8.737,0,0,1-.131,1.528,7.83,7.83,0,0,1-.408,1.455,4.628,4.628,0,0,1-.684,1.164,3.377,3.377,0,0,1-.975.844,1.717,1.717,0,0,1-.99.291.99.99,0,0,1-.67-.378,2.2,2.2,0,0,1-.408-.932,7.437,7.437,0,0,1-.146-1.368v-2.3a10.856,10.856,0,0,1,.146-1.543,6.217,6.217,0,0,1,.408-1.455,5.385,5.385,0,0,1,.669-1.164,3.479,3.479,0,0,1,.99-.859,1.645,1.645,0,0,1,.975-.277.961.961,0,0,1,.684.393,2.417,2.417,0,0,1,.408.932A6.33,6.33,0,0,1,205.61,305.311Zm-3.6,4.366a2.737,2.737,0,0,0,.364,1.645c.233.277.582.277,1.033,0a2.431,2.431,0,0,0,1.019-1.194,5.486,5.486,0,0,0,.378-2.081v-2.241a2.751,2.751,0,0,0-.378-1.659c-.233-.277-.568-.277-1.019,0a2.46,2.46,0,0,0-1.033,1.193,5.56,5.56,0,0,0-.364,2.081v2.256Z" transform="translate(-73.713 54.39)"/><path class="b" d="M195.918,334.882l51.1-29.6c.568-.335,1.048-.1,1.048.538a2.271,2.271,0,0,1-1.048,1.732l-51.1,29.619c-.568.335-1.048.087-1.048-.539A2.285,2.285,0,0,1,195.918,334.882Z" transform="translate(-76.597 55.559)"/><path class="b" d="M195.918,304.238l11.455-6.652c.582-.335,1.048-.087,1.048.538a2.256,2.256,0,0,1-1.048,1.747l-11.455,6.637c-.568.335-1.048.1-1.048-.524a2.27,2.27,0,0,1,1.048-1.747Z" transform="translate(-76.597 52.057)"/><path class="c" d="M243.721,276.916a.378.378,0,0,1-.277-.146.349.349,0,0,1,0-.509l5.909-4.716,5.953-6.8,6.04-.888,5.822-1.3,5.982-7.044,5.822,1.033,5.822-9.33,6,.087,5.822-5.167a.365.365,0,0,1,.524.509l-6.011,5.371-5.822-.1-5.924,9.4-5.953-1.048-5.822,6.914-6.04,1.368-5.822.844-5.822,6.637-5.967,4.876A.363.363,0,0,1,243.721,276.916Z" transform="translate(-54.522 26.822)"/><path class="h" d="M245.819,253.485l.146-.131.16-.116a1.659,1.659,0,0,1,.844-.2,1.048,1.048,0,0,1,.713.262,1.863,1.863,0,0,1,.466.742,4.045,4.045,0,0,1,.16,1.179,6.145,6.145,0,0,1-.16,1.354,7.175,7.175,0,0,1-.466,1.3,5.238,5.238,0,0,1-.713,1.092,3.378,3.378,0,0,1-.9.757,1.746,1.746,0,0,1-.888.277,1.15,1.15,0,0,1-.713-.277,1.718,1.718,0,0,1-.408-.859,3.536,3.536,0,0,1-.175-1.179,6.381,6.381,0,0,1,0-.742,2.955,2.955,0,0,1,.146-.713l.2-.684c.073-.218.16-.422.233-.626l1.572-4.483.087-.218a.48.48,0,0,1,.175-.2l.495-.277h.131a.247.247,0,0,1,0,.175.277.277,0,0,1,0,.116.116.116,0,0,1,0,.073Zm-1.106,3.784a2.08,2.08,0,0,0,.1.7,1.107,1.107,0,0,0,.277.48.67.67,0,0,0,.451.189,1.107,1.107,0,0,0,.582-.175,2.458,2.458,0,0,0,.6-.509,3.945,3.945,0,0,0,.451-.713,4.364,4.364,0,0,0,.277-.8,3.9,3.9,0,0,0,.1-.815,2.517,2.517,0,0,0-.1-.7,1.266,1.266,0,0,0-.277-.48.742.742,0,0,0-.451-.189,1.31,1.31,0,0,0-.6.175,2.4,2.4,0,0,0-.582.509,2.808,2.808,0,0,0-.451.713,3.713,3.713,0,0,0-.276.8,3.2,3.2,0,0,0-.1.815Z" transform="translate(-54.277 30.328)"/><path class="h" d="M250.146,252.238a5.581,5.581,0,0,0,.393-.961,4.483,4.483,0,0,0,.131-1.048,1.572,1.572,0,0,0-.277-1.019c-.175-.218-.466-.2-.844,0a2.155,2.155,0,0,0-.524.422,3.242,3.242,0,0,0-.349.582,3.144,3.144,0,0,0-.218.655,3.978,3.978,0,0,1-.146.7.685.685,0,0,1-.087.277.378.378,0,0,1-.131.16l-.393.233a.116.116,0,0,1-.146,0,.247.247,0,0,1,0-.175,4.236,4.236,0,0,1,.146-1.077,5.647,5.647,0,0,1,.393-1.15,4.817,4.817,0,0,1,.64-1.048,3.071,3.071,0,0,1,.859-.771,1.6,1.6,0,0,1,.83-.247.844.844,0,0,1,.611.262,1.456,1.456,0,0,1,.364.684,3.826,3.826,0,0,1,.131,1.048,6.725,6.725,0,0,1,0,.786,4.455,4.455,0,0,1-.146.742,5.73,5.73,0,0,1-.247.757c-.116.262-.233.524-.378.815l-1.936,3.886,2.649-1.528a.131.131,0,0,1,.16,0,.306.306,0,0,1,.073.218v.48a.771.771,0,0,1-.073.291.582.582,0,0,1-.16.2l-3.726,2.14h-.175a.305.305,0,0,1,0-.218v-.48a.843.843,0,0,1,0-.277,1.935,1.935,0,0,1,.146-.335Z" transform="translate(-52.607 29.435)"/><path class="h" d="M254.532,245.48a.116.116,0,0,1,.16,0,.248.248,0,0,1,.073.218v.553a1.8,1.8,0,0,1,0,.262,3.029,3.029,0,0,1,0,.32l-1.921,8.733a2.128,2.128,0,0,1-.1.277.349.349,0,0,1-.16.189l-.393.233a.116.116,0,0,1-.146,0,.247.247,0,0,1,0-.189h0a.449.449,0,0,1,0-.116l1.921-8.733-2.911,1.645a.131.131,0,0,1-.16,0,.306.306,0,0,1-.073-.218v-.48a.772.772,0,0,1,.073-.291.481.481,0,0,1,.16-.2Z" transform="translate(-51.113 28.377)"/><path class="b" d="M244.668,278.576l51.087-29.619c.582-.335,1.048-.087,1.048.539a2.256,2.256,0,0,1-1.048,1.747l-51.087,29.6c-.582.335-1.048.087-1.048-.539a2.227,2.227,0,0,1,1.048-1.732Z" transform="translate(-54.392 29.907)"/><path class="b" d="M244.668,247.915l11.44-6.637c.582-.335,1.062-.1,1.062.524a2.271,2.271,0,0,1-1.062,1.747l-11.44,6.637c-.582.335-1.048.1-1.048-.524a2.256,2.256,0,0,1,1.048-1.747Z" transform="translate(-54.392 26.408)"/><path class="c" d="M243.711,305.029a.452.452,0,0,1-.189,0,.393.393,0,0,1-.116-.509l6.04-9.9,6.084,1.121,5.72-1.572,5.909-7.2,5.822-1.456,5.967-10.654,6.113,1.776,5.735-1.092,5.822-5.182a.364.364,0,1,1,.48.539l-5.982,5.327h-.087L285,277.36l-5.633-1.645-5.822,10.421-5.953,1.455-5.909,7.2h-.1l-6,1.645H255.5l-5.662-1.048-5.822,9.475A.364.364,0,0,1,243.711,305.029Z" transform="translate(-54.512 39.666)"/><g class="r" transform="translate(188.844 309.9)"><path d="M243.711,305.029a.452.452,0,0,1-.189,0,.393.393,0,0,1-.116-.509l6.04-9.9,6.084,1.121,5.72-1.572,5.909-7.2,5.822-1.456,5.967-10.654,6.113,1.776,5.735-1.092,5.822-5.182a.364.364,0,1,1,.48.539l-5.982,5.327h-.087L285,277.36l-5.633-1.645-5.822,10.421-5.953,1.455-5.909,7.2h-.1l-6,1.645H255.5l-5.662-1.048-5.822,9.475A.364.364,0,0,1,243.711,305.029Z" transform="translate(-243.357 -270.233)"/></g><path class="h" d="M246.214,284.363l-.116.087h-.116a1.791,1.791,0,0,1-.8.262,1.077,1.077,0,0,1-.7-.218,1.455,1.455,0,0,1-.422-.64,3.3,3.3,0,0,1-.189-1.237,5.4,5.4,0,0,1,.175-1.354,6.886,6.886,0,0,1,.466-1.266,5.475,5.475,0,0,1,.7-1.048,3.172,3.172,0,0,1,.83-.728,1.907,1.907,0,0,1,.9-.291,1.034,1.034,0,0,1,.684.277,1.674,1.674,0,0,1,.437.742,3.918,3.918,0,0,1,.146,1.164,4.268,4.268,0,0,1,0,.713,3.77,3.77,0,0,1-.175.757,6.29,6.29,0,0,1-.233.742c-.087.247-.146.466-.218.655l-1.572,4.483-.1.218a.349.349,0,0,1-.175.2l-.495.291a.087.087,0,0,1-.116,0,.32.32,0,0,1,0-.189v-.1a.563.563,0,0,0,0-.087Zm1.121-3.77a2.111,2.111,0,0,0-.1-.713.918.918,0,0,0-.262-.393.568.568,0,0,0-.422-.16,1.237,1.237,0,0,0-.553.16,2.359,2.359,0,0,0-.553.466,2.912,2.912,0,0,0-.422.655,3.464,3.464,0,0,0-.364,1.6,2.623,2.623,0,0,0,.087.728,1.033,1.033,0,0,0,.276.451.64.64,0,0,0,.422.16.961.961,0,0,0,.553-.16,2.357,2.357,0,0,0,.553-.466,3.87,3.87,0,0,0,.422-.655,3.476,3.476,0,0,0,.277-.771,3.274,3.274,0,0,0,.087-.9Z" transform="translate(-54.279 43.172)"/><path class="h" d="M248.021,284.435a1.542,1.542,0,0,0,.131.364.538.538,0,0,0,.233.247.714.714,0,0,0,.408,0,2.1,2.1,0,0,0,.67-.277,2.516,2.516,0,0,0,.509-.393,3.257,3.257,0,0,0,.422-.553,3.713,3.713,0,0,0,.291-.7,2.913,2.913,0,0,0,.1-.815,1.659,1.659,0,0,0-.1-.669.611.611,0,0,0-.277-.32.815.815,0,0,0-.422,0,2.008,2.008,0,0,0-.524.233l-.728.408a.117.117,0,0,1-.16,0,.262.262,0,0,1,0-.2v-.48a.742.742,0,0,1,0-.247l.1-.233,1.557-3.493-2.5,1.455a.116.116,0,0,1-.16,0,.335.335,0,0,1-.073-.218v-.48a.713.713,0,0,1,.073-.291.48.48,0,0,1,.16-.2l3.42-1.965a.116.116,0,0,1,.16,0,.291.291,0,0,1,.073.2v.48a.831.831,0,0,1,0,.262,2.255,2.255,0,0,1-.116.277l-1.528,3.435a1.688,1.688,0,0,1,.786-.247.859.859,0,0,1,.611.189,1.339,1.339,0,0,1,.408.626,3.464,3.464,0,0,1,.146,1.033,4.934,4.934,0,0,1-.175,1.324,6.026,6.026,0,0,1-.466,1.179,4.99,4.99,0,0,1-.684.961,3.492,3.492,0,0,1-.83.669,2.546,2.546,0,0,1-1,.378,1.091,1.091,0,0,1-.7-.146,1.338,1.338,0,0,1-.408-.524,2.2,2.2,0,0,1-.131-.771.744.744,0,0,1,0-.247.393.393,0,0,1,.146-.16l.393-.233h.146a.175.175,0,0,1,.044.146Z" transform="translate(-52.724 42.096)"/><path class="b" d="M244.668,306.7l51.087-29.648c.582-.335,1.048-.1,1.048.539a2.227,2.227,0,0,1-1.048,1.732l-51.087,29.619c-.582.335-1.048.087-1.048-.539a2.256,2.256,0,0,1,1.048-1.7Z" transform="translate(-54.392 42.701)"/><path class="b" d="M244.668,276.038l11.44-6.652c.582-.335,1.062-.087,1.062.539a2.271,2.271,0,0,1-1.062,1.747l-11.44,6.637c-.582.335-1.048.1-1.048-.524a2.227,2.227,0,0,1,1.048-1.747Z" transform="translate(-54.392 39.213)"/><path class="c" d="M296.428,220.756a6.666,6.666,0,0,1,6.681-.553l-6.739,18.164Z" transform="translate(-30.366 16.584)"/><path class="c" d="M291.78,227.657a20.028,20.028,0,0,1,6.739-7.277v17.669Z" transform="translate(-32.457 16.96)"/><path class="c" d="M288.91,236.616a35.5,35.5,0,0,1,4.177-11.236l6.739,10.392Z" transform="translate(-33.764 19.237)"/><path class="m" d="M293.087,227.657a35.5,35.5,0,0,0-4.177,11.236l10.916-.844V220.38A20.028,20.028,0,0,0,293.087,227.657Z" transform="translate(-33.764 16.96)"/><path class="c" d="M303.109,220a9.431,9.431,0,0,1,4.177,6.4l-10.916,11.76Z" transform="translate(-30.366 16.787)"/><path class="c" d="M289.088,244.294a22.022,22.022,0,0,1-.568-5.138,31.222,31.222,0,0,1,.568-5.822L300,232.49Z" transform="translate(-33.942 22.475)"/><path class="c" d="M307.326,231.94a35.5,35.5,0,0,1-4.177,11.236l-6.739-10.392Z" transform="translate(-30.348 22.225)"/><path class="c" d="M298.519,250.189a6.666,6.666,0,0,1-6.739.495l6.739-18.164Z" transform="translate(-32.457 22.489)"/><path class="c" d="M288.91,244.28l10.916-11.76-6.739,18.164a9.432,9.432,0,0,1-4.177-6.4Z" transform="translate(-33.764 22.489)"/><path class="c" d="M307.326,224.44a22.068,22.068,0,0,1,.553,5.138,31.189,31.189,0,0,1-.553,5.822l-10.916.844Z" transform="translate(-30.348 18.809)"/><path class="c" d="M303.109,242.912a20.028,20.028,0,0,1-6.739,7.277V232.52Z" transform="translate(-30.366 22.489)"/><path class="h" d="M292.808,252.975l11.44-6.637c.582-.335,1.048-.1,1.048.524a2.256,2.256,0,0,1-1.048,1.747l-11.44,6.637c-.582.335-1.048.1-1.048-.524a2.256,2.256,0,0,1,1.048-1.747Z" transform="translate(-32.466 28.713)"/><path class="b" d="M291.068,259.6l16.505-9.548c.582-.335,1.048-.1,1.048.539a2.227,2.227,0,0,1-1.048,1.732L291.068,261.9c-.582.335-1.048.1-1.048-.524A2.227,2.227,0,0,1,291.068,259.6Z" transform="translate(-33.258 30.403)"/><path class="b" d="M291.068,264.3l16.505-9.577c.582-.335,1.048-.087,1.048.539A2.227,2.227,0,0,1,307.573,257l-16.505,9.577c-.582.335-1.048.1-1.048-.524A2.227,2.227,0,0,1,291.068,264.3Z" transform="translate(-33.258 32.535)"/><path class="b" d="M291.068,269.044l16.505-9.577c.582-.335,1.048-.087,1.048.539a2.256,2.256,0,0,1-1.048,1.747l-16.505,9.562c-.582.335-1.048.1-1.048-.524a2.256,2.256,0,0,1,1.048-1.747Z" transform="translate(-33.258 34.694)"/><path class="c" d="M324.84,204.27a6.666,6.666,0,0,1,6.739-.495l-6.739,18.106Z" transform="translate(-17.399 9.083)"/><path class="c" d="M320.21,211.177a20.158,20.158,0,0,1,6.739-7.277v17.611Z" transform="translate(-19.508 9.453)"/><path class="c" d="M317.35,220.136a35.483,35.483,0,0,1,4.163-11.236l6.739,10.392Z" transform="translate(-20.81 11.731)"/><path class="c" d="M331.579,203.56a9.431,9.431,0,0,1,4.177,6.4l-10.916,11.76Z" transform="translate(-17.399 9.299)"/><path class="c" d="M317.528,227.814a22.023,22.023,0,0,1-.568-5.138,31.332,31.332,0,0,1,.568-5.822l10.9-.844Z" transform="translate(-20.988 14.969)"/><path class="c" d="M335.756,215.46a35.368,35.368,0,0,1-4.177,11.236l-6.739-10.45Z" transform="translate(-17.399 14.719)"/><path class="c" d="M326.949,233.728a6.7,6.7,0,0,1-6.739.509L326.949,216Z" transform="translate(-19.508 14.965)"/><path class="c" d="M317.35,227.8l10.9-11.76-6.739,18.179A9.49,9.49,0,0,1,317.35,227.8Z" transform="translate(-20.81 14.983)"/><path class="m" d="M321.69,211.177a35.485,35.485,0,0,0-4.163,11.236,31.331,31.331,0,0,0-.568,5.822,22.024,22.024,0,0,0,.568,5.138,9.49,9.49,0,0,0,4.163,6.419l6.739-18.281V203.9A20.158,20.158,0,0,0,321.69,211.177Z" transform="translate(-20.988 9.453)"/><path class="c" d="M335.756,208a22.021,22.021,0,0,1,.568,5.138,31.219,31.219,0,0,1-.568,5.822l-10.916.844Z" transform="translate(-17.399 11.321)"/><path class="c" d="M331.579,226.45a19.912,19.912,0,0,1-6.739,7.277V216Z" transform="translate(-17.399 14.965)"/><path class="h" d="M321.238,236.555l11.455-6.637c.582-.335,1.048-.1,1.048.524a2.227,2.227,0,0,1-1.048,1.747l-11.455,6.651c-.582.335-1.048.087-1.048-.538A2.256,2.256,0,0,1,321.238,236.555Z" transform="translate(-19.517 21.234)"/><path class="b" d="M319.513,243.184,336,233.607c.582-.335,1.048-.087,1.048.539A2.256,2.256,0,0,1,336,235.892l-16.491,9.562c-.582.335-1.063.1-1.063-.524A2.271,2.271,0,0,1,319.513,243.184Z" transform="translate(-20.309 22.916)"/><path class="b" d="M319.513,247.88,336,238.318c.582-.335,1.048-.1,1.048.524A2.256,2.256,0,0,1,336,240.588l-16.491,9.562c-.582.349-1.063.1-1.063-.524a2.271,2.271,0,0,1,1.063-1.747Z" transform="translate(-20.309 25.06)"/><path class="b" d="M319.513,252.567,336,243.048c.582-.335,1.048-.1,1.048.524A2.256,2.256,0,0,1,336,245.318L319.513,254.9c-.582.335-1.062.087-1.062-.539a2.27,2.27,0,0,1,1.062-1.79Z" transform="translate(-20.309 27.215)"/></g><g transform="translate(227.214 507.27)"><path class="c" d="M355.491,371.959a19.43,19.43,0,0,0-8.282-15.544c-2.358-1.455-4.526-1.674-6.142-.844h0c-9.737,4.89-78.159,48.773-82.54,50.942h0a3.1,3.1,0,0,0-1.455,2.824,9.781,9.781,0,0,0,4.163,7.816,3.071,3.071,0,0,0,3.129.408h0c6.928-3.813,74.477-32.6,88.274-40h0C354.356,376.69,355.4,374.754,355.491,371.959Z" transform="translate(-118.449 -355.086)"/><path class="s" d="M352.77,362.5a17.465,17.465,0,0,0-5.589-6.084c-2.343-1.455-4.512-1.674-6.113-.859l-.2.1c-8.893,4.556-59.82,37.042-76.951,47.609H263.8l-.7.437-.2.131-.393.233-.466.277h0c-1.8,1.106-3.042,1.819-3.508,2.052h0a2.1,2.1,0,0,0-.393.32,3.377,3.377,0,0,0-.99,2.5,7.283,7.283,0,0,0,0,.975q0,.2,0,.393a1.231,1.231,0,0,0,.116.6l.131.48a1.665,1.665,0,0,0,.189.553,3.585,3.585,0,0,0,.146.422h0Z" transform="translate(-118.42 -355.087)"/><path class="c" d="M261.238,401.147a9.708,9.708,0,0,1-4.148-7.787c.087-2.809,2.1-3.886,4.5-2.4a9.8,9.8,0,0,1,4.1,7.787C265.692,401.511,263.625,402.632,261.238,401.147Z" transform="translate(-118.438 -339.052)"/><path class="f" d="M245.891,402.534a7.51,7.51,0,0,0,3.187,5.982,2.43,2.43,0,0,0,2.387.32h0l16.563-8.806h0a2.387,2.387,0,0,0,1.048-2.154,7.51,7.51,0,0,0-3.188-5.982,2.387,2.387,0,0,0-2.387-.306h0l-16.549,8.806h0A2.4,2.4,0,0,0,245.891,402.534Z" transform="translate(-123.541 -338.547)"/><path class="g" d="M246.969,400.366a2.4,2.4,0,0,0-1.077,2.169,6.447,6.447,0,0,0,.495,2.547l21.352-11.353a6.461,6.461,0,0,0-1.834-1.834,2.387,2.387,0,0,0-2.387-.306l-16.549,8.806Z" transform="translate(-123.541 -338.547)"/><path class="c" d="M305.412,422.107c0-10.61-7.015-21.206-21.032-29.3-28.032-16.185-73.487-16.185-101.519,0-14.016,8.092-21.032,18.688-21.032,29.3h0v19.547c0,10.6,7.015,21.206,21.032,29.3,28.032,16.185,73.487,16.185,101.519,0,14.016-8.092,21.032-18.7,21.032-29.3ZM186.34,398.82c12.517-7.277,29.313-11.207,47.288-11.207s34.771,3.973,47.288,11.207c11.324,6.535,17.553,14.8,17.553,23.288s-6.229,16.767-17.553,23.288C268.4,452.672,251.6,456.6,233.628,456.6s-34.771-3.988-47.288-11.207c-11.324-6.535-17.568-14.817-17.568-23.288s6.244-16.753,17.568-23.288Z" transform="translate(-161.826 -343.434)"/><path class="t" d="M182.863,451.421c28.032,16.185,73.487,16.185,101.519,0s28.032-42.427,0-58.612-73.487-16.185-101.519,0S154.8,435.236,182.863,451.421Zm-14.089-29.313c0-8.485,6.229-16.753,17.553-23.288,12.517-7.277,29.313-11.207,47.288-11.207s34.771,3.973,47.3,11.207c11.309,6.535,17.553,14.8,17.553,23.288s-6.244,16.767-17.553,23.288c-12.532,7.277-29.328,11.207-47.3,11.207s-34.771-3.988-47.288-11.207C175.018,438.874,168.774,430.636,168.774,422.107Z" transform="translate(-161.827 -343.434)"/><path class="c" d="M166.6,419.935a19.416,19.416,0,0,0,2.795,9.781c2.911-4.934,7.86-9.562,14.773-13.536,12.5-7.277,29.3-11.207,47.288-11.207s34.771,3.973,47.274,11.207c6.9,3.973,11.92,8.6,14.773,13.536a19.415,19.415,0,0,0,2.794-9.781c0-8.485-6.229-16.753-17.568-23.288-12.5-7.277-29.313-11.207-47.274-11.207s-34.786,3.988-47.288,11.207C172.829,403.182,166.6,411.449,166.6,419.935Z" transform="translate(-159.654 -341.262)"/><path class="s" d="M166.6,419.935a19.416,19.416,0,0,0,2.795,9.781c2.911-4.934,7.86-9.562,14.773-13.536,12.5-7.277,29.3-11.207,47.288-11.207s34.771,3.973,47.274,11.207c6.9,3.973,11.92,8.6,14.773,13.536a19.415,19.415,0,0,0,2.794-9.781c0-8.485-6.229-16.753-17.568-23.288-12.5-7.277-29.313-11.207-47.274-11.207s-34.786,3.988-47.288,11.207C172.829,403.182,166.6,411.449,166.6,419.935Z" transform="translate(-159.654 -341.262)"/><path class="u" d="M183.971,402.717c12.517-7.277,29.313-11.207,47.288-11.207s34.771,3.988,47.3,11.207c9.33,5.4,15.2,11.979,16.971,18.921-1.776,6.9-7.641,13.478-16.971,18.921-12.532,7.277-29.328,11.207-47.3,11.207s-34.771-3.988-47.288-11.207c-9.344-5.4-15.21-11.979-16.971-18.921C168.761,414.7,174.627,408.117,183.971,402.717Z" transform="translate(-159.472 -338.497)"/><path class="s" d="M216.7,451.446v19.518a93.778,93.778,0,0,1-33.84-10.974c-14.016-8.092-21.032-18.7-21.032-29.313V411.144a24.742,24.742,0,0,1,.859-6.4h0c-3.406,12.619,3.318,25.98,20.158,35.717A94.6,94.6,0,0,0,216.7,451.446Z" transform="translate(-161.826 -332.471)"/></g><g transform="translate(495.769 208.135)"><path class="g" d="M442.237,359.768c.859.349,1.033,1.979,1.092,5.225,0,2.46.466,6.768-2.416,7.554s-7.1.262-8.893-2.1c-2.241-2.911-3.741-5.516-6.943-9.126-2.78-3.115-5.822-6.04-6.855-10.348-.946-3.9,0-5.56,2.634-6.637,3.668-1.455,9.257,3.726,12.095,4.585C435.382,349.667,441.349,359.419,442.237,359.768Z" transform="translate(-313.765 -60.963)"/><path class="v" d="M438.126,353.347l-.087,3.973a9.723,9.723,0,0,1-10.072,0c-.175-.378-.917-5.72-.917-5.72Z" transform="translate(-309.581 -57.54)"/><path class="g" d="M426.093,370.149s1.063,3.493,1.616,6.535c.437,2.416,1.048,6.462.16,8.253s-4.206,2.911-9.3,2.736c-3.3-.1-8.5,2.023-12.08,3.915s-11.28,2.591-15.122,2.052c-4.526-.64-9.169-3.377-9.853-5.269s.32-3.828,11.12-8.151c.1,0,14.991-4.512,20.289-10.1Z" transform="translate(-330.398 -49.104)"/><path class="v" d="M416.332,367.207s-.087,2.911-.116,4.643-2.067,4.163-7.277,3.857c-3.624-.2-6.142-1.237-5.924-4.221l.1-4.366Z" transform="translate(-320.535 -50.471)"/><path class="f" d="M456.33,351.068a107.936,107.936,0,0,0-4.235-20.857s1.819-17.873,2.911-34.844c1.15-18.31,2.227-27.741-1.383-54.2,0,0-56.167-5.05-57.695,16.127s.64,75.2,1.135,84.534,1.907,17.6,3.493,32.734,6.1,50.228,6.1,50.228a14.016,14.016,0,0,0,13.172,0s5.109-42.3,4.919-53.037A92.117,92.117,0,0,0,421.2,348.2s1.455-17.466,2.911-32.632,2.547-22.458,2.911-29.109l1.281-.6s.713,26.2,1.208,35.572,1.761,18.3,4.061,35.645c2.009,15.079,8.18,47.1,8.18,47.1,6.681,3.8,10.8-.233,10.8-.233S457.858,364.123,456.33,351.068Z" transform="translate(-324.001 -108.08)"/><path class="g" d="M417.07,276.228s14.555-6.753,21.832-12.968c0,0-6.87,9.242-15.719,13.216,0,0-3.857,32.515-3.828,31.86l-1.077-32.122Z" transform="translate(-314.127 -97.776)"/><path class="v" d="M410.16,190.453l2.183,19.387,18.31-.917L428.63,186.29Z" transform="translate(-317.274 -132.834)"/><path class="f" d="M429.619,194.266c6.812-.32,10.276.713,13.347,6.593s4.25,23.448,5.327,32.515,1.324,15.443-2.4,16.374-18.252,1.339-18.252,1.339Z" transform="translate(-309.313 -129.224)"/><path class="h" d="M455.8,204.334c-.975-5.414-8.122-11.12-14.8-10.043l-4.526.771c-.8,3.26-9.737,5.3-18.281,3.289-2.576.684-11.047,2.271-13.2,2.984-6.128,2.038-8.733,8.078-9.621,28.091,0,0,.495,45.338.247,54.362,15.151,6.4,31.06,6.564,39.895,4.847,18.4-3.58,20.77-11.12,20.77-11.12l-2.736-20.74S458.043,216.618,455.8,204.334Z" transform="translate(-324.011 -129.249)"/><path class="f" d="M412.208,194.569l.146,1.223a27.115,27.115,0,0,0,11.236,0c5.953-1.324,7.161-3,7.161-3l-.131-1.455s1.455-.539,2.256,1.732a26.734,26.734,0,0,1,.873,2.78s.684,4.177-6.317,6.3a21.672,21.672,0,0,1-17.466-1.907l-2.736.582s2.372-5.473,3.086-6.579a1.82,1.82,0,0,1,1.718-.961Z" transform="translate(-318.609 -130.56)"/><path class="h" d="M383.6,179.25,347.29,198.215l18.048,49.326,33.883-18.979Z" transform="translate(-345.91 -136.04)"/><path class="w" d="M380.638,182.57,350.16,198.478l15.981,42.412,28.425-15.923Z" transform="translate(-344.603 -134.528)"/><path class="i" d="M371.729,186.293s-.262-.684-.6-1.455-2.911-.335-5.662,1.106l-5.356,2.78c-2.809,1.455-4.818,3.289-4.483,4.119l.582,1.455Z" transform="translate(-342.127 -133.667)"/><path class="c" d="M372.1,181.719c-.189-.524-1.3-.437-2.46.189l-2.1,1.135s-1.3-3.26-6.128-1-3.726,6.04-3.726,6.04L355.46,189.3c-1.237.684-2.11,1.659-1.965,2.183l.277.961,18.7-9.752Z" transform="translate(-343.091 -135.132)"/><path class="c" d="M368.9,183.284c-1.747.859-2.431,1.281-1.936,2.562s1.106,2.518,1.106,2.518L359.8,192.73s-.684-1.863-.99-2.576-.917-1.062-2.227-.378l-.495-.524,13.1-6.652Z" transform="translate(-341.902 -134.514)"/><path class="m" d="M368.9,183.284c-1.747.859-2.431,1.281-1.936,2.562s1.106,2.518,1.106,2.518L359.8,192.73s-.684-1.863-.99-2.576-.917-1.062-2.227-.378l-.495-.524,13.1-6.652Z" transform="translate(-341.902 -134.514)"/><path class="c" d="M371.968,186.354l-.582-1.455c-.335-.844-2.911-.349-5.662,1.106l-5.371,2.765c-2.795,1.455-4.8,3.289-4.483,4.134l.6,1.455Z" transform="translate(-342.017 -133.655)"/><path class="v" d="M415.109,199.09c-8.384.728-11.949,2.256-18.237,13.594-6.841,12.328-19.969,34.611-21.628,37.435-2.314,3.915-2.751,9.868-.757,13.463,1.863,3.362,7.787,4.89,14.555-2.693,7.991-9.024,22.851-31.06,22.851-31.06S424.439,213.179,415.109,199.09Z" transform="translate(-334.1 -127.004)"/><path class="v" d="M390.178,264.791c-6.433-.771-21.439-21.133-25.7-27.785a47.434,47.434,0,0,0-13.012-13.725c-6.8-5.021-5.822-12.75-2.838-19.824,1.019-2.445,4.512-.859,4.512-.859l1.223,3.362,2.125,5.822c1.455,1.339,2.271,1.776,2.358,1.383.189-.757-1.048-3.886-1.019-7.146,0-3.915,2.78-1.339,3.6,0a47.326,47.326,0,0,1,2.911,6.477c1.368,3.508.815,7.059,2.474,9.446S390.862,245.8,390.862,245.8Z" transform="translate(-346.342 -125.636)"/><path class="f" d="M421.35,198.783c-5.08-.116-11.178.7-15.908,6.841s-23.651,39.531-23.651,39.531l-10.61-9.519a18.5,18.5,0,0,0-8.18,11.5,115.692,115.692,0,0,0,9.606,13.1c4.5,4.919,9.5,8.34,13.609,6.826s8.3-4.759,17.131-17.073,18.485-26.824,18.485-26.824S427.929,208.986,421.35,198.783Z" transform="translate(-338.754 -127.148)"/><path class="x" d="M402.569,172.84s-4.57,6.928-4.046,7.612,3.886,1.3,3.886,1.3Z" transform="translate(-322.594 -138.96)"/><path class="g" d="M404.468,179.316a5.458,5.458,0,1,1,5.458-5.443A5.458,5.458,0,0,1,404.468,179.316Zm0-9.693a4.25,4.25,0,1,0,4.235,4.25A4.25,4.25,0,0,0,404.468,169.623Z" transform="translate(-322.353 -140.982)"/><path class="v" d="M414.09,159.935c-9.257,1.95-11.935,6.026-12.808,20.711-.9,15.37.67,20.187,2.678,22.254,1.368,1.455,8.937,1.659,12.75.6,4.789-1.31,15.588-5.138,20.639-12.866,5.953-9.082,7.51-21.41,1.15-26.46C429.561,157.053,417.874,159.134,414.09,159.935Z" transform="translate(-321.437 -145.252)"/><path class="x" d="M413.342,190.764l-.437-2.824a18.193,18.193,0,0,1-9.475,2.14C405.191,190.938,409.79,191.2,413.342,190.764Z" transform="translate(-320.34 -132.082)"/><path class="g" d="M399.37,171.37l16.447,2.14-.655,1.15-15.792-2.052Z" transform="translate(-322.189 -139.629)"/><path class="g" d="M401.254,170.183a5.356,5.356,0,0,0,2.1-.131,3.289,3.289,0,0,0,1.121,3.857,4.687,4.687,0,0,0,4.148.553,3.988,3.988,0,0,0-.451,2.911,4.628,4.628,0,0,0,4.788,3.464c.1,2.154.131,4.25,2.416,5.225,0,0,1.455-5.676,6.258-4.963s5.458,6.855,2.431,10.6-5.822,2.314-5.822,2.3c.277.131.378,1.95.466,2.285a17.353,17.353,0,0,0,1.237,3.115,14.8,14.8,0,0,0,4.366,5.065,10.654,10.654,0,0,0,8.733,2.416,9.388,9.388,0,0,0,6.331-5.08,5.328,5.328,0,0,1,1.019-1.848,6.129,6.129,0,0,1,2.358-1.019,6.928,6.928,0,0,0,3.93-9.781,6.36,6.36,0,0,0,2.431-11.091,7.641,7.641,0,0,0,3.275-8.267,7.757,7.757,0,0,0-5.473-5.24c-1.878-.538-1.15-.83-1.732-2.663a6.827,6.827,0,0,0-2.154-3.217,6.9,6.9,0,0,0-6.36-1.179,6.462,6.462,0,0,0-4.628-4.963,6.2,6.2,0,0,0-3.26-.131c-.771.189-2.343.9-2.634,1.645-.975-.961-1.3-2.227-2.474-3.086a7.03,7.03,0,0,0-10.334,2.2,8.616,8.616,0,0,0-6.462-2.707,7.059,7.059,0,0,0-5.895,3.595,6,6,0,0,0,.8,6.724,6.971,6.971,0,0,0-3.581,3.086,4.366,4.366,0,0,0,.509,4.832,3.726,3.726,0,0,0,1.8,1.354A5.823,5.823,0,0,0,401.254,170.183Z" transform="translate(-322.952 -149.562)"/><path class="g" d="M410.762,178.844l.16-6.433a3.218,3.218,0,0,0-.16,6.433Z" transform="translate(-318.429 -139.156)"/></g></g></svg>